<?xml version="1.0" standalone="no"?>
<!DOCTYPE svg PUBLIC "-//W3C//DTD SVG 1.1//EN" "http://www.w3.org/Graphics/SVG/1.1/DTD/svg11.dtd" >
<svg xmlns="http://www.w3.org/2000/svg" width="100%" height="100%">
<metadata>
Created by FontXChange 20110222 at Wed Apr  4 12:41:45 2012
 By Richard Rutter
Copyright (c) 2011 by Fontsmith Ltd. All rights reserved.
</metadata>
<defs>
<font id="" horiz-adv-x="574" >
  <font-face 
    font-family=""
    font-weight="300"
    font-stretch="normal"
    units-per-em="1000"
    panose-1="2 0 5 6 3 0 0 2 0 4"
    ascent="750"
    descent="-250"
    x-height="528"
    cap-height="720"
    bbox="-81.3333 -275.333 1220 1033"
    underline-thickness="50"
    underline-position="-50"
    unicode-range="U+0020-FB02"
  />
<missing-glyph horiz-adv-x="694" 
d="M90 720h514v-720h-514v720zM522 669h-350l176 -263zM553 98v524l-175 -262zM522 52l-174 262l-176 -262h350zM142 98l174 262l-174 262v-524z" />
    <glyph glyph-name="uniFB01" unicode="fi" horiz-adv-x="548" 
d="M176 472v-462q0 -5 -6 -7.5t-22 -2.5h-8q-17 0 -23 2.5t-6 7.5v462h-70q-5 0 -7 5t-2 19v7q0 15 2 20t7 5h70v41q0 107 48 154t149 47q38 0 79 -10.5t72 -25.5q5 -2 5 -7t-6 -19l-2 -5q-6 -14 -9 -17.5t-10 -0.5q-35 16 -66 23.5t-64 7.5q-37 0 -62 -8t-40.5 -26
t-22 -46.5t-6.5 -68.5v-39h123q5 0 7 -5t2 -20v-7q0 -14 -2 -19t-7 -5h-123zM405 519q0 5 6 7t22 2h8q17 0 23 -2t6 -7v-509q0 -5 -5.5 -7.5t-22.5 -2.5h-8q-18 0 -23.5 2.5t-5.5 7.5v509z" />
    <glyph glyph-name="uniFB02" unicode="fl" horiz-adv-x="588" 
d="M414 483q0 56 -2 118t-5 108q-21 10 -46 15t-51 5q-41 0 -67 -12t-41 -33t-20.5 -51t-5.5 -66v-39h123q5 0 7 -5t2 -20v-7q0 -14 -2 -19t-7 -5h-123v-462q0 -5 -6 -7.5t-22 -2.5h-8q-17 0 -23 2.5t-6 7.5v462h-70q-5 0 -7 5t-2 19v7q0 15 2 20t7 5h70v41q0 213 199 213
q36 0 73.5 -8t66.5 -21q19 -8 21 -25q5 -49 6.5 -117.5t1.5 -150.5v-348q0 -33 6.5 -47t29.5 -14q6 0 10.5 0.5t9.5 1.5q4 1 5.5 -2t3.5 -16l1 -7q2 -11 0.5 -15.5t-9.5 -6.5q-10 -3 -21 -4.5t-20 -1.5q-19 0 -36.5 5.5t-29.5 22.5q-8 13 -11.5 37.5t-3.5 66.5v351z" />
    <glyph glyph-name=".notdef" horiz-adv-x="694" 
d="M90 720h514v-720h-514v720zM522 669h-350l176 -263zM553 98v524l-175 -262zM522 52l-174 262l-176 -262h350zM142 98l174 262l-174 262v-524z" />
    <glyph glyph-name=".null" horiz-adv-x="0" 
 />
    <glyph glyph-name="nonmarkingreturn" horiz-adv-x="250" 
 />
    <glyph glyph-name="space" unicode=" " horiz-adv-x="250" 
 />
    <glyph glyph-name="exclam" unicode="!" horiz-adv-x="307" 
d="M158 720q24 0 30.5 -3t6.5 -9l-17 -504q0 -4 -4 -5.5t-17 -1.5h-10q-13 0 -17 1.5t-4 5.5l-19 504q0 6 6.5 9t30.5 3h14zM152 97q23 0 38 -15.5t15 -38.5t-15 -38t-38 -15q-21 0 -36 15t-15 38t15 38.5t36 15.5z" />
    <glyph glyph-name="quotedbl" unicode="&#x22;" horiz-adv-x="428" 
d="M123 449q-15 0 -19 1.5t-4 5.5l-9 254q0 6 5.5 8t23.5 2h13q18 0 23.5 -2t5.5 -8l-9 -254q0 -4 -4 -5.5t-19 -1.5h-7zM298 449q-15 0 -19 1.5t-4 5.5l-9 254q0 6 5.5 8t23.5 2h13q18 0 23.5 -2t5.5 -8l-9 -254q0 -4 -4 -5.5t-19 -1.5h-7z" />
    <glyph glyph-name="numbersign" unicode="#" 
d="M303 0q-11 0 -14 2.5t-2 7.5l43 205h-157l-43 -205q-2 -6 -5.5 -8t-13.5 -2h-13q-11 0 -14 2.5t-2 7.5l43 205h-90q-5 0 -7 3t-2 14v6q0 11 2 14t7 3h97l48 215h-99q-5 0 -7 3t-2 14v6q0 11 2 14t7 3h107l42 200q2 10 19 10h13q11 0 14 -2.5t2 -7.5l-42 -200h157l42 200
q2 10 19 10h12q11 0 14 -2.5t2 -7.5l-42 -200h99q5 0 7 -3t2 -14v-6q0 -11 -2 -14t-7 -3h-107l-46 -215h107q5 0 7 -3t2 -14v-6q0 -11 -2 -14t-7 -3h-116l-43 -205q-2 -6 -5.5 -8t-13.5 -2h-12zM181 255h157l47 215h-157z" />
    <glyph glyph-name="dollar" unicode="$" 
d="M84 47q-5 4 -4.5 9.5t8.5 19.5l3 5q8 12 12 15.5t9 0.5q40 -26 81 -38t79 -12q75 0 120.5 38t45.5 98q0 31 -14 54.5t-37 42t-53 34.5l-60 32q-32 16 -62 34.5t-53.5 42t-38 54.5t-14.5 72q0 40 15.5 72.5t42 55.5t61 36.5t73.5 15.5v84q0 5 4.5 6.5t18.5 1.5h3
q25 0 25 -8v-86q35 -5 68 -17t59 -29q6 -4 5 -9t-8 -17l-3 -5q-8 -14 -12 -16.5t-9 0.5q-30 17 -63.5 28t-71.5 11q-60 0 -100 -32t-40 -89q0 -29 12 -51t32 -40q20 -19 46 -33l54 -29q34 -17 67.5 -36t60.5 -43.5t43.5 -56.5t16.5 -77q0 -40 -14 -74t-39.5 -59t-62 -41
t-80.5 -20v-82q0 -8 -25 -8h-3q-14 0 -18.5 1.5t-4.5 6.5v81q-54 2 -100 17.5t-75 38.5z" />
    <glyph glyph-name="percent" unicode="%" horiz-adv-x="886" 
d="M214 683q-45 0 -73 -40t-28 -120q0 -73 24 -111.5t72 -38.5t74 41.5t26 119.5q0 73 -24 111t-71 38zM217 730q72 0 114 -47t42 -147q0 -102 -44.5 -156.5t-122.5 -54.5q-72 0 -114 47.5t-42 146.5q0 103 44.5 157t122.5 54zM586 726q3 6 7.5 8.5t21.5 2.5h10
q15 0 19 -2.5t0 -10.5l-345 -731q-3 -6 -8.5 -8.5t-20.5 -2.5h-10q-15 0 -18.5 2.5t0.5 10.5zM677 348q-45 0 -73 -40t-28 -120q0 -73 24 -111.5t72 -38.5t74 41.5t26 119.5q0 73 -24 111t-71 38zM680 395q72 0 114 -47t42 -147q0 -102 -44.5 -156.5t-122.5 -54.5
q-72 0 -114 47.5t-42 146.5q0 103 44.5 157t122.5 54z" />
    <glyph glyph-name="ampersand" unicode="&#x26;" horiz-adv-x="701" 
d="M443 652q-28 10 -56 15.5t-55 5.5t-50 -8t-40.5 -24t-27.5 -40.5t-10 -56.5q0 -31 9.5 -58t29.5 -55t51 -60t75 -72l131 -120q55 87 76 214q1 5 5.5 7t20.5 2h3q17 0 21 -2t4 -7q-10 -71 -32 -135t-57 -117l114 -103q5 -5 3.5 -9.5t-10.5 -15.5l-10 -11
q-10 -11 -15 -12.5t-11 3.5l-109 99q-43 -48 -98.5 -75t-124.5 -27q-54 0 -96 15.5t-71.5 42.5t-45 64t-15.5 79q0 68 35 121t99 86q-26 37 -38 71t-12 73q0 42 14.5 76.5t41 59t62.5 38t79 13.5q33 0 67 -7t61 -20q5 -2 5 -6.5t-4 -18.5l-3 -10q-4 -12 -6.5 -14.5
t-9.5 -0.5zM286 46q52 0 96.5 21.5t80.5 61.5l-155 141q-28 25 -50 46.5t-40 41.5q-45 -26 -70.5 -67.5t-25.5 -93.5q0 -35 12.5 -63t34 -47.5t51.5 -30t66 -10.5z" />
    <glyph glyph-name="quotesingle" unicode="'" horiz-adv-x="253" 
d="M123 449q-15 0 -19 1.5t-4 5.5l-9 254q0 6 5.5 8t23.5 2h13q18 0 23.5 -2t5.5 -8l-9 -254q0 -4 -4 -5.5t-19 -1.5h-7z" />
    <glyph glyph-name="parenleft" unicode="(" horiz-adv-x="330" 
d="M92 312q0 77 12.5 143.5t32.5 122.5t46 101t52 80q3 4 7.5 3.5t14.5 -6.5l11 -7q11 -7 12.5 -10.5t-1.5 -8.5q-54 -81 -88 -185t-34 -233t34 -233t88 -185q3 -5 1.5 -8.5t-12.5 -10.5l-11 -7q-10 -6 -14.5 -6.5t-7.5 3.5q-26 34 -52 79.5t-46 101.5t-32.5 122.5
t-12.5 143.5z" />
    <glyph glyph-name="parenright" unicode=")" horiz-adv-x="330" 
d="M238 312q0 -77 -12.5 -143.5t-33 -122.5t-46 -101.5t-51.5 -79.5q-3 -4 -7.5 -3.5t-14.5 6.5l-11 7q-11 7 -12.5 10.5t1.5 8.5q54 81 88 185t34 233t-34 233t-88 185q-3 5 -1.5 8.5t12.5 10.5l11 7q10 6 14.5 6.5t7.5 -3.5q26 -35 51.5 -80t46 -101t33 -122.5
t12.5 -143.5z" />
    <glyph glyph-name="asterisk" unicode="*" horiz-adv-x="401" 
d="M49 587q-11 3 -4 22l4 11q4 10 7 14t10 2l120 -47l-12 132q0 5 3.5 7t17.5 2h10q15 0 18 -2t3 -7l-11 -132l120 47q6 2 9 -2t7 -14l4 -11q7 -19 -4 -22l-127 -23l74 -109q2 -4 1 -7t-15 -11l-9 -5q-12 -8 -15.5 -7.5t-5.5 4.5l-54 117l-56 -117q-2 -4 -5.5 -4.5
t-16.5 7.5l-9 5q-14 8 -15 11t2 7l77 109z" />
    <glyph glyph-name="plus" unicode="+" 
d="M263 341h-214q-8 0 -8 22v3q0 13 1.5 17.5t6.5 4.5h214v214q0 5 4.5 6.5t17.5 1.5h3q22 0 22 -8v-214h215q5 0 6.5 -4.5t1.5 -17.5v-3q0 -22 -8 -22h-215v-215q0 -8 -22 -8h-3q-13 0 -17.5 1.5t-4.5 6.5v215z" />
    <glyph glyph-name="comma" unicode="," horiz-adv-x="241" 
d="M42 -165q-8 10 -2 16q11 11 22 24.5t20 28.5t15 30t6 29q0 17 -7 28t-16 21t-16 20t-7 26q0 22 15.5 35t36.5 13q29 0 45.5 -20t16.5 -49q0 -59 -29.5 -116t-78.5 -96q-4 -3 -7.5 -2.5t-9.5 7.5z" />
    <glyph glyph-name="hyphen" unicode="-" horiz-adv-x="382" 
d="M322 330q5 0 6.5 -4.5t1.5 -18.5v-3q0 -25 -8 -25h-262q-8 0 -8 25v3q0 14 1.5 18.5t6.5 4.5h262z" />
    <glyph glyph-name="period" unicode="." horiz-adv-x="241" 
d="M120 106q23 0 40 -16.5t17 -41.5q0 -26 -17 -42t-40 -16t-39.5 16t-16.5 42q0 25 16.5 41.5t39.5 16.5z" />
    <glyph glyph-name="slash" unicode="/" horiz-adv-x="334" 
d="M245 727q2 5 7 8t25 3h4q20 0 25 -2.5t3 -10.5l-220 -731q-2 -5 -7 -8t-25 -3h-4q-20 0 -25 2.5t-3 10.5z" />
    <glyph glyph-name="zero" unicode="0" 
d="M290 672q-82 0 -126.5 -79.5t-44.5 -240.5q0 -304 163 -304q85 0 129 82t44 242q0 152 -42 226t-123 74zM294 730q54 0 97 -20.5t73 -63.5t46 -109.5t16 -159.5q0 -189 -64.5 -288t-183.5 -99q-107 0 -169 86.5t-62 268.5q0 191 64.5 288t182.5 97z" />
    <glyph glyph-name="one" unicode="1" 
d="M275 54v593l-157 -95q-7 -4 -11 -1.5t-11 14.5l-5 9q-7 12 -7 16.5t7 9.5l178 108q11 6 19.5 9t22.5 3h13q20 0 20 -7v-659h108q5 0 7 -4t2 -20v-7q0 -15 -2 -19t-7 -4h-294q-5 0 -7 4t-2 19v7q0 16 2 20t7 4h117z" />
    <glyph glyph-name="two" unicode="2" 
d="M81 28q0 11 1 18t9 16l145 171q42 49 72 91t49.5 78.5t29 69t9.5 63.5q0 68 -39 102.5t-97 34.5q-44 0 -80 -12t-71 -31q-7 -4 -11.5 -2t-10.5 13l-5 10q-5 11 -5.5 16t4.5 9q37 23 84.5 39t98.5 16q42 0 78.5 -13t63.5 -37.5t42.5 -60t15.5 -80.5q0 -39 -11.5 -77.5
t-34 -78.5t-56 -84t-76.5 -94l-127 -147h309q5 0 7 -4.5t2 -20.5v-8q0 -15 -2 -20t-7 -5h-378q-5 0 -7 5t-2 20v3z" />
    <glyph glyph-name="three" unicode="3" 
d="M182 352q-5 0 -7 4t-2 19v6q0 16 2 20t7 4h17q48 0 85.5 10.5t62.5 34.5q17 17 26.5 39.5t9.5 53.5q0 29 -8.5 50.5t-22.5 37.5q-20 22 -48 32t-60 10q-34 0 -68.5 -9t-63.5 -21q-8 -4 -12 -2t-9 13l-4 10q-5 12 -5.5 17.5t4.5 8.5q32 17 76 28.5t86 11.5
q48 0 87.5 -14.5t68.5 -43.5q22 -23 34.5 -53t12.5 -69q0 -62 -36 -106t-93 -61q28 -6 56 -20.5t50 -37t35.5 -53.5t13.5 -70q0 -53 -19.5 -93t-52.5 -66.5t-76.5 -39.5t-90.5 -13q-42 0 -86.5 9t-76.5 24q-6 3 -6.5 8t4.5 19l4 10q5 11 8.5 14t11.5 0q31 -12 66 -19t66 -7
q90 0 138 45q20 19 31 45t11 61q0 33 -10.5 58t-30.5 43q-29 27 -71 39.5t-94 12.5h-21z" />
    <glyph glyph-name="four" unicode="4" 
d="M260 709q2 5 7 8t25 3h7q20 0 26 -2.5t2 -10.5l-215 -457h245v172q0 9 29 9h7q32 0 32 -9v-172h96q6 0 7.5 -5t1.5 -23v-2q0 -18 -1.5 -22.5t-7.5 -4.5h-96v-184q0 -9 -32 -9h-7q-29 0 -29 9v184h-281q-20 0 -26 1.5t-6 6.5v21q0 29 11 51z" />
    <glyph glyph-name="five" unicode="5" 
d="M180 436q32 8 74 8q111 0 176 -63q28 -27 44 -65.5t16 -87.5q0 -53 -17.5 -96.5t-50.5 -75t-79.5 -49t-104.5 -17.5q-23 0 -45.5 2.5t-42.5 7t-36.5 10t-26.5 11.5q-6 3 -6.5 8.5t4.5 19.5l4 10q4 9 8 12.5t12 0.5q28 -11 60.5 -17.5t65.5 -6.5q46 0 81 12t58 35
q48 46 48 129q0 75 -41 118q-45 48 -142 48q-34 0 -65 -5t-61 -13v348h344q5 0 7 -4.5t2 -20.5v-8q0 -15 -2 -20t-7 -5h-277v-226z" />
    <glyph glyph-name="six" unicode="6" 
d="M452 657q-45 17 -95 17t-86.5 -23.5t-62 -62.5t-41.5 -90t-24 -106q34 23 76 38t88 15q52 0 91.5 -17t65.5 -47t39.5 -70.5t13.5 -88.5q0 -50 -14.5 -92t-42.5 -73.5t-69 -49t-93 -17.5q-60 0 -103 22t-71.5 62.5t-42 97.5t-13.5 128q0 76 16.5 152.5t52 138t90 100.5
t130.5 39q37 0 67 -7t54 -19q5 -3 4.5 -8.5t-5.5 -17.5l-4 -10q-5 -11 -9 -12.5t-12 1.5zM138 336q0 -144 36 -217t125 -73q72 0 110.5 47t38.5 123q0 32 -7 63t-24 56t-46 40t-72 15q-45 0 -86.5 -16.5t-74.5 -37.5z" />
    <glyph glyph-name="seven" unicode="7" 
d="M235 11q-2 -5 -7 -8t-25 -3h-8q-20 0 -25.5 2.5t-2.5 10.5l272 649h-349q-5 0 -7 5t-2 20v8q0 16 2 20.5t7 4.5h391q13 0 17.5 -1t4.5 -5v-34q0 -12 -1.5 -20t-6.5 -19z" />
    <glyph glyph-name="eight" unicode="8" 
d="M488 560q0 -31 -12.5 -57t-32.5 -47t-46.5 -38t-54.5 -30q33 -16 64 -33.5t55 -40t39 -51t15 -67.5q0 -48 -18.5 -86t-50.5 -64.5t-75 -41t-92 -14.5q-43 0 -83 12t-70.5 36t-49 60t-18.5 84q0 34 12 65t33 57t50.5 46t64.5 32q-26 13 -49 29.5t-40 36.5t-27 46t-10 59
q0 42 16.5 75t44.5 55.5t64 34.5t75 12t74.5 -12t62.5 -34t43 -53.5t16 -70.5zM448 189q0 34 -15.5 58.5t-40.5 43.5q-26 19 -58 35l-65 31q-69 -25 -105.5 -69.5t-36.5 -101.5q0 -33 12 -59t33.5 -44t50 -27.5t61.5 -9.5q35 0 65 10.5t52 29t34.5 45t12.5 58.5zM159 559
q0 -27 10.5 -48.5t29 -39t42.5 -32t51 -27.5q56 25 92.5 61.5t36.5 84.5q0 52 -36.5 84.5t-94.5 32.5q-61 0 -96 -33.5t-35 -82.5z" />
    <glyph glyph-name="nine" unicode="9" 
d="M117 69q25 -11 52 -17t56 -6q42 0 70.5 11t52.5 35q35 35 54.5 94.5t28.5 141.5q-33 -23 -76 -38t-89 -15q-52 0 -91.5 17t-65.5 46.5t-39.5 70t-13.5 88.5q0 49 14.5 91.5t42 74t67.5 49.5t92 18q60 0 103.5 -22.5t72.5 -63.5t43 -98t14 -127q0 -124 -27 -218t-83 -148
q-32 -30 -71 -46.5t-94 -16.5q-36 0 -75 9t-64 23q-5 3 -4.5 8.5t5.5 17.5l4 10q5 11 9 13t12 -2zM436 384q0 142 -37.5 216t-126.5 74q-71 0 -109 -47t-38 -124q0 -32 7 -63t24 -55.5t45.5 -39.5t72.5 -15q45 0 87 16.5t75 37.5z" />
    <glyph glyph-name="colon" unicode=":" horiz-adv-x="240" 
d="M64 48q0 24 16.5 40.5t39.5 16.5t39.5 -16.5t16.5 -40.5q0 -26 -16.5 -42t-39.5 -16t-39.5 16t-16.5 42zM64 438q0 24 16.5 41t39.5 17t39.5 -17t16.5 -41q0 -25 -16.5 -41.5t-39.5 -16.5t-39.5 16.5t-16.5 41.5z" />
    <glyph glyph-name="semicolon" unicode=";" horiz-adv-x="240" 
d="M64 438q0 24 16.5 41t39.5 17t39.5 -17t16.5 -41q0 -25 -16.5 -41.5t-39.5 -16.5t-39.5 16.5t-16.5 41.5zM49 -165q-8 10 -2 16q11 11 22 24.5t20 28.5t15 30t6 29q0 17 -7 28t-16 21t-16 20t-7 26q0 22 15.5 35t36.5 13q29 0 45.5 -20t16.5 -49q0 -59 -29.5 -116
t-78.5 -96q-4 -3 -7.5 -2.5t-9.5 7.5z" />
    <glyph glyph-name="less" unicode="&#x3c;" 
d="M42 374q0 12 2 17t7 8l449 251q6 3 10 0.5t10 -13.5l4 -7q6 -11 7 -15.5t-4 -7.5l-425 -237l425 -237q5 -3 4 -7.5t-7 -15.5l-4 -7q-6 -11 -10 -13.5t-10 0.5l-449 251q-5 3 -7 8t-2 17v8z" />
    <glyph glyph-name="equal" unicode="=" 
d="M49 442q-8 0 -8 22v3q0 13 1.5 17.5t6.5 4.5h476q5 0 6.5 -4.5t1.5 -17.5v-3q0 -22 -8 -22h-476zM49 239q-8 0 -8 22v3q0 13 1.5 17.5t6.5 4.5h476q5 0 6.5 -4.5t1.5 -17.5v-3q0 -22 -8 -22h-476z" />
    <glyph glyph-name="greater" unicode="&#x3e;" 
d="M532 366q0 -12 -2 -17t-7 -8l-449 -251q-6 -3 -10 -0.5t-10 13.5l-4 7q-6 11 -7 15.5t4 7.5l425 237l-425 237q-5 3 -4 7.5t7 15.5l4 7q6 11 10 13.5t10 -0.5l449 -251q5 -3 7 -8t2 -17v-8z" />
    <glyph glyph-name="question" unicode="?" horiz-adv-x="419" 
d="M157 195q-17 0 -23 1.5t-6 6.5v66q0 29 6 51t20 40.5t36 36.5t54 39q22 15 38 28t25.5 26.5t14 28.5t4.5 34q0 25 -7.5 45t-21.5 35q-35 37 -103 37q-35 0 -68 -9t-64 -23q-6 -3 -10 0.5t-9 14.5l-5 10q-6 12 -6 16.5t6 9.5q12 7 30 14.5t39.5 13t44.5 9t45 3.5
q51 0 88.5 -13.5t63.5 -39.5q24 -23 37 -54t13 -69q0 -32 -9 -56t-23.5 -42.5t-33 -32.5t-37.5 -27q-26 -17 -45 -31t-31 -28.5t-18 -31.5t-6 -41v-60q0 -5 -6 -6.5t-23 -1.5h-10zM111 42q0 23 15 38.5t37 15.5q23 0 38.5 -15.5t15.5 -38.5t-15.5 -38t-38.5 -15
q-22 0 -37 15t-15 38z" />
    <glyph glyph-name="at" unicode="@" horiz-adv-x="822" 
d="M437 538q29 0 52 -10t41 -27l7 23q2 5 7 6t22 1h10q22 0 21 -8l-43 -204q-2 -12 -3.5 -22.5t-1.5 -21.5q0 -64 59 -64q25 0 47.5 13.5t39 40t26 64.5t9.5 86q0 62 -21 110.5t-58.5 82t-89.5 51t-115 17.5q-76 0 -139 -26.5t-108.5 -73t-71 -110t-25.5 -136.5
q0 -71 20.5 -125t59.5 -90.5t94 -55.5t124 -19q40 0 81.5 6.5t80.5 17.5q6 2 8.5 -1t4.5 -13l4 -14q3 -14 -5 -16q-38 -13 -86.5 -21.5t-99.5 -8.5q-75 0 -139 23t-111 66.5t-73.5 106.5t-26.5 144q0 92 33 166t89.5 126t130.5 80t157 28q73 0 135.5 -21.5t108.5 -61.5
t72.5 -97.5t26.5 -130.5q0 -63 -15.5 -111t-41.5 -80t-60.5 -48.5t-72.5 -16.5q-45 0 -73 22.5t-34 54.5q-19 -35 -53 -56t-72 -21q-66 0 -99.5 41t-33.5 105q0 41 13.5 82t39.5 73.5t63 53t85 20.5zM519 455q-15 17 -35.5 27.5t-47.5 10.5q-31 0 -56 -15.5t-42.5 -41
t-27 -58.5t-9.5 -69q0 -41 17.5 -69.5t59.5 -28.5q40 0 71 31q34 34 48 103z" />
    <glyph glyph-name="A" unicode="A" horiz-adv-x="626" 
d="M463 194h-308l-61 -184q-2 -6 -10 -8t-25 -2h-5q-21 0 -26 3q-4 2 -4 5q0 2 1 3l242 696q3 8 11.5 10.5t31.5 2.5h2q23 0 31.5 -2.5t11.5 -10.5l246 -696q1 -1 1 -3q0 -3 -4 -5q-5 -3 -27 -3h-10q-20 0 -27.5 2t-9.5 8zM173 250h272l-135 407z" />
    <glyph glyph-name="B" unicode="B" horiz-adv-x="565" 
d="M243 720q70 0 116.5 -14t77.5 -43q48 -45 48 -124q0 -32 -9.5 -58.5t-25.5 -46.5t-36.5 -33.5t-41.5 -20.5q31 -7 58.5 -22t48 -37t32.5 -52t12 -67q0 -44 -13.5 -77t-36.5 -57q-35 -36 -90 -52t-124 -16h-177v720h161zM151 56h100q58 0 97.5 11t64.5 34q39 34 39 99
q0 60 -36 96q-49 49 -160 49h-105v-289zM151 397h83q53 0 88.5 11t57.5 33q35 35 35 91q0 33 -9.5 56.5t-26.5 39.5q-22 20 -54.5 28t-83.5 8h-90v-267z" />
    <glyph glyph-name="C" unicode="C" horiz-adv-x="564" 
d="M355 671q-59 0 -103.5 -22.5t-73.5 -63.5t-43.5 -99t-14.5 -130q0 -146 57.5 -226.5t175.5 -80.5q37 0 73.5 8.5t68.5 24.5q10 5 18 -15l4 -10q5 -12 5 -17.5t-6 -8.5q-38 -20 -84 -30.5t-96 -10.5q-69 0 -122.5 26t-90.5 73t-56 113.5t-19 147.5q0 95 23 166.5t64 119
t96 71t120 23.5q45 0 89 -12t79 -34q5 -3 5 -7t-7 -17l-5 -11q-6 -12 -9.5 -14t-8.5 0q-39 18 -71.5 27t-67.5 9z" />
    <glyph glyph-name="D" unicode="D" horiz-adv-x="646" 
d="M244 720q98 0 161.5 -23.5t108.5 -70.5q85 -90 85 -263q0 -182 -93 -275q-44 -44 -107 -66t-154 -22h-163v720h162zM151 56h88q76 0 127 17.5t85 50.5q40 39 58 99t18 138q0 77 -18.5 135.5t-56.5 97.5q-17 18 -37.5 31t-46 21.5t-58 13t-73.5 4.5h-86v-608z" />
    <glyph glyph-name="E" unicode="E" horiz-adv-x="534" 
d="M82 0v720h386q5 0 7 -5t2 -21v-4q0 -17 -2 -22t-7 -5h-317v-270h269q5 0 7 -5t2 -21v-4q0 -17 -2 -22t-7 -5h-269v-279h321q5 0 7 -5t2 -21v-4q0 -17 -2 -22t-7 -5h-390z" />
    <glyph glyph-name="F" unicode="F" horiz-adv-x="479" 
d="M151 11q0 -6 -5.5 -8.5t-25.5 -2.5h-5q-21 0 -27 2.5t-6 8.5v709h360q5 0 7 -5t2 -21v-4q0 -17 -2 -22t-7 -5h-291v-270h243q5 0 7 -5t2 -21v-4q0 -17 -2 -22t-7 -5h-243v-325z" />
    <glyph glyph-name="G" unicode="G" horiz-adv-x="636" 
d="M525 625q-44 24 -82.5 35t-84.5 11q-60 0 -105 -22.5t-74.5 -63.5t-44.5 -98.5t-15 -127.5q0 -68 14 -125t43.5 -98.5t76 -64.5t112.5 -23q37 0 74 7.5t66 19.5v243h-163q-5 0 -7 5t-2 21v4q0 17 2 22t7 5h230v-337q-49 -21 -102 -34.5t-109 -13.5q-72 0 -126 21.5
t-92 59.5q-48 48 -72 120t-24 163q0 87 21.5 156.5t62 118.5t98 75t129.5 26q58 0 106.5 -15t85.5 -41q5 -3 4 -8t-6 -16l-5 -11q-5 -11 -9 -14t-9 0z" />
    <glyph glyph-name="H" unicode="H" horiz-adv-x="656" 
d="M82 711q0 9 29 9h8q32 0 32 -9v-318h354v318q0 9 29 9h8q32 0 32 -9v-702q0 -9 -32 -9h-8q-29 0 -29 9v327h-354v-327q0 -9 -32 -9h-8q-29 0 -29 9v702z" />
    <glyph glyph-name="I" unicode="I" horiz-adv-x="365" 
d="M73 0q-5 0 -7 3.5t-2 17.5v4q0 15 2 18.5t7 3.5h75v626h-75q-5 0 -7 3.5t-2 17.5v4q0 15 2 18.5t7 3.5h219q5 0 7 -3.5t2 -18.5v-4q0 -14 -2 -17.5t-7 -3.5h-75v-626h75q5 0 7 -3.5t2 -18.5v-4q0 -14 -2 -17.5t-7 -3.5h-219z" />
    <glyph glyph-name="J" unicode="J" horiz-adv-x="438" 
d="M332 720q32 0 32 -9v-516q0 -53 -11.5 -90.5t-37.5 -64.5q-23 -24 -58.5 -37t-77.5 -13t-80.5 11t-67.5 31q-7 5 -7 9.5t6 16.5l5 10q6 11 10 14t12 -1q32 -16 60 -24.5t56 -8.5q29 0 53.5 10t38.5 27q30 37 30 126v500q0 9 29 9h8z" />
    <glyph glyph-name="K" unicode="K" horiz-adv-x="571" 
d="M82 711q0 9 29 9h8q32 0 32 -9v-375l103 110q78 83 126.5 149.5t73.5 116.5q2 5 6 6.5t21 1.5h14q14 0 18.5 -2t2.5 -8q-23 -55 -77.5 -130t-136.5 -160l244 -407q2 -3 2 -6q0 -2 -2 -3q-3 -4 -23 -4h-16q-22 0 -28 2t-10 8l-214 361l-104 -108v-254q0 -9 -32 -9h-8
q-29 0 -29 9v702z" />
    <glyph glyph-name="L" unicode="L" horiz-adv-x="495" 
d="M151 57h297q5 0 7 -5t2 -21v-4q0 -17 -2 -22t-7 -5h-338q-18 0 -23 2.5t-5 8.5v700q0 9 29 9h8q32 0 32 -9v-654z" />
    <glyph glyph-name="M" unicode="M" horiz-adv-x="777" 
d="M143 720q26 0 33.5 -2.5t9.5 -7.5l208 -516l199 516q2 5 10 7.5t35 2.5h5q23 0 30 -2t7 -8l30 -703q0 -4 -5 -5.5t-25 -1.5h-6q-20 0 -25 1.5t-5 5.5l-23 627l-193 -497q-2 -5 -8 -6.5t-25 -1.5h-8q-19 0 -25 1.5t-8 6.5l-200 489l-23 -619q0 -4 -5 -5.5t-25 -1.5h-4
q-20 0 -25 1.5t-5 5.5l34 703q0 6 7 8t30 2h5z" />
    <glyph glyph-name="N" unicode="N" horiz-adv-x="677" 
d="M142 625v-616q0 -5 -5.5 -7t-22.5 -2h-7q-17 0 -22 2t-5 7v702q0 5 6 7t23 2h7q25 0 33 -2t12 -8l374 -615v616q0 5 5 7t22 2h7q17 0 22.5 -2t5.5 -7v-702q0 -5 -6 -7t-23 -2h-7q-25 0 -33 2t-12 8z" />
    <glyph glyph-name="O" unicode="O" horiz-adv-x="693" 
d="M353 671q-54 0 -97.5 -21t-73.5 -61.5t-46.5 -99.5t-16.5 -135q0 -148 58 -226.5t163 -78.5q54 0 97 21.5t73.5 62t47 100t16.5 134.5q0 148 -58 226t-163 78zM356 730q64 0 117 -22.5t91.5 -67.5t60 -112t21.5 -157q0 -88 -21.5 -158.5t-62 -120t-97.5 -76t-128 -26.5
q-64 0 -117 22.5t-91.5 67.5t-60 112.5t-21.5 157.5q0 88 21.5 158t62 119.5t97.5 76t128 26.5z" />
    <glyph glyph-name="P" unicode="P" horiz-adv-x="525" 
d="M151 343q24 -4 49.5 -6t53.5 -2q91 0 134 43q45 45 45 127q0 38 -10 65.5t-29 46.5q-26 26 -66.5 36.5t-97.5 10.5h-79v-321zM82 720h151q72 0 125.5 -14t91.5 -51q25 -25 39.5 -60.5t14.5 -86.5t-15.5 -93.5t-47.5 -74.5q-29 -29 -73.5 -45t-104.5 -16q-55 0 -112 9
v-279q0 -9 -32 -9h-8q-29 0 -29 9v711z" />
    <glyph glyph-name="Q" unicode="Q" horiz-adv-x="693" 
d="M356 730q64 0 117 -22.5t91.5 -67.5t60 -112t21.5 -157q0 -117 -37.5 -202t-105.5 -131q19 -27 41 -52t47 -50q5 -5 2.5 -10t-11.5 -13l-10 -9q-9 -8 -14 -10h-2q-3 0 -7 4q-51 51 -96 113q-26 -10 -55 -15.5t-61 -5.5q-64 0 -117 22.5t-91.5 67.5t-60 112.5t-21.5 157.5
q0 88 21.5 158t62 119.5t97.5 76t128 26.5zM353 671q-54 0 -97.5 -21t-73.5 -61.5t-46.5 -99.5t-16.5 -135q0 -148 58 -226.5t163 -78.5q42 0 79 14q-16 26 -29 51.5t-22 51.5q-2 7 0.5 10t13.5 8l14 6q13 5 16.5 3.5t6.5 -8.5q11 -25 23 -48.5t26 -46.5q51 38 78.5 108
t27.5 169q0 148 -58 226t-163 78z" />
    <glyph glyph-name="R" unicode="R" horiz-adv-x="554" 
d="M151 305v-296q0 -9 -32 -9h-8q-29 0 -29 9v711h152q83 0 136.5 -15.5t87.5 -48.5q50 -48 50 -136q0 -48 -15 -85t-41 -63q-39 -39 -103 -56l43 -90l40 -77q19 -36 40 -69t46 -67q1 -2 1 -4q0 -3 -1 -5q-4 -4 -27 -4h-10q-20 0 -27 1.5t-13 9.5q-20 25 -41.5 60.5
t-42.5 75t-40 81t-34 78.5q-7 -1 -14 -1h-14h-104zM151 359h96q99 0 147 46q41 41 41 111q0 66 -33 101q-24 26 -64 37t-100 11h-87v-306z" />
    <glyph glyph-name="S" unicode="S" horiz-adv-x="513" 
d="M49 47q-5 4 -5 9t9 20l3 5q8 12 12 15.5t9 0.5q40 -26 81 -38t79 -12q75 0 120.5 38t45.5 98q0 31 -14 54.5t-37 42t-52 34.5l-61 32q-32 16 -62 34.5t-53.5 42t-38 54.5t-14.5 72t16.5 74.5t45 57t65 36.5t77.5 13q46 0 90 -13.5t76 -35.5q6 -4 5 -9t-8 -17l-3 -5
q-8 -14 -12 -16.5t-9 0.5q-30 17 -63.5 28t-71.5 11q-60 0 -100 -32t-40 -89q0 -29 12 -51t32 -40t46 -33l54 -29q34 -17 67.5 -36t60.5 -43.5t43.5 -56.5t16.5 -77q0 -44 -16.5 -80t-46.5 -61.5t-72 -40t-93 -14.5q-59 0 -110.5 16.5t-83.5 40.5z" />
    <glyph glyph-name="T" unicode="T" horiz-adv-x="516" 
d="M25 663q-5 0 -7 6t-2 21v4q0 26 9 26h466q5 0 7 -6t2 -21v-4q0 -26 -9 -26h-195v-654q0 -9 -32 -9h-8q-29 0 -29 9v654h-202z" />
    <glyph glyph-name="U" unicode="U" horiz-adv-x="670" 
d="M595 267q0 -77 -17 -128t-52 -84q-33 -32 -81 -48.5t-109 -16.5q-125 0 -192 64q-35 33 -52 84t-17 128v445q0 9 29 9h8q32 0 32 -9v-436q0 -65 13 -108.5t39 -69.5q24 -25 59.5 -37t80.5 -12q91 0 139 49q26 26 39 69.5t13 108.5v436q0 9 29 9h7q32 0 32 -9v-444z" />
    <glyph glyph-name="V" unicode="V" horiz-adv-x="594" 
d="M349 14q-3 -9 -12.5 -11.5t-32.5 -2.5h-5q-23 0 -32.5 2.5t-12.5 11.5l-234 693q-1 2 -1 4q0 5 4 7q5 2 26 2h11q18 0 25 -2.5t9 -8.5l212 -642l202 643q2 6 7 8t24 2h7q20 0 25 -3q4 -2 4 -5q0 -2 -1 -3z" />
    <glyph glyph-name="W" unicode="W" horiz-adv-x="956" 
d="M735 14q-2 -9 -12 -11.5t-33 -2.5h-5q-23 0 -33.5 2.5t-12.5 11.5l-158 577l-158 -577q-2 -9 -12 -11.5t-33 -2.5h-5q-23 0 -32.5 2.5t-12.5 11.5l-198 693q-1 2 -1 4q0 5 4 7q5 2 26 2h11q18 0 25 -2.5t9 -8.5l174 -642l173 643q2 5 7 7.5t22 2.5h8q17 0 22 -2.5t7 -7.5
l175 -644l170 644q2 6 7 8t24 2h7q20 0 25 -3q4 -2 4 -5q0 -2 -1 -3z" />
    <glyph glyph-name="X" unicode="X" horiz-adv-x="550" 
d="M271 323l-179 -313q-4 -6 -11.5 -8t-27.5 -2h-5q-20 0 -25 4q-2 1 -2.5 4t2.5 7l217 363l-193 328q-4 7 1.5 10.5t26.5 3.5h12q29 0 34 -9l161 -276l157 275q4 6 11.5 8t27.5 2h5q20 0 25 -3.5t0 -11.5l-195 -325l216 -366q2 -3 2 -5q0 -3 -3 -5q-6 -4 -27 -4h-12
q-29 0 -34 9z" />
    <glyph glyph-name="Y" unicode="Y" horiz-adv-x="523" 
d="M254 0q-29 0 -29 9v269l-211 430q-1 2 -1 3q0 3 3 5q5 4 27 4h8q21 0 28 -2.5t10 -8.5l177 -369l175 371q3 6 9 7.5t25 1.5h9q17 0 22 -3q3 -2 3 -5q0 -2 -1 -4l-214 -430v-269q0 -9 -32 -9h-8z" />
    <glyph glyph-name="Z" unicode="Z" horiz-adv-x="538" 
d="M122 57h369q5 0 7 -6t2 -21v-4q0 -26 -9 -26h-426q-14 0 -18 2t-4 8v20q0 16 4 26t14 27l351 580h-341q-5 0 -7 6t-2 21v4q0 26 9 26h399q14 0 18 -2t4 -8v-15q0 -16 -4 -26t-14 -27z" />
    <glyph glyph-name="bracketleft" unicode="[" horiz-adv-x="330" 
d="M108 -132v885h188q5 0 7 -3.5t2 -18.5v-9q0 -14 -2 -17.5t-7 -3.5h-124v-781h124q5 0 7 -3.5t2 -18.5v-9q0 -14 -2 -17.5t-7 -3.5h-188z" />
    <glyph glyph-name="backslash" unicode="\" horiz-adv-x="334" 
d="M309 -4q2 -8 -3 -10.5t-25 -2.5h-4q-20 0 -25 3t-7 8l-220 731q-2 8 3 10.5t25 2.5h4q20 0 25 -3t7 -8z" />
    <glyph glyph-name="bracketright" unicode="]" horiz-adv-x="330" 
d="M34 -132q-5 0 -7 3.5t-2 17.5v9q0 15 2 18.5t7 3.5h124v781h-124q-5 0 -7 3.5t-2 17.5v9q0 15 2 18.5t7 3.5h188v-885h-188z" />
    <glyph glyph-name="asciicircum" unicode="^" 
d="M288 730q18 0 24 -2t9 -8l177 -375q3 -6 -2 -8.5t-22 -2.5h-9q-17 0 -23.5 2t-8.5 7l-146 325l-146 -325q-2 -5 -8.5 -7t-23.5 -2h-9q-17 0 -22 2.5t-2 8.5l177 375q3 6 9 8t24 2h2z" />
    <glyph glyph-name="underscore" unicode="_" horiz-adv-x="504" 
d="M497 -164q5 0 6.5 -4t1.5 -17v-1q0 -23 -8 -23h-490q-8 0 -8 23v1q0 13 1.5 17t6.5 4h490z" />
    <glyph glyph-name="grave" unicode="`" horiz-adv-x="354" 
d="M144 721q20 0 26.5 -2.5t9.5 -7.5l67 -118q4 -7 -20 -7h-4q-14 0 -19 1t-8 5l-88 119q-4 5 0 7.5t21 2.5h15z" />
    <glyph glyph-name="a" unicode="a" horiz-adv-x="563" 
d="M484 223q0 -65 1.5 -113.5t5.5 -101.5q0 -5 -5 -6.5t-20 -1.5h-3q-17 0 -21.5 2t-5.5 7l-8 62q-23 -39 -65.5 -60t-95.5 -21q-57 0 -98.5 21t-68.5 57t-40 84.5t-13 102.5q0 64 17 116.5t47.5 89.5t72.5 57t92 20q52 0 88.5 -20t59.5 -53l5 53q1 6 6.5 8t21.5 2h7
q16 0 19 -2t3 -10q0 -7 -0.5 -15.5t-0.5 -16.5q-1 -23 -1 -54v-61v-146zM419 396q-25 38 -58 60t-81 22q-76 0 -119.5 -59t-43.5 -159q0 -39 7.5 -77t25.5 -68t48 -48t75 -18q73 0 110 41q10 12 17 24.5t11.5 30t6 42t1.5 59.5v150z" />
    <glyph glyph-name="b" unicode="b" horiz-adv-x="557" 
d="M76 751q0 5 8 7t20 2h8q29 0 29 -9v-284q57 71 154 71q59 0 100 -22.5t66.5 -59t37 -83t11.5 -95.5q0 -66 -17 -119.5t-49.5 -91t-79.5 -57.5t-108 -20q-53 0 -94 8t-73 20q-8 3 -10.5 6.5t-2.5 10.5v716zM141 66q23 -8 52.5 -13t59.5 -5q96 0 141.5 59.5t45.5 163.5
q0 101 -37 154t-112 53q-74 0 -114 -45q-13 -14 -22 -33t-11 -51q-2 -22 -2.5 -59.5t-0.5 -83.5v-140z" />
    <glyph glyph-name="c" unicode="c" horiz-adv-x="483" 
d="M446 493q5 -4 5 -9t-7 -19l-4 -8q-7 -14 -11.5 -16.5t-11.5 1.5q-58 35 -122 35q-80 0 -129 -55.5t-49 -159.5q0 -42 9 -81t28.5 -68t51.5 -46.5t78 -17.5q36 0 69 7t62 23q7 4 11 0.5t9 -17.5l4 -11q5 -12 4.5 -16.5t-5.5 -7.5q-32 -18 -73.5 -27.5t-87.5 -9.5
q-58 0 -101.5 20.5t-72 56.5t-42.5 84.5t-14 104.5q0 69 18.5 121.5t51 88t77 54t96.5 18.5q88 0 156 -45z" />
    <glyph glyph-name="d" unicode="d" horiz-adv-x="581" 
d="M527 50q5 0 6 -3t1 -18v-4q0 -14 -0.5 -17.5t-5.5 -5.5t-14.5 -3t-19.5 -1q-62 0 -68 66q-45 -74 -157 -74q-107 0 -164.5 69t-57.5 194q0 56 15 107.5t45 91t75 63t105 23.5q36 0 71.5 -11t61.5 -31v255q0 5 8 7t20 2h8q29 0 29 -9v-636q0 -22 2 -35t7 -19.5t13 -8.5
t20 -2zM420 430q-27 23 -58 35t-69 12q-40 0 -72.5 -15.5t-55.5 -44.5t-35.5 -70t-12.5 -91q0 -103 43.5 -155t116.5 -52q34 0 63 10.5t48 30.5q10 10 16.5 22.5t10 30.5t4.5 42t1 59v186z" />
    <glyph glyph-name="e" unicode="e" horiz-adv-x="541" 
d="M117 243q4 -107 57 -152q23 -20 55 -30t71 -10q38 0 73 8t64 22q8 4 12 1.5t10 -17.5l4 -10q8 -21 -1 -26q-75 -39 -173 -39q-117 0 -179.5 70t-62.5 192q0 61 16 113.5t46.5 90.5t74.5 60t100 22q65 0 109 -29t69 -79q17 -35 25.5 -76t8.5 -86q0 -17 -3 -21t-11 -4h-365
zM429 295q-1 34 -9.5 67t-26.5 58.5t-45 41t-65 15.5q-32 0 -60 -10t-49.5 -31.5t-36 -56.5t-19.5 -84h311z" />
    <glyph glyph-name="f" unicode="f" horiz-adv-x="330" 
d="M176 472v-462q0 -5 -6 -7.5t-22 -2.5h-8q-17 0 -23 2.5t-6 7.5v462h-70q-5 0 -7 5t-2 19v7q0 15 2 20t7 5h70v41q0 100 41 156.5t136 56.5q48 0 91 -17q5 -2 5 -11q0 -6 -2 -15l-2 -7q-4 -13 -7 -17.5t-10 -2.5q-16 5 -34 8.5t-38 3.5q-35 0 -57 -10.5t-35 -30.5t-18 -49
t-5 -67v-39h123q5 0 7 -5t2 -20v-7q0 -14 -2 -19t-7 -5h-123z" />
    <glyph glyph-name="g" unicode="g" horiz-adv-x="561" 
d="M484 519q1 -20 1.5 -49t0.5 -63l2 -70v-70v-174q0 -66 -4.5 -111.5t-15.5 -82.5q-23 -72 -80 -108t-139 -36q-38 0 -76 7.5t-63 18.5q-5 2 -6 7t4 21l2 6q6 17 9 20.5t11 0.5q26 -11 54.5 -16t64.5 -5q69 0 112 31t56 97q3 20 4.5 54t1.5 69q-63 -66 -165 -66
q-53 0 -92.5 19.5t-65.5 54t-39.5 82t-13.5 102.5q0 65 17.5 117t48 88t72.5 55.5t92 19.5q45 0 82 -15t63 -52l1 48q0 5 5.5 7t22.5 2h4q20 0 24.5 -2t4.5 -7zM423 284q0 54 -3 81t-14 47q-14 27 -44 45t-76 18q-84 0 -126.5 -58t-42.5 -155q0 -98 39 -150t119 -52
q44 0 82.5 20t65.5 52v152z" />
    <glyph glyph-name="h" unicode="h" horiz-adv-x="580" 
d="M143 457q28 39 71 60t102 21q93 0 143 -52q26 -26 37.5 -66.5t11.5 -101.5v-307q0 -5 -5.5 -8t-22.5 -3h-8q-18 0 -23.5 3t-5.5 8v262q0 33 -1 57.5t-4.5 44t-10 34.5t-16.5 27q-17 20 -45.5 29t-65.5 9q-42 0 -71.5 -12.5t-52.5 -36.5q-12 -14 -20 -33t-10 -39
q-2 -22 -2.5 -60.5t-0.5 -84.5v-197q0 -5 -6 -8t-22 -3h-8q-18 0 -23.5 3t-5.5 8v740q0 5 8 7t20 2h8q29 0 29 -9v-294z" />
    <glyph glyph-name="i" unicode="i" horiz-adv-x="221" 
d="M59 710q0 23 15.5 38.5t36.5 15.5t36.5 -15.5t15.5 -38.5t-15.5 -38t-36.5 -15t-36.5 15t-15.5 38zM78 519q0 5 6 7t22 2h8q17 0 23 -2t6 -7v-509q0 -5 -5.5 -7.5t-22.5 -2.5h-8q-18 0 -23.5 2.5t-5.5 7.5v509z" />
    <glyph glyph-name="j" unicode="j" horiz-adv-x="246" 
d="M83 710q0 23 15.5 38.5t36.5 15.5t36.5 -15.5t15.5 -38.5t-15.5 -38t-36.5 -15t-36.5 15t-15.5 38zM167 -9q0 -128 -46 -182t-133 -54q-18 0 -36 3t-29 8q-4 3 -4 10q0 5 1 14l1 6q2 14 4 18.5t7 2.5q11 -3 23 -5t27 -2q67 0 93.5 41t26.5 138v530q0 9 28 9h8q17 0 23 -2
t6 -7v-528z" />
    <glyph glyph-name="k" unicode="k" horiz-adv-x="478" 
d="M107 0q-29 0 -29 9v742q0 5 8 7t20 2h8q29 0 29 -9v-462l58 50q45 38 88 84.5t78 94.5q4 5 11 7.5t25 2.5h5q20 0 25.5 -2t0.5 -9q-12 -18 -29.5 -40.5t-39.5 -48.5l-47 -52q-26 -27 -54 -53l190 -309q3 -4 3 -7t-5 -5q-7 -2 -25 -2h-4q-13 0 -20 0.5t-11 1.5t-6 3.5
t-4 5.5l-166 271l-73 -63v-210q0 -5 -8 -7t-20 -2h-8z" />
    <glyph glyph-name="l" unicode="l" horiz-adv-x="245" 
d="M136 112q0 -33 6.5 -47t29.5 -14q6 0 10.5 0.5t9.5 1.5q4 1 5.5 -2t3.5 -16l1 -7q1 -6 1 -10t-1 -6q-1 -4 -9 -6q-10 -3 -21 -4.5t-20 -1.5q-19 0 -36.5 5.5t-29.5 22.5q-8 13 -11.5 37.5t-3.5 66.5v351v80q0 36 -0.5 68t-1.5 61l-2 59q0 5 6 7t22 2h8q17 0 23 -2t6 -7
q1 -22 2 -55t1.5 -72.5t0.5 -81.5v-82v-348z" />
    <glyph glyph-name="m" unicode="m" horiz-adv-x="924" 
d="M111 528q16 0 22.5 -1.5t6.5 -7.5l3 -61q28 41 70.5 60.5t98.5 19.5q87 0 137 -52q9 -10 16.5 -20.5t12.5 -24.5q32 51 77.5 74t104.5 23q45 0 81.5 -13t61.5 -39q26 -26 37.5 -66.5t11.5 -101.5v-309q0 -5 -8 -7t-20 -2h-8q-29 0 -29 9v264q0 33 -1 57.5t-4.5 44
t-10 34.5t-16.5 27q-32 38 -106 38q-40 0 -71.5 -13t-53.5 -42q-18 -24 -23 -66q-3 -26 -3 -72v-272q0 -5 -8 -7t-20 -2h-8q-29 0 -29 9v264q0 33 -1 57.5t-4.5 44t-10 34.5t-16.5 27q-32 38 -106 38q-38 0 -70.5 -13t-54.5 -42q-18 -24 -23 -66q-2 -22 -2.5 -60.5
t-0.5 -84.5v-199q0 -5 -8 -7t-20 -2h-8q-29 0 -29 9v378v69q0 34 -2 63q0 6 5.5 7.5t20.5 1.5h8z" />
    <glyph glyph-name="n" unicode="n" horiz-adv-x="581" 
d="M141 455q29 40 72.5 61.5t103.5 21.5q93 0 143 -52q26 -26 37.5 -66.5t11.5 -101.5v-307q0 -5 -5.5 -8t-22.5 -3h-8q-18 0 -23.5 3t-5.5 8v262q0 33 -1 57.5t-4.5 44t-10 34.5t-16.5 27q-17 20 -45.5 29t-65.5 9q-42 0 -71.5 -12.5t-52.5 -36.5q-12 -14 -20 -33t-10 -39
q-2 -22 -2.5 -60.5t-0.5 -84.5v-197q0 -5 -6 -8t-22 -3h-8q-18 0 -23.5 3t-5.5 8v376v65q0 33 -2 67q0 9 27 9h7q15 0 21 -2t6 -7z" />
    <glyph glyph-name="o" unicode="o" horiz-adv-x="566" 
d="M117 259q0 -38 7.5 -75.5t25.5 -67.5t48.5 -48.5t77.5 -18.5q34 0 65.5 12t55.5 38.5t38 68t14 101.5q0 38 -7.5 75.5t-25.5 67.5t-49 48.5t-78 18.5q-34 0 -65 -12t-55 -38.5t-38 -68.5t-14 -101zM273 -10q-45 0 -81.5 11.5t-65.5 37.5q-37 33 -58 87t-21 126
q0 71 17.5 124.5t49.5 89.5t77.5 54t101.5 18q45 0 81.5 -11.5t65.5 -37.5q37 -33 58 -87t21 -126q0 -71 -17.5 -124.5t-49.5 -89.5t-77.5 -54t-101.5 -18z" />
    <glyph glyph-name="p" unicode="p" horiz-adv-x="560" 
d="M112 528q26 0 26 -9l3 -50q27 35 67 52t90 17q99 0 157 -66.5t58 -196.5q0 -56 -15.5 -107.5t-45 -91t-73.5 -63t-101 -23.5q-44 0 -77 12.5t-59 35.5v-262q0 -9 -29 -9h-8q-16 0 -22 2t-6 7v743q0 5 5.5 7t21.5 2h8zM142 102q23 -23 58.5 -38t77.5 -15q39 0 70 16t52 45
t32 70.5t11 91.5q0 55 -11 94t-31 64t-48.5 36.5t-63.5 11.5q-42 0 -70 -12t-45 -33q-7 -9 -13 -20t-10 -29.5t-6.5 -47t-2.5 -71.5v-163z" />
    <glyph glyph-name="q" unicode="q" horiz-adv-x="560" 
d="M483 55q0 -39 1 -79v-76q1 -37 2 -69t3 -56q0 -5 -6.5 -6.5t-23.5 -1.5h-6q-17 0 -23 1.5t-6 6.5q-1 22 -2 55.5t-2 73.5t-1.5 84.5t-0.5 88.5q-23 -42 -64 -64.5t-97 -22.5q-53 0 -92.5 19.5t-65.5 54.5t-39 82.5t-13 103.5q0 66 18.5 119.5t53 91t84 57.5t110.5 20
q45 0 84 -8t72 -21q7 -2 10.5 -6t3.5 -13v-435zM418 460q-24 10 -51 15.5t-54 5.5q-48 0 -84.5 -16t-61 -45.5t-37.5 -71t-13 -91.5q0 -103 38 -155.5t113 -52.5q32 0 59 12t48 33q12 12 20 27.5t13.5 39.5t7.5 58t2 83v158z" />
    <glyph glyph-name="r" unicode="r" horiz-adv-x="347" 
d="M142 405q22 63 62.5 96t85.5 33q19 0 30 -3q4 -1 5.5 -5t1.5 -16v-8q0 -15 -1.5 -23t-8.5 -8q-41 0 -71.5 -17t-51.5 -43q-22 -28 -33.5 -62.5t-13.5 -72.5q-2 -22 -2.5 -65.5t-0.5 -89.5v-112q0 -5 -6 -7t-24 -2h-6q-18 0 -23.5 2t-5.5 7v348q0 41 -0.5 81.5t-1.5 82.5
q0 3 4.5 5t23.5 2h5q20 0 24.5 -2t4.5 -5z" />
    <glyph glyph-name="s" unicode="s" horiz-adv-x="449" 
d="M378 454q-8 -12 -13 -14t-10 2q-29 20 -59.5 30t-68.5 10q-51 0 -80.5 -22t-29.5 -64q0 -25 9 -40.5t25.5 -25.5t38 -16.5t47.5 -13.5q36 -9 66 -20t52.5 -27.5t35 -41t12.5 -61.5q0 -78 -52.5 -119t-136.5 -41q-53 0 -94 14t-70 33q-5 3 -5 7t8 18l3 6q8 16 12.5 18.5
t10.5 -1.5q28 -17 63.5 -29t69.5 -12q60 0 95.5 23t35.5 75q0 23 -8.5 38.5t-25.5 26.5t-41.5 19t-56.5 16q-37 9 -67.5 21t-49.5 29q-41 36 -41 96q0 36 13 64t36.5 47t55.5 29t71 10q45 0 86 -14t72 -38q5 -4 4 -9.5t-9 -16.5z" />
    <glyph glyph-name="t" unicode="t" horiz-adv-x="365" 
d="M309 478h-141v-321q0 -36 3 -57.5t15 -33.5q11 -11 25.5 -15.5t35.5 -4.5q20 0 39.5 3t36.5 9q7 2 8.5 -1t5.5 -17l2 -7q3 -11 3 -16t-5 -8q-24 -10 -51.5 -14.5t-53.5 -4.5q-31 0 -54.5 8.5t-39.5 22.5q-20 20 -27.5 49.5t-7.5 79.5v328h-70q-4 0 -5 4.5t-1 18.5v3
q0 14 1 19t6 5h69v149q0 4 4 5t25 1h7q20 0 24.5 -1.5t4.5 -4.5v-149h141q5 0 6 -5t1 -19v-3q0 -14 -1 -18.5t-6 -4.5z" />
    <glyph glyph-name="u" unicode="u" horiz-adv-x="578" 
d="M437 79q-25 -43 -68 -66t-103 -23q-47 0 -86 12.5t-62 38.5q-26 26 -36.5 66.5t-10.5 102.5v308q0 5 5 7.5t23 2.5h8q18 0 23.5 -2.5t5.5 -7.5v-264q0 -65 4 -102t24 -60q34 -40 111 -40q38 0 66 11t48 31q10 10 18.5 24t13.5 34t8 48.5t3 68.5v249q0 5 5 7.5t23 2.5h8
q18 0 23.5 -2.5t5.5 -7.5v-347q0 -39 1 -78q0 -12 1 -40t1 -43q0 -6 -4 -8q-5 -2 -20 -2h-8q-17 0 -21 1.5t-5 8.5z" />
    <glyph glyph-name="v" unicode="v" horiz-adv-x="493" 
d="M251 53q48 123 84 236t64 228q2 7 7.5 9t20.5 2h9q29 0 29 -10q0 -19 -6.5 -43t-18 -54.5t-14.5 -40.5l-43 -132q-22 -65 -45 -124l-43 -109q-4 -9 -12 -12t-33 -3h-8q-24 0 -31 3.5t-11 13.5l-181 498q-1 2 -1 4q0 4 4 6q4 3 23 3h12q18 0 24.5 -2t8.5 -9z" />
    <glyph glyph-name="w" unicode="w" horiz-adv-x="788" 
d="M226 53l120 464q2 7 8.5 9t28.5 2h9q24 0 30 -2t8 -8l132 -465l40 121q18 57 33.5 112.5t28.5 111.5t25 118q2 8 6 10t24 2h5q17 0 23 -2q5 -2 5 -5q0 -1 -1 -2l-35 -149q-17 -66 -34 -124t-36 -112l-41 -113q-5 -11 -12.5 -16t-30.5 -5h-8q-23 0 -31.5 4.5t-10.5 12.5
l-66 235l-28 102l-30 115q-14 -64 -26 -113.5t-27 -104.5l-64 -231q-3 -11 -12 -15.5t-32 -4.5h-8q-21 0 -30 4t-12 13l-151 498q-1 2 -1 4q0 5 5 7t25 2h8q20 0 25.5 -2t7.5 -10z" />
    <glyph glyph-name="x" unicode="x" horiz-adv-x="496" 
d="M252 329l114 190q4 6 10 7.5t26 1.5h7q21 0 27.5 -3t1.5 -10l-150 -233l173 -267q2 -3 2 -6t-5 -5q-7 -4 -23 -4h-9q-23 0 -30 2.5t-12 10.5l-136 213l-137 -218q-3 -5 -11 -6.5t-26 -1.5h-5q-21 0 -27 3q-3 2 -3 5q0 1 1 3l172 264l-152 240q-4 6 1.5 9.5t30.5 3.5h6
q23 0 29.5 -2t9.5 -7z" />
    <glyph glyph-name="y" unicode="y" horiz-adv-x="509" 
d="M198 264q18 -48 34 -97l37 -110l35 107q15 46 32 93l92 261q2 6 7.5 8t23.5 2h5q15 0 23 -2t6 -8l-192 -539q-21 -56 -42.5 -97t-44.5 -66q-29 -32 -66 -46t-79 -14q-17 0 -38 3t-36 10q-5 2 -5 7t4 17l3 9q5 13 7.5 17.5t7.5 2.5q12 -4 25 -6.5t28 -2.5q31 0 55.5 9.5
t45 30.5t37.5 53.5t33 79.5l-206 530q-2 6 3 9t27 3h8q19 0 26.5 -2t9.5 -8z" />
    <glyph glyph-name="z" unicode="z" horiz-adv-x="455" 
d="M407 56q5 0 6.5 -4.5t1.5 -22.5v-3q0 -17 -1.5 -21.5t-6.5 -4.5h-356q-5 0 -7 4t-2 18v5q0 11 1 16.5t5 10.5l272 418h-258q-5 0 -6.5 4.5t-1.5 21.5v3q0 18 1.5 22.5t6.5 4.5h330q6 0 7.5 -3.5t1.5 -18.5v-4q0 -13 -1 -18.5t-6 -12.5l-271 -415h284z" />
    <glyph glyph-name="braceleft" unicode="{" horiz-adv-x="330" 
d="M198 24q0 -59 23 -81.5t71 -22.5h14q5 0 7 -3.5t2 -17.5v-9q0 -15 -2 -18.5t-7 -3.5h-20q-34 0 -62 8.5t-48 26.5t-31 46t-11 68v143q0 65 -18 91t-55 31q-5 1 -7 4.5t-2 17.5v13q0 14 2 17.5t7 4.5q37 5 55 31t18 91v143q0 79 42 114t110 35h20q5 0 7 -3.5t2 -18.5v-9
q0 -14 -2 -17.5t-7 -3.5h-14q-48 0 -71 -22.5t-23 -81.5v-142q0 -61 -17.5 -93t-58.5 -51q41 -19 58.5 -51t17.5 -93v-143z" />
    <glyph glyph-name="bar" unicode="|" horiz-adv-x="276" 
d="M168 -263q0 -5 -5 -7.5t-22 -2.5h-8q-16 0 -21 2.5t-5 7.5v1070q0 5 5 7.5t21 2.5h8q17 0 22 -2.5t5 -7.5v-1070z" />
    <glyph glyph-name="braceright" unicode="}" horiz-adv-x="330" 
d="M132 167q0 61 17.5 93t58.5 51q-41 19 -58.5 51t-17.5 93v142q0 59 -23 81.5t-71 22.5h-14q-5 0 -7 3.5t-2 17.5v9q0 15 2 18.5t7 3.5h20q34 0 62 -8.5t48 -26.5t31 -46t11 -68v-143q0 -65 17.5 -91t55.5 -31q5 -1 7 -4.5t2 -17.5v-13q0 -14 -2 -17.5t-7 -4.5
q-38 -5 -55.5 -31t-17.5 -91v-143q0 -40 -11 -68t-31 -46t-48 -26.5t-62 -8.5h-20q-5 0 -7 3.5t-2 18.5v9q0 14 2 17.5t7 3.5h14q48 0 71 22.5t23 81.5v143z" />
    <glyph glyph-name="asciitilde" unicode="~" 
d="M414 365q39 0 61 22t36 63q2 5 5 6t15 -3l14 -4q13 -4 12 -12q-14 -63 -54 -95t-97 -32q-39 0 -69.5 15t-58 33t-55.5 33t-63 15q-39 0 -61 -22t-36 -63q-2 -5 -5 -6t-15 3l-14 4q-13 4 -12 12q14 63 54 95t97 32q39 0 69.5 -15t58 -33t55.5 -33t63 -15z" />
    <glyph glyph-name="uni00A0" unicode="&#xa0;" horiz-adv-x="250" 
 />
    <glyph glyph-name="exclamdown" unicode="&#xa1;" horiz-adv-x="307" 
d="M158 -191.956q24 0 30.5 3t6.5 8.99902l-17 503.97q0 3.99902 -4 5.49902t-17 1.5h-10q-13 0 -17 -1.5t-4 -5.49902l-19 -503.97q0 -5.99902 6.5 -8.99902t30.5 -3h14zM152 431.006q23 0 38 15.499t15 38.498q0 22.998 -15 37.9971t-38 14.999q-21 0 -36 -14.999
t-15 -37.9971q0 -22.999 15 -38.498t36 -15.499z" />
    <glyph glyph-name="cent" unicode="&#xa2;" 
d="M458 194q6 3 10.5 2t10.5 -14l4 -9q6 -14 5 -18t-7 -8q-29 -17 -62.5 -28.5t-75.5 -13.5v-97q0 -8 -25 -8h-3q-14 0 -18.5 1.5t-4.5 6.5v98q-53 6 -91.5 29.5t-63.5 58.5t-37 78t-12 87q0 52 14.5 98t42 81t67.5 57t91 27v100q0 5 4.5 6.5t18.5 1.5h3q25 0 25 -8v-99
q39 -3 73.5 -15t61.5 -32q8 -5 6.5 -9.5t-7.5 -15.5l-6 -10q-11 -19 -20 -13q-34 23 -64 31.5t-62 8.5q-87 0 -132.5 -55.5t-45.5 -146.5q0 -42 9.5 -78.5t30.5 -64.5t54 -44t80 -16q36 0 66.5 8t59.5 23z" />
    <glyph glyph-name="sterling" unicode="&#xa3;" 
d="M484 658q-51 25 -101 25q-42 0 -69.5 -13.5t-43 -37.5t-22 -57t-6.5 -71v-104h195q5 0 6.5 -4.5t1.5 -18.5v-1q0 -25 -8 -25h-195v-98q0 -39 -4 -67.5t-13 -50.5t-24 -40t-36 -36h354q8 0 8 -26v-5q0 -28 -8 -28h-429q-8 0 -8 28v5q0 14 1.5 20t5.5 9q48 35 65.5 78
t17.5 103v108h-89q-8 0 -8 25v1q0 14 1.5 18.5t6.5 4.5h89v104q0 51 12.5 94.5t38 74.5t65 48.5t93.5 17.5q32 0 66 -9t65 -26q9 -5 -1 -25l-5 -10q-6 -11 -10.5 -13t-11.5 2z" />
    <glyph glyph-name="currency" unicode="&#xa4;" 
d="M467 368q0 -53 -13.5 -93.5t-39.5 -68.5l68 -114q4 -6 -2 -9t-32 -3q-18 0 -24 2.5t-11 9.5l-46 78q-38 -20 -88 -20q-46 0 -82 19l-45 -77q-5 -8 -11.5 -10t-26.5 -2q-24 1 -29.5 4t-1.5 8l68 114q-44 55 -44 144q0 53 13.5 93.5t39.5 68.5l-68 114q-4 6 2 9t32 3
q18 0 24 -2.5t11 -9.5l46 -78q38 20 88 20q46 0 82 -19l45 77q5 8 11.5 10t26.5 2q24 -1 29.5 -4t1.5 -8l-68 -114q44 -55 44 -144zM405 363q0 27 -5 54t-18 48.5t-35 35.5t-56 14q-24 0 -46.5 -9t-39 -28.5t-26.5 -50t-10 -72.5q0 -27 5 -54t18 -48.5t35 -35.5t56 -14
q24 0 46.5 9t39 28.5t26.5 50t10 72.5z" />
    <glyph glyph-name="yen" unicode="&#xa5;" 
d="M204 381l-152 327q-2 5 2.5 8.5t26.5 3.5h8q21 0 28 -2.5t10 -8.5l167 -369l165 371q3 6 9 7.5t25 1.5h9q17 0 22 -3t2 -9l-156 -327h98q5 0 6.5 -4.5t1.5 -18.5v-3q0 -25 -8 -25h-122l-24 -52v-39h146q5 0 6.5 -4.5t1.5 -18.5v-3q0 -25 -8 -25h-146v-179q0 -9 -32 -9h-8
q-29 0 -29 9v179h-146q-8 0 -8 25v3q0 14 1.5 18.5t6.5 4.5h146v39l-25 52h-121q-8 0 -8 25v3q0 14 1.5 18.5t6.5 4.5h97z" />
    <glyph glyph-name="brokenbar" unicode="&#xa6;" horiz-adv-x="276" 
d="M168 375q0 -5 -5 -7.5t-22 -2.5h-8q-16 0 -21 2.5t-5 7.5v382q0 5 5 7.5t21 2.5h8q17 0 22 -2.5t5 -7.5v-382zM168 -212q0 -5 -5 -7.5t-22 -2.5h-8q-16 0 -21 2.5t-5 7.5v382q0 5 5 7.5t21 2.5h8q17 0 22 -2.5t5 -7.5v-382z" />
    <glyph glyph-name="section" unicode="&#xa7;" horiz-adv-x="501" 
d="M397 641q-29 17 -60 27t-67 10q-56 0 -90 -23.5t-34 -65.5q0 -33 23 -51.5t57.5 -31t74.5 -23.5t74.5 -28.5t57.5 -46t23 -76.5q0 -44 -20 -79.5t-54 -58.5q16 -17 25 -38.5t9 -50.5q0 -31 -13 -57.5t-37 -46t-58 -30.5t-77 -11q-88 0 -154 45q-6 5 4 22l4 7
q8 13 11 14.5t7 -0.5q29 -17 60 -27t67 -10q56 0 90 23.5t34 65.5q0 33 -23 51.5t-57.5 31t-74.5 23.5t-74.5 28.5t-57.5 46t-23 76.5q0 44 19.5 79.5t53.5 58.5q-15 16 -24 37.5t-9 51.5q0 31 13 57.5t37 46t58 30.5t77 11q88 0 154 -45q6 -5 -4 -22l-4 -7
q-8 -13 -11 -14.5t-7 0.5zM397 325q0 24 -11.5 40.5t-31 28t-44.5 19.5l-52 16l-54 17q-27 8 -50 21q-51 -43 -51 -103q0 -36 25 -56t61.5 -32.5t78.5 -24t77 -30.5q52 43 52 104z" />
    <glyph glyph-name="dieresis" unicode="&#xa8;" horiz-adv-x="354" 
d="M28 654q0 20 13.5 34t33.5 14t34 -14t14 -34t-14 -33.5t-34 -13.5t-33.5 13.5t-13.5 33.5zM230 654q0 20 13.5 34t33.5 14t34 -14t14 -34t-14 -33.5t-34 -13.5t-33.5 13.5t-13.5 33.5z" />
    <glyph glyph-name="copyright" unicode="&#xa9;" horiz-adv-x="809" 
d="M521 551q3 -2 3.5 -5.5t-3.5 -11.5l-5 -11q-5 -12 -12 -9q-40 16 -74 16q-35 0 -60.5 -13t-42 -35.5t-24 -52t-7.5 -63.5q0 -33 7 -62t23 -50.5t41.5 -34.5t61.5 -13q39 0 75 16q4 2 6 0.5t6 -9.5l5 -11q4 -8 3.5 -11.5t-3.5 -5.5q-20 -11 -47 -17.5t-56 -6.5
q-43 0 -76 16t-55.5 44t-34 64.5t-11.5 78.5q0 41 11 79t34.5 67t59 46.5t84.5 17.5q25 0 49 -6t42 -17zM406 731q76 0 141.5 -28.5t114 -78.5t76 -117.5t27.5 -145.5t-28 -145.5t-76.5 -117.5t-114.5 -79t-141 -29q-76 0 -142 29t-115 79t-77 117.5t-28 145.5t28 145.5
t77 117.5t115 78.5t143 28.5zM406 689q-65 0 -122 -25.5t-99 -70t-66 -104t-24 -128.5t23.5 -129t65 -104.5t98 -70t122.5 -25.5t122.5 25t98.5 69.5t66 104.5t24 130q0 69 -23.5 128.5t-65 104t-98 70t-122.5 25.5z" />
    <glyph glyph-name="ordfeminine" unicode="&#xaa;" horiz-adv-x="433" 
d="M206 739q30 0 56.5 -11.5t43.5 -32.5l5 32q1 4 5.5 5.5t22.5 1.5q14 0 19 -1t5 -5q0 -6 -1 -22v-38l-2 -41v-36v-56v-36l2 -41q0 -20 0.5 -37t0.5 -23q0 -4 -5 -5t-19 -1q-18 0 -22.5 1.5t-5.5 5.5l-6 45q-16 -26 -43 -41.5t-65 -15.5q-33 0 -58.5 11t-42.5 31
q-20 23 -31 56t-11 71q0 36 9.5 69t28.5 58.5t47.5 40.5t66.5 15zM303 648q-15 21 -37 34.5t-51 13.5q-51 0 -76.5 -36.5t-25.5 -99.5q0 -58 23.5 -93.5t74.5 -35.5q22 0 38.5 8.5t27.5 22.5q26 32 26 102v84z" />
    <glyph glyph-name="guillemotleft" unicode="&#xab;" horiz-adv-x="515" 
d="M72 307q0 8 1.5 12t3.5 7l134 194q4 5 8 5t14 -5l7 -4q11 -6 12 -10t-1 -8l-117 -194l117 -193q2 -4 1 -8t-12 -10l-7 -4q-10 -5 -14 -5t-8 5l-134 194q-2 3 -3.5 7t-1.5 12v5zM278 307q0 8 1.5 12t3.5 7l134 194q4 5 8 5t14 -5l7 -4q11 -6 12 -10t-1 -8l-117 -194
l117 -193q2 -4 1 -8t-12 -10l-7 -4q-10 -5 -14 -5t-8 5l-134 194q-2 3 -3.5 7t-1.5 12v5z" />
    <glyph glyph-name="logicalnot" unicode="&#xac;" 
d="M41 466q0 13 1.5 17.5t6.5 4.5h484v-241q0 -8 -22 -8h-3q-13 0 -17.5 1.5t-4.5 6.5v194h-437q-8 0 -8 22v3z" />
    <glyph glyph-name="uni00AD" unicode="&#xad;" horiz-adv-x="382" 
d="M322 330q5 0 6.5 -4.5t1.5 -18.5v-3q0 -25 -8 -25h-262q-8 0 -8 25v3q0 14 1.5 18.5t6.5 4.5h262z" />
    <glyph glyph-name="registered" unicode="&#xae;" horiz-adv-x="809" 
d="M406 731q76 0 141.5 -28.5t114 -78.5t76 -117.5t27.5 -145.5t-28 -145.5t-76.5 -117.5t-114.5 -79t-141 -29q-76 0 -142 29t-115 79t-77 117.5t-28 145.5t28 145.5t77 117.5t115 78.5t143 28.5zM406 689q-65 0 -122 -25.5t-99 -70t-66 -104t-24 -128.5t23.5 -129
t65 -104.5t98 -70t122.5 -25.5t122.5 25t98.5 69.5t66 104.5t24 130q0 69 -23.5 128.5t-65 104t-98 70t-122.5 25.5zM331 329v-152q0 -7 -25 -7h-6q-23 0 -23 7v387h116q42 0 75.5 -9t54.5 -29q14 -14 22.5 -33t8.5 -45q0 -27 -10 -47.5t-27 -35.5q-20 -18 -54 -28
q23 -45 44.5 -82t49.5 -75q2 -3 -1 -6.5t-20 -3.5h-7q-15 0 -20.5 1.5t-10.5 7.5q-21 26 -44 66.5t-44 83.5h-79zM331 369h56q60 0 87 24q23 21 23 55q0 37 -28 56q-26 17 -87 17h-51v-152z" />
    <glyph glyph-name="macron" unicode="&#xaf;" horiz-adv-x="354" 
d="M308 684q5 0 6.5 -4.5t1.5 -18.5v-3q0 -25 -8 -25h-262q-8 0 -8 25v3q0 14 1.5 18.5t6.5 4.5h262z" />
    <glyph glyph-name="degree" unicode="&#xb0;" horiz-adv-x="357" 
d="M181 691q-43 0 -68.5 -25.5t-25.5 -73.5q0 -95 89 -95q43 0 68 25.5t25 73.5q0 46 -22 70.5t-66 24.5zM41 590q0 65 38 102.5t103 37.5q60 0 97 -32.5t37 -100.5q0 -64 -38 -102t-103 -38q-60 0 -97 33.5t-37 99.5z" />
    <glyph glyph-name="plusminus" unicode="&#xb1;" 
d="M263 421h-214q-8 0 -8 22v3q0 13 1.5 17.5t6.5 4.5h214v214q0 8 23 8h1q23 0 23 -8v-214h215q5 0 6.5 -4.5t1.5 -17.5v-3q0 -22 -8 -22h-215v-215q0 -8 -23 -8h-1q-23 0 -23 8v215zM49 0q-8 0 -8 22v3q0 13 1.5 17.5t6.5 4.5h476q5 0 6.5 -4.5t1.5 -17.5v-3q0 -22 -8 -22
h-476z" />
    <glyph glyph-name="uni00B2" unicode="&#xb2;" horiz-adv-x="404" 
d="M76 728q-5 9 -5 12.5t4 5.5q20 13 50 22t65 9q57 0 91 -27.5t34 -79.5q0 -21 -4.5 -39.5t-15 -37.5t-27.5 -40t-42 -47l-83 -87h173q5 0 6.5 -3.5t1.5 -16.5v-4q0 -13 -1.5 -16t-6.5 -3h-234q-7 0 -7 16v5q0 9 2 13t6 8l79 85q28 30 47 53t30.5 41.5t16.5 35t5 33.5
q0 38 -21.5 53t-56.5 15q-23 0 -45.5 -6.5t-41.5 -16.5q-5 -3 -8 -1t-8 11z" />
    <glyph glyph-name="uni00B3" unicode="&#xb3;" horiz-adv-x="404" 
d="M83 733q-4 9 -4 12t4 5q23 12 50 19.5t62 7.5q58 0 90.5 -25t32.5 -72q0 -77 -71 -97q36 -7 58 -31t22 -61q0 -60 -39 -91t-107 -31q-60 0 -106 19q-5 2 -5 5t4 13l2 5q5 11 7 13t7 0q17 -7 38.5 -11t48.5 -4q46 0 69.5 20.5t23.5 57.5q0 42 -28 58.5t-82 16.5h-28
q-4 0 -5.5 4t-1.5 15v4q0 12 1.5 15.5t5.5 3.5h31q54 0 77.5 18.5t23.5 53.5q0 32 -19.5 46.5t-54.5 14.5q-26 0 -47.5 -6t-41.5 -16q-5 -2 -8 0t-7 11z" />
    <glyph glyph-name="acute" unicode="&#xb4;" horiz-adv-x="354" 
d="M224 721q17 0 21 -2.5t0 -7.5l-88 -119q-3 -4 -8 -5t-19 -1h-4q-24 0 -20 7l67 118q3 5 9.5 7.5t26.5 2.5h15z" />
    <glyph glyph-name="mu" unicode="&#xb5;" horiz-adv-x="589" 
d="M435 72q-26 -38 -64 -60t-100 -22q-42 0 -76.5 15t-52.5 40v-86q0 -98 9 -180q1 -7 -5.5 -9.5t-24.5 -2.5h-6q-20 0 -26 2t-7 8q-3 42 -4 83.5t-1 86.5v571q0 5 5 7.5t23 2.5h8q18 0 23.5 -2.5t5.5 -7.5v-263q0 -61 5 -99.5t24 -61.5q17 -19 43 -30t61 -11q38 0 67.5 10
t51.5 33q16 17 24 37t11 54q3 43 3 135v196q0 5 5 7.5t23 2.5h8q18 0 23.5 -2.5t5.5 -7.5v-399q0 -23 2 -36.5t7 -21t13 -9.5t21 -2q5 0 6 -3t1 -18v-4q0 -14 -0.5 -17.5t-5.5 -5.5t-13.5 -3t-20.5 -1q-35 0 -53 19.5t-19 54.5z" />
    <glyph glyph-name="mu" unicode="&#x3bc;" horiz-adv-x="589" 
d="M435 72q-26 -38 -64 -60t-100 -22q-42 0 -76.5 15t-52.5 40v-86q0 -98 9 -180q1 -7 -5.5 -9.5t-24.5 -2.5h-6q-20 0 -26 2t-7 8q-3 42 -4 83.5t-1 86.5v571q0 5 5 7.5t23 2.5h8q18 0 23.5 -2.5t5.5 -7.5v-263q0 -61 5 -99.5t24 -61.5q17 -19 43 -30t61 -11q38 0 67.5 10
t51.5 33q16 17 24 37t11 54q3 43 3 135v196q0 5 5 7.5t23 2.5h8q18 0 23.5 -2.5t5.5 -7.5v-399q0 -23 2 -36.5t7 -21t13 -9.5t21 -2q5 0 6 -3t1 -18v-4q0 -14 -0.5 -17.5t-5.5 -5.5t-13.5 -3t-20.5 -1q-35 0 -53 19.5t-19 54.5z" />
    <glyph glyph-name="paragraph" unicode="&#xb6;" horiz-adv-x="617" 
d="M498 664v-792q0 -9 -31 -9h-6q-16 0 -22 2t-6 7v793h-118v-793q0 -9 -31 -9h-6q-16 0 -22 2t-6 7v441q-48 2 -86.5 17t-65.5 41.5t-41.5 62t-14.5 78.5q0 95 58.5 151.5t171.5 56.5h288q5 0 6.5 -4.5t1.5 -18.5v-8q0 -25 -8 -25h-62z" />
    <glyph glyph-name="periodcentered" unicode="&#xb7;" horiz-adv-x="241" 
d="M120 410q23 0 40 -16.5t17 -41.5q0 -26 -17 -42t-40 -16t-39.5 16t-16.5 42q0 25 16.5 41.5t39.5 16.5z" />
    <glyph glyph-name="cedilla" unicode="&#xb8;" horiz-adv-x="354" 
d="M113 -7q1 4 4.5 5t14.5 1h12q11 0 14.5 -1.5t2.5 -4.5l-8 -60q7 1 13.5 1.5t13.5 0.5q40 0 65 -21.5t25 -56.5q0 -18 -6.5 -34t-20 -28.5t-34 -20t-49.5 -7.5q-21 0 -41.5 3.5t-30.5 8.5q-5 2 -2 18l1 5q2 10 4 12.5t6 1.5q14 -3 28 -5t27 -2q29 0 45.5 10.5t16.5 33.5
t-16.5 33t-44.5 10q-11 0 -26.5 -1.5t-26.5 -3.5z" />
    <glyph glyph-name="uni00B9" unicode="&#xb9;" horiz-adv-x="404" 
d="M301 376q-182 0 -183.5 3t-1.5 14v3q0 11 1 14.5t5 3.5h64v304l-89 -51q-4 -2 -8 0t-9 12l-2 4q-5 11 -5.5 14.5t4.5 6.5l96 56q8 5 16 7.5t19 2.5h18q15 0 15 -7v-349h60q4 0 5 -3.5t1 -14.5v-3q0 -11 -1.5 -14t-4.5 -3z" />
    <glyph glyph-name="ordmasculine" unicode="&#xba;" horiz-adv-x="433" 
d="M213 435q48 0 77.5 31.5t29.5 98.5q0 23 -4 45.5t-15.5 40.5t-31 29.5t-49.5 11.5q-48 0 -77.5 -32t-29.5 -99q0 -23 4 -45.5t15.5 -40.5t31 -29t49.5 -11zM210 387q-75 0 -115.5 46t-40.5 124q0 91 46 136.5t123 45.5q75 0 115.5 -46t40.5 -124q0 -91 -46 -136.5
t-123 -45.5z" />
    <glyph glyph-name="guillemotright" unicode="&#xbb;" horiz-adv-x="515" 
d="M237 302q0 -8 -1.5 -12t-3.5 -7l-134 -194q-4 -5 -8 -5t-14 5l-7 4q-11 6 -12 10t1 8l117 193l-117 194q-2 4 -1 8t12 10l7 4q10 5 14 5t8 -5l134 -194q2 -3 3.5 -7t1.5 -12v-5zM443 302q0 -8 -1.5 -12t-3.5 -7l-134 -194q-4 -5 -8 -5t-14 5l-7 4q-11 6 -12 10t1 8
l117 193l-117 194q-2 4 -1 8t12 10l7 4q10 5 14 5t8 -5l134 -194q2 -3 3.5 -7t1.5 -12v-5z" />
    <glyph glyph-name="onequarter" unicode="&#xbc;" horiz-adv-x="904" 
d="M776 135h38q5 0 6.5 -2.5t1.5 -15.5v-5q0 -19 -8 -19h-38v-86q0 -5 -5.5 -6t-19.5 -1h-3q-14 0 -19.5 1t-5.5 6v86h-183q-4 0 -5.5 3.5t-1.5 17.5v3q0 13 3 22t11 23l109 216q4 7 8 8.5t19 1.5h10q14 0 17 -1.5t-1 -8.5l-124 -243h138v83q0 5 5.5 6t19.5 1h3
q14 0 19.5 -1t5.5 -6v-83zM609 726q3 6 7.5 8.5t21.5 2.5h6q15 0 19 -2.5t0 -10.5l-345 -731q-3 -6 -8.5 -8.5t-20.5 -2.5h-6q-15 0 -18.5 2.5t0.5 10.5zM311 326q-182 0 -183.5 3t-1.5 14v3q0 11 1 14.5t5 3.5h64v304l-89 -51q-4 -2 -8 0t-9 12l-2 4q-5 11 -5.5 14.5
t4.5 6.5l96 56q8 5 16 7.5t19 2.5h18q15 0 15 -7v-349h60q4 0 5 -3.5t1 -14.5v-3q0 -11 -1.5 -14t-4.5 -3z" />
    <glyph glyph-name="onehalf" unicode="&#xbd;" horiz-adv-x="904" 
d="M587 726q3 6 7.5 8.5t21.5 2.5h6q15 0 19 -2.5t0 -10.5l-345 -731q-3 -6 -8.5 -8.5t-20.5 -2.5h-6q-15 0 -18.5 2.5t0.5 10.5zM298 336q-182 0 -183.5 3t-1.5 14v3q0 11 1 14.5t5 3.5h64v304l-89 -51q-4 -2 -8 0t-9 12l-2 4q-5 11 -5.5 14.5t4.5 6.5l96 56q8 5 16 7.5
t19 2.5h18q15 0 15 -7v-349h60q4 0 5 -3.5t1 -14.5v-3q0 -11 -1.5 -14t-4.5 -3zM562 353q-5 9 -5 12.5t4 5.5q20 13 50 22t65 9q57 0 91 -27.5t34 -79.5q0 -21 -4.5 -39.5t-15 -37.5t-27.5 -40t-42 -47l-83 -87h173q5 0 6.5 -3.5t1.5 -16.5v-4q0 -13 -1.5 -16t-6.5 -3h-234
q-7 0 -7 16v5q0 9 2 13t6 8l79 85q28 30 47 53t30.5 41.5t16.5 35t5 33.5q0 38 -21.5 53t-56.5 15q-23 0 -45.5 -6.5t-41.5 -16.5q-5 -3 -8 -1t-8 11z" />
    <glyph glyph-name="threequarters" unicode="&#xbe;" horiz-adv-x="904" 
d="M784 135h38q5 0 6.5 -2.5t1.5 -15.5v-5q0 -19 -8 -19h-38v-86q0 -5 -5.5 -6t-19.5 -1h-3q-14 0 -19.5 1t-5.5 6v86h-183q-4 0 -5.5 3.5t-1.5 17.5v3q0 13 3 22t11 23l109 216q4 7 8 8.5t19 1.5h10q14 0 17 -1.5t-1 -8.5l-124 -243h138v83q0 5 5.5 6t19.5 1h3
q14 0 19.5 -1t5.5 -6v-83zM603 726q3 6 7.5 8.5t21.5 2.5h6q15 0 19 -2.5t0 -10.5l-345 -731q-3 -6 -8.5 -8.5t-20.5 -2.5h-6q-15 0 -18.5 2.5t0.5 10.5zM91 692q-4 9 -4 12t4 5q23 12 50 19.5t62 7.5q58 0 90.5 -25t32.5 -72q0 -77 -71 -97q36 -7 58 -31t22 -61
q0 -60 -39 -91t-107 -31q-60 0 -106 19q-5 2 -5 5t4 13l2 5q5 11 7 13t7 0q17 -7 38.5 -11t48.5 -4q46 0 69.5 20.5t23.5 57.5q0 42 -28 58.5t-82 16.5h-28q-4 0 -5.5 4t-1.5 15v4q0 12 1.5 15.5t5.5 3.5h31q54 0 77.5 18.5t23.5 53.5q0 32 -19.5 46.5t-54.5 14.5
q-26 0 -47.5 -6t-41.5 -16q-5 -2 -8 0t-7 11z" />
    <glyph glyph-name="questiondown" unicode="&#xbf;" horiz-adv-x="419" 
d="M262.01 332.012q16.999 0 22.998 -1.5q6 -1.5 6 -6.49902v-65.9961q0 -28.998 -6 -50.9971q-5.99902 -21.999 -19.998 -40.4971q-14 -18.499 -35.998 -36.498q-21.999 -17.999 -53.9971 -38.998q-21.998 -14.999 -37.9971 -27.998t-25.499 -26.498
q-9.49902 -13.499 -13.999 -28.499q-4.5 -14.999 -4.5 -33.9971q0 -24.999 7.5 -44.998q7.49902 -19.998 21.499 -34.9971q34.9971 -36.998 102.993 -36.998q34.998 0 67.9961 8.99902q32.998 9 63.9961 22.999q6 3 9.99902 -0.5q4 -3.5 9 -14.499l4.99902 -10
q6 -11.999 6 -16.499q0 -4.49902 -6 -9.49902q-11.999 -6.99902 -29.998 -14.499t-39.4971 -12.999q-21.499 -5.5 -44.4971 -9q-22.999 -3.49902 -44.998 -3.49902q-50.9961 0 -88.4941 13.499t-63.4961 39.4971q-23.999 22.999 -36.998 53.9971t-12.999 68.9961
q0 31.998 8.99902 55.9961q9 23.999 23.499 42.4971q14.499 18.499 32.998 32.498q18.499 14 37.4971 26.999q25.999 16.999 44.998 30.998q18.998 13.999 30.998 28.498q11.999 14.499 17.999 31.498q5.99902 16.999 5.99902 40.9971v59.9971q0 4.99902 6 6.49902
t22.998 1.5h10zM308.007 485.003q0 -22.999 -14.999 -38.498t-36.998 -15.499q-22.998 0 -38.4971 15.499t-15.499 38.498q0 22.998 15.499 37.9971t38.4971 14.999q21.999 0 36.998 -14.999t14.999 -37.9971z" />
    <glyph glyph-name="Agrave" unicode="&#xc0;" horiz-adv-x="626" 
d="M463 194h-308l-61 -184q-2 -6 -10 -8t-25 -2h-5q-21 0 -26 3q-4 2 -4 5q0 2 1 3l242 696q3 8 11.5 10.5t31.5 2.5h2q23 0 31.5 -2.5t11.5 -10.5l246 -696q1 -1 1 -3q0 -3 -4 -5q-5 -3 -27 -3h-10q-20 0 -27.5 2t-9.5 8zM173 250h272l-135 407zM280 913q20 0 26.5 -2.5
t9.5 -7.5l67 -118q4 -7 -20 -7h-4q-14 0 -19 1t-8 5l-88 119q-4 5 0 7.5t21 2.5h15z" />
    <glyph glyph-name="Aacute" unicode="&#xc1;" horiz-adv-x="626" 
d="M463 194h-308l-61 -184q-2 -6 -10 -8t-25 -2h-5q-21 0 -26 3q-4 2 -4 5q0 2 1 3l242 696q3 8 11.5 10.5t31.5 2.5h2q23 0 31.5 -2.5t11.5 -10.5l246 -696q1 -1 1 -3q0 -3 -4 -5q-5 -3 -27 -3h-10q-20 0 -27.5 2t-9.5 8zM173 250h272l-135 407zM360 913q17 0 21 -2.5
t0 -7.5l-88 -119q-3 -4 -8 -5t-19 -1h-4q-24 0 -20 7l67 118q3 5 9.5 7.5t26.5 2.5h15z" />
    <glyph glyph-name="Acircumflex" unicode="&#xc2;" horiz-adv-x="626" 
d="M463 194h-308l-61 -184q-2 -6 -10 -8t-25 -2h-5q-21 0 -26 3q-4 2 -4 5q0 2 1 3l242 696q3 8 11.5 10.5t31.5 2.5h2q23 0 31.5 -2.5t11.5 -10.5l246 -696q1 -1 1 -3q0 -3 -4 -5q-5 -3 -27 -3h-10q-20 0 -27.5 2t-9.5 8zM173 250h272l-135 407zM326 921q15 0 22 -2.5
t12 -7.5l94 -100q5 -5 -4 -16l-5 -6q-10 -11 -16 -6l-116 97l-116 -97q-6 -5 -16 6l-5 6q-9 11 -4 16l94 100q5 5 12 7.5t22 2.5h26z" />
    <glyph glyph-name="Atilde" unicode="&#xc3;" horiz-adv-x="626" 
d="M463 194h-308l-61 -184q-2 -6 -10 -8t-25 -2h-5q-21 0 -26 3q-4 2 -4 5q0 2 1 3l242 696q3 8 11.5 10.5t31.5 2.5h2q23 0 31.5 -2.5t11.5 -10.5l246 -696q1 -1 1 -3q0 -3 -4 -5q-5 -3 -27 -3h-10q-20 0 -27.5 2t-9.5 8zM173 250h272l-135 407zM463 857q-14 -17 -38 -30.5
t-50 -13.5q-21 0 -37 6t-30.5 13t-29 13t-31.5 6q-16 0 -28.5 -7t-29.5 -23q-6 -5 -16 8l-8 10q-7 10 -2 16q14 17 38 30.5t50 13.5q21 0 37 -6t30.5 -13t29 -13t31.5 -6q16 0 28.5 7t29.5 23q3 2 6.5 1t9.5 -9l8 -10q7 -10 2 -16z" />
    <glyph glyph-name="Adieresis" unicode="&#xc4;" horiz-adv-x="626" 
d="M463 194h-308l-61 -184q-2 -6 -10 -8t-25 -2h-5q-21 0 -26 3q-4 2 -4 5q0 2 1 3l242 696q3 8 11.5 10.5t31.5 2.5h2q23 0 31.5 -2.5t11.5 -10.5l246 -696q1 -1 1 -3q0 -3 -4 -5q-5 -3 -27 -3h-10q-20 0 -27.5 2t-9.5 8zM173 250h272l-135 407zM162 846q0 20 13.5 34
t33.5 14t34 -14t14 -34t-14 -33.5t-34 -13.5t-33.5 13.5t-13.5 33.5zM364 846q0 20 13.5 34t33.5 14t34 -14t14 -34t-14 -33.5t-34 -13.5t-33.5 13.5t-13.5 33.5z" />
    <glyph glyph-name="Aring" unicode="&#xc5;" horiz-adv-x="626" 
d="M219 782q0 19 7.5 35.5t20.5 28.5t30 19t36 7t36 -7t30 -19t20.5 -28.5t7.5 -35.5q0 -27 -14 -48t-37 -32l245 -691q2 -5 -3 -8t-27 -3h-10q-20 0 -27.5 2t-9.5 8l-61 184h-308l-61 -184q-2 -6 -10 -8t-25 -2h-5q-21 0 -26 3t-3 8l241 693q-21 11 -34 31.5t-13 46.5z
M173 250h272l-135 407zM262 782q0 -23 15 -37t36 -14q23 0 36 15t13 36t-13 36t-36 15q-21 0 -36 -14t-15 -37z" />
    <glyph glyph-name="AE" unicode="&#xc6;" horiz-adv-x="895" 
d="M410 709q4 6 8.5 8.5t24.5 2.5h386q5 0 7 -5t2 -21v-4q0 -17 -2 -22t-7 -5h-317v-270h269q5 0 7 -5t2 -21v-4q0 -17 -2 -22t-7 -5h-269v-279h321q5 0 7 -5t2 -21v-4q0 -17 -2 -22t-7 -5h-390v199h-255l-107 -189q-3 -5 -11 -7.5t-25 -2.5h-6q-23 0 -27.5 3t-1.5 8z
M443 256v392l-223 -392h223z" />
    <glyph glyph-name="Ccedilla" unicode="&#xc7;" horiz-adv-x="564" 
d="M301 -8q-61 6 -108 34.5t-79.5 75t-49 109.5t-16.5 139q0 95 23 166.5t64 119t96 71t120 23.5q45 0 89 -12t79 -34q5 -3 4.5 -7.5t-6.5 -16.5l-5 -11q-6 -12 -9.5 -14t-8.5 0q-39 18 -71.5 27t-67.5 9q-59 0 -103.5 -22.5t-73.5 -63.5t-43.5 -99t-14.5 -130
q0 -146 57.5 -226.5t175.5 -80.5q37 0 73.5 8.5t68.5 24.5q10 5 18 -15l4 -10q5 -12 5 -17.5t-6 -8.5q-36 -20 -78.5 -29.5t-89.5 -11.5l-7 -57q7 1 13.5 1.5t13.5 0.5q40 0 65 -21.5t25 -56.5q0 -18 -6.5 -34t-20 -28.5t-34 -20t-49.5 -7.5q-21 0 -41.5 3.5t-30.5 8.5
q-5 2 -2 18l1 5q2 10 4 12.5t6 1.5q14 -3 28 -5t27 -2q29 0 45.5 10.5t16.5 33.5t-16.5 33t-44.5 10q-11 0 -26.5 -1.5t-26.5 -3.5z" />
    <glyph glyph-name="Egrave" unicode="&#xc8;" horiz-adv-x="534" 
d="M82 0v720h386q5 0 7 -5t2 -21v-4q0 -17 -2 -22t-7 -5h-317v-270h269q5 0 7 -5t2 -21v-4q0 -17 -2 -22t-7 -5h-269v-279h321q5 0 7 -5t2 -21v-4q0 -17 -2 -22t-7 -5h-390zM234 913q20 0 26.5 -2.5t9.5 -7.5l67 -118q4 -7 -20 -7h-4q-14 0 -19 1t-8 5l-88 119q-4 5 0 7.5
t21 2.5h15z" />
    <glyph glyph-name="Eacute" unicode="&#xc9;" horiz-adv-x="534" 
d="M82 0v720h386q5 0 7 -5t2 -21v-4q0 -17 -2 -22t-7 -5h-317v-270h269q5 0 7 -5t2 -21v-4q0 -17 -2 -22t-7 -5h-269v-279h321q5 0 7 -5t2 -21v-4q0 -17 -2 -22t-7 -5h-390zM354 913q17 0 21 -2.5t0 -7.5l-88 -119q-3 -4 -8 -5t-19 -1h-4q-24 0 -20 7l67 118q3 5 9.5 7.5
t26.5 2.5h15z" />
    <glyph glyph-name="Ecircumflex" unicode="&#xca;" horiz-adv-x="534" 
d="M82 0v720h386q5 0 7 -5t2 -21v-4q0 -17 -2 -22t-7 -5h-317v-270h269q5 0 7 -5t2 -21v-4q0 -17 -2 -22t-7 -5h-269v-279h321q5 0 7 -5t2 -21v-4q0 -17 -2 -22t-7 -5h-390zM290 921q15 0 22 -2.5t12 -7.5l94 -100q5 -5 -4 -16l-5 -6q-10 -11 -16 -6l-116 97l-116 -97
q-6 -5 -16 6l-5 6q-9 11 -4 16l94 100q5 5 12 7.5t22 2.5h26z" />
    <glyph glyph-name="Edieresis" unicode="&#xcb;" horiz-adv-x="534" 
d="M82 0v720h386q5 0 7 -5t2 -21v-4q0 -17 -2 -22t-7 -5h-317v-270h269q5 0 7 -5t2 -21v-4q0 -17 -2 -22t-7 -5h-269v-279h321q5 0 7 -5t2 -21v-4q0 -17 -2 -22t-7 -5h-390zM140 846q0 20 13.5 34t33.5 14t34 -14t14 -34t-14 -33.5t-34 -13.5t-33.5 13.5t-13.5 33.5z
M342 846q0 20 13.5 34t33.5 14t34 -14t14 -34t-14 -33.5t-34 -13.5t-33.5 13.5t-13.5 33.5z" />
    <glyph glyph-name="Igrave" unicode="&#xcc;" horiz-adv-x="365" 
d="M73 0q-5 0 -7 3.5t-2 17.5v4q0 15 2 18.5t7 3.5h75v626h-75q-5 0 -7 3.5t-2 17.5v4q0 15 2 18.5t7 3.5h219q5 0 7 -3.5t2 -18.5v-4q0 -14 -2 -17.5t-7 -3.5h-75v-626h75q5 0 7 -3.5t2 -18.5v-4q0 -14 -2 -17.5t-7 -3.5h-219zM150 913q20 0 26.5 -2.5t9.5 -7.5l67 -118
q4 -7 -20 -7h-4q-14 0 -19 1t-8 5l-88 119q-4 5 0 7.5t21 2.5h15z" />
    <glyph glyph-name="Iacute" unicode="&#xcd;" horiz-adv-x="365" 
d="M73 0q-5 0 -7 3.5t-2 17.5v4q0 15 2 18.5t7 3.5h75v626h-75q-5 0 -7 3.5t-2 17.5v4q0 15 2 18.5t7 3.5h219q5 0 7 -3.5t2 -18.5v-4q0 -14 -2 -17.5t-7 -3.5h-75v-626h75q5 0 7 -3.5t2 -18.5v-4q0 -14 -2 -17.5t-7 -3.5h-219zM230 913q17 0 21 -2.5t0 -7.5l-88 -119
q-3 -4 -8 -5t-19 -1h-4q-24 0 -20 7l67 118q3 5 9.5 7.5t26.5 2.5h15z" />
    <glyph glyph-name="Icircumflex" unicode="&#xce;" horiz-adv-x="365" 
d="M73 0q-5 0 -7 3.5t-2 17.5v4q0 15 2 18.5t7 3.5h75v626h-75q-5 0 -7 3.5t-2 17.5v4q0 15 2 18.5t7 3.5h219q5 0 7 -3.5t2 -18.5v-4q0 -14 -2 -17.5t-7 -3.5h-75v-626h75q5 0 7 -3.5t2 -18.5v-4q0 -14 -2 -17.5t-7 -3.5h-219zM195 921q15 0 22 -2.5t12 -7.5l94 -100
q5 -5 -4 -16l-5 -6q-10 -11 -16 -6l-116 97l-116 -97q-6 -5 -16 6l-5 6q-9 11 -4 16l94 100q5 5 12 7.5t22 2.5h26z" />
    <glyph glyph-name="Idieresis" unicode="&#xcf;" horiz-adv-x="365" 
d="M73 0q-5 0 -7 3.5t-2 17.5v4q0 15 2 18.5t7 3.5h75v626h-75q-5 0 -7 3.5t-2 17.5v4q0 15 2 18.5t7 3.5h219q5 0 7 -3.5t2 -18.5v-4q0 -14 -2 -17.5t-7 -3.5h-75v-626h75q5 0 7 -3.5t2 -18.5v-4q0 -14 -2 -17.5t-7 -3.5h-219zM34 846q0 20 13.5 34t33.5 14t34 -14t14 -34
t-14 -33.5t-34 -13.5t-33.5 13.5t-13.5 33.5zM236 846q0 20 13.5 34t33.5 14t34 -14t14 -34t-14 -33.5t-34 -13.5t-33.5 13.5t-13.5 33.5z" />
    <glyph glyph-name="Eth" unicode="&#xd0;" horiz-adv-x="652" 
d="M250 720q98 0 161.5 -23.5t108.5 -70.5q85 -90 85 -263q0 -182 -93 -275q-44 -44 -107 -66t-154 -22h-163v339h-58q-8 0 -8 25v3q0 14 1.5 18.5t6.5 4.5h58v330h162zM157 56h88q76 0 127 17.5t85 50.5q40 39 58 99t18 138q0 77 -18.5 135.5t-56.5 97.5q-17 18 -37.5 31
t-46 21.5t-58 13t-73.5 4.5h-86v-274h169q5 0 6.5 -4.5t1.5 -18.5v-3q0 -25 -8 -25h-169v-283z" />
    <glyph glyph-name="Ntilde" unicode="&#xd1;" horiz-adv-x="677" 
d="M142 625v-616q0 -5 -5.5 -7t-22.5 -2h-7q-17 0 -22 2t-5 7v702q0 5 6 7t23 2h7q25 0 33 -2t12 -8l374 -615v616q0 5 5 7t22 2h7q17 0 22.5 -2t5.5 -7v-702q0 -5 -6 -7t-23 -2h-7q-25 0 -33 2t-12 8zM488 857q-14 -17 -38 -30.5t-50 -13.5q-21 0 -37 6t-30.5 13t-29 13
t-31.5 6q-16 0 -28.5 -7t-29.5 -23q-6 -5 -16 8l-8 10q-7 10 -2 16q14 17 38 30.5t50 13.5q21 0 37 -6t30.5 -13t29 -13t31.5 -6q16 0 28.5 7t29.5 23q3 2 6.5 1t9.5 -9l8 -10q7 -10 2 -16z" />
    <glyph glyph-name="Ograve" unicode="&#xd2;" horiz-adv-x="693" 
d="M353 671q-54 0 -97.5 -21t-73.5 -61.5t-46.5 -99.5t-16.5 -135q0 -148 58 -226.5t163 -78.5q54 0 97 21.5t73.5 62t47 100t16.5 134.5q0 148 -58 226t-163 78zM356 730q64 0 117 -22.5t91.5 -67.5t60 -112t21.5 -157q0 -88 -21.5 -158.5t-62 -120t-97.5 -76t-128 -26.5
q-64 0 -117 22.5t-91.5 67.5t-60 112.5t-21.5 157.5q0 88 21.5 158t62 119.5t97.5 76t128 26.5zM324 913q20 0 26.5 -2.5t9.5 -7.5l67 -118q4 -7 -20 -7h-4q-14 0 -19 1t-8 5l-88 119q-4 5 0 7.5t21 2.5h15z" />
    <glyph glyph-name="Oacute" unicode="&#xd3;" horiz-adv-x="693" 
d="M353 671q-54 0 -97.5 -21t-73.5 -61.5t-46.5 -99.5t-16.5 -135q0 -148 58 -226.5t163 -78.5q54 0 97 21.5t73.5 62t47 100t16.5 134.5q0 148 -58 226t-163 78zM356 730q64 0 117 -22.5t91.5 -67.5t60 -112t21.5 -157q0 -88 -21.5 -158.5t-62 -120t-97.5 -76t-128 -26.5
q-64 0 -117 22.5t-91.5 67.5t-60 112.5t-21.5 157.5q0 88 21.5 158t62 119.5t97.5 76t128 26.5zM404 913q17 0 21 -2.5t0 -7.5l-88 -119q-3 -4 -8 -5t-19 -1h-4q-24 0 -20 7l67 118q3 5 9.5 7.5t26.5 2.5h15z" />
    <glyph glyph-name="Ocircumflex" unicode="&#xd4;" horiz-adv-x="693" 
d="M353 671q-54 0 -97.5 -21t-73.5 -61.5t-46.5 -99.5t-16.5 -135q0 -148 58 -226.5t163 -78.5q54 0 97 21.5t73.5 62t47 100t16.5 134.5q0 148 -58 226t-163 78zM356 730q64 0 117 -22.5t91.5 -67.5t60 -112t21.5 -157q0 -88 -21.5 -158.5t-62 -120t-97.5 -76t-128 -26.5
q-64 0 -117 22.5t-91.5 67.5t-60 112.5t-21.5 157.5q0 88 21.5 158t62 119.5t97.5 76t128 26.5zM369 921q15 0 22 -2.5t12 -7.5l94 -100q5 -5 -4 -16l-5 -6q-10 -11 -16 -6l-116 97l-116 -97q-6 -5 -16 6l-5 6q-9 11 -4 16l94 100q5 5 12 7.5t22 2.5h26z" />
    <glyph glyph-name="Otilde" unicode="&#xd5;" horiz-adv-x="693" 
d="M353 671q-54 0 -97.5 -21t-73.5 -61.5t-46.5 -99.5t-16.5 -135q0 -148 58 -226.5t163 -78.5q54 0 97 21.5t73.5 62t47 100t16.5 134.5q0 148 -58 226t-163 78zM356 730q64 0 117 -22.5t91.5 -67.5t60 -112t21.5 -157q0 -88 -21.5 -158.5t-62 -120t-97.5 -76t-128 -26.5
q-64 0 -117 22.5t-91.5 67.5t-60 112.5t-21.5 157.5q0 88 21.5 158t62 119.5t97.5 76t128 26.5zM504 857q-14 -17 -38 -30.5t-50 -13.5q-21 0 -37 6t-30.5 13t-29 13t-31.5 6q-16 0 -28.5 -7t-29.5 -23q-6 -5 -16 8l-8 10q-7 10 -2 16q14 17 38 30.5t50 13.5q21 0 37 -6
t30.5 -13t29 -13t31.5 -6q16 0 28.5 7t29.5 23q3 2 6.5 1t9.5 -9l8 -10q7 -10 2 -16z" />
    <glyph glyph-name="Odieresis" unicode="&#xd6;" horiz-adv-x="693" 
d="M353 671q-54 0 -97.5 -21t-73.5 -61.5t-46.5 -99.5t-16.5 -135q0 -148 58 -226.5t163 -78.5q54 0 97 21.5t73.5 62t47 100t16.5 134.5q0 148 -58 226t-163 78zM356 730q64 0 117 -22.5t91.5 -67.5t60 -112t21.5 -157q0 -88 -21.5 -158.5t-62 -120t-97.5 -76t-128 -26.5
q-64 0 -117 22.5t-91.5 67.5t-60 112.5t-21.5 157.5q0 88 21.5 158t62 119.5t97.5 76t128 26.5zM208 846q0 20 13.5 34t33.5 14t34 -14t14 -34t-14 -33.5t-34 -13.5t-33.5 13.5t-13.5 33.5zM410 846q0 20 13.5 34t33.5 14t34 -14t14 -34t-14 -33.5t-34 -13.5t-33.5 13.5
t-13.5 33.5z" />
    <glyph glyph-name="multiply" unicode="&#xd7;" 
d="M286 331l-151 -152q-6 -6 -21 10l-2 2q-9 9 -11.5 13.5t1.5 8.5l151 151l-151 151q-6 6 10 22l2 2q8 8 12.5 11t8.5 -1l151 -152l152 152q4 4 8.5 1.5t13.5 -11.5l2 -2q8 -8 11 -12.5t-1 -8.5l-152 -152l152 -152q4 -4 1 -8.5t-11 -12.5l-2 -2q-16 -16 -22 -10z" />
    <glyph glyph-name="Oslash" unicode="&#xd8;" horiz-adv-x="693" 
d="M356 730q51 0 96 -15t80 -44l62 86q3 5 8.5 4.5t17.5 -9.5l12 -9q12 -9 14 -13.5t-1 -9.5l-68 -95q33 -45 51 -108.5t18 -145.5q0 -88 -21.5 -158.5t-62 -120t-97.5 -76t-128 -26.5q-104 0 -174 57l-59 -82q-3 -5 -8.5 -4.5t-17.5 9.5l-12 9q-12 9 -14 13.5t1 9.5l65 91
q-34 45 -52.5 108.5t-18.5 148.5q0 88 21.5 158t62 119.5t97.5 76t128 26.5zM353 671q-54 0 -97.5 -21t-73.5 -61.5t-46.5 -99.5t-16.5 -135q0 -63 11 -113t31 -88l333 464q-56 54 -141 54zM574 367q0 121 -41 197l-332 -464q54 -51 139 -51q54 0 97 21.5t73.5 62t47 100
t16.5 134.5z" />
    <glyph glyph-name="Ugrave" unicode="&#xd9;" horiz-adv-x="670" 
d="M595 267q0 -77 -17 -128t-52 -84q-33 -32 -81 -48.5t-109 -16.5q-125 0 -192 64q-35 33 -52 84t-17 128v445q0 9 29 9h8q32 0 32 -9v-436q0 -65 13 -108.5t39 -69.5q24 -25 59.5 -37t80.5 -12q91 0 139 49q26 26 39 69.5t13 108.5v436q0 9 29 9h7q32 0 32 -9v-444z
M302 913q20 0 26.5 -2.5t9.5 -7.5l67 -118q4 -7 -20 -7h-4q-14 0 -19 1t-8 5l-88 119q-4 5 0 7.5t21 2.5h15z" />
    <glyph glyph-name="Uacute" unicode="&#xda;" horiz-adv-x="670" 
d="M595 267q0 -77 -17 -128t-52 -84q-33 -32 -81 -48.5t-109 -16.5q-125 0 -192 64q-35 33 -52 84t-17 128v445q0 9 29 9h8q32 0 32 -9v-436q0 -65 13 -108.5t39 -69.5q24 -25 59.5 -37t80.5 -12q91 0 139 49q26 26 39 69.5t13 108.5v436q0 9 29 9h7q32 0 32 -9v-444z
M398 913q17 0 21 -2.5t0 -7.5l-88 -119q-3 -4 -8 -5t-19 -1h-4q-24 0 -20 7l67 118q3 5 9.5 7.5t26.5 2.5h15z" />
    <glyph glyph-name="Ucircumflex" unicode="&#xdb;" horiz-adv-x="670" 
d="M595 267q0 -77 -17 -128t-52 -84q-33 -32 -81 -48.5t-109 -16.5q-125 0 -192 64q-35 33 -52 84t-17 128v445q0 9 29 9h8q32 0 32 -9v-436q0 -65 13 -108.5t39 -69.5q24 -25 59.5 -37t80.5 -12q91 0 139 49q26 26 39 69.5t13 108.5v436q0 9 29 9h7q32 0 32 -9v-444z
M348 921q15 0 22 -2.5t12 -7.5l94 -100q5 -5 -4 -16l-5 -6q-10 -11 -16 -6l-116 97l-116 -97q-6 -5 -16 6l-5 6q-9 11 -4 16l94 100q5 5 12 7.5t22 2.5h26z" />
    <glyph glyph-name="Udieresis" unicode="&#xdc;" horiz-adv-x="670" 
d="M595 267q0 -77 -17 -128t-52 -84q-33 -32 -81 -48.5t-109 -16.5q-125 0 -192 64q-35 33 -52 84t-17 128v445q0 9 29 9h8q32 0 32 -9v-436q0 -65 13 -108.5t39 -69.5q24 -25 59.5 -37t80.5 -12q91 0 139 49q26 26 39 69.5t13 108.5v436q0 9 29 9h7q32 0 32 -9v-444z
M188 846q0 20 13.5 34t33.5 14t34 -14t14 -34t-14 -33.5t-34 -13.5t-33.5 13.5t-13.5 33.5zM390 846q0 20 13.5 34t33.5 14t34 -14t14 -34t-14 -33.5t-34 -13.5t-33.5 13.5t-13.5 33.5z" />
    <glyph glyph-name="Yacute" unicode="&#xdd;" horiz-adv-x="523" 
d="M254 0q-29 0 -29 9v269l-211 430q-1 2 -1 3q0 3 3 5q5 4 27 4h8q21 0 28 -2.5t10 -8.5l177 -369l175 371q3 6 9 7.5t25 1.5h9q17 0 22 -3q3 -2 3 -5q0 -2 -1 -4l-214 -430v-269q0 -9 -32 -9h-8zM333 913q17 0 21 -2.5t0 -7.5l-88 -119q-3 -4 -8 -5t-19 -1h-4q-24 0 -20 7
l67 118q3 5 9.5 7.5t26.5 2.5h15z" />
    <glyph glyph-name="Thorn" unicode="&#xde;" horiz-adv-x="536" 
d="M151 559q25 5 53.5 7.5t60.5 2.5q113 0 176 -49t63 -147q0 -100 -63 -149t-176 -49q-32 0 -60.5 2.5t-53.5 7.5v-176q0 -9 -32 -9h-8q-29 0 -29 9v702q0 9 29 9h8q32 0 32 -9v-152zM263 513q-32 0 -60.5 -2.5t-51.5 -6.5v-264q23 -4 51.5 -6.5t60.5 -2.5q39 0 70.5 7.5
t53.5 24.5t34 44t12 65q0 76 -46 108.5t-124 32.5z" />
    <glyph glyph-name="germandbls" unicode="&#xdf;" horiz-adv-x="605" 
d="M143 10q0 -5 -5.5 -7.5t-22.5 -2.5h-8q-18 0 -23.5 2.5t-5.5 7.5v516q0 127 50.5 185.5t150.5 58.5q34 0 63.5 -9.5t51.5 -28t35 -45t13 -60.5q0 -38 -13.5 -67.5t-45.5 -61.5q-14 -14 -22.5 -25.5t-13.5 -21t-7 -19t-2 -20.5q0 -28 20 -48.5t76 -42.5q31 -12 56 -26
t42.5 -33t26.5 -45t9 -62q0 -43 -13.5 -74t-37.5 -51.5t-57 -30t-72 -9.5q-38 0 -74.5 9.5t-67.5 26.5q-7 4 4 26l2 4q8 15 12.5 19t9.5 1q23 -13 52.5 -21t60.5 -8q55 0 87.5 26t32.5 80q0 27 -7.5 44.5t-21.5 30.5t-33 22.5t-43 18.5q-62 24 -93.5 58t-31.5 82q0 17 3 32
t10.5 29.5t19.5 30t30 33.5q23 24 32.5 44t9.5 46q0 41 -26.5 66.5t-80.5 25.5q-31 0 -55.5 -9.5t-41.5 -31.5t-26 -58t-9 -89v-518z" />
    <glyph glyph-name="agrave" unicode="&#xe0;" horiz-adv-x="563" 
d="M484 223q0 -65 1.5 -113.5t5.5 -101.5q0 -5 -5 -6.5t-20 -1.5h-3q-17 0 -21.5 2t-5.5 7l-8 62q-23 -39 -65.5 -60t-95.5 -21q-57 0 -98.5 21t-68.5 57t-40 84.5t-13 102.5q0 64 17 116.5t47.5 89.5t72.5 57t92 20q52 0 88.5 -20t59.5 -53l5 53q1 6 6.5 8t21.5 2h7
q16 0 19 -2t3 -10q0 -7 -0.5 -15.5t-0.5 -16.5q-1 -23 -1 -54v-61v-146zM419 396q-25 38 -58 60t-81 22q-76 0 -119.5 -59t-43.5 -159q0 -39 7.5 -77t25.5 -68t48 -48t75 -18q73 0 110 41q10 12 17 24.5t11.5 30t6 42t1.5 59.5v150zM249 721q20 0 26.5 -2.5t9.5 -7.5
l67 -118q4 -7 -20 -7h-4q-14 0 -19 1t-8 5l-88 119q-4 5 0 7.5t21 2.5h15z" />
    <glyph glyph-name="aacute" unicode="&#xe1;" horiz-adv-x="563" 
d="M484 223q0 -65 1.5 -113.5t5.5 -101.5q0 -5 -5 -6.5t-20 -1.5h-3q-17 0 -21.5 2t-5.5 7l-8 62q-23 -39 -65.5 -60t-95.5 -21q-57 0 -98.5 21t-68.5 57t-40 84.5t-13 102.5q0 64 17 116.5t47.5 89.5t72.5 57t92 20q52 0 88.5 -20t59.5 -53l5 53q1 6 6.5 8t21.5 2h7
q16 0 19 -2t3 -10q0 -7 -0.5 -15.5t-0.5 -16.5q-1 -23 -1 -54v-61v-146zM419 396q-25 38 -58 60t-81 22q-76 0 -119.5 -59t-43.5 -159q0 -39 7.5 -77t25.5 -68t48 -48t75 -18q73 0 110 41q10 12 17 24.5t11.5 30t6 42t1.5 59.5v150zM349 721q17 0 21 -2.5t0 -7.5l-88 -119
q-3 -4 -8 -5t-19 -1h-4q-24 0 -20 7l67 118q3 5 9.5 7.5t26.5 2.5h15z" />
    <glyph glyph-name="acircumflex" unicode="&#xe2;" horiz-adv-x="563" 
d="M484 223q0 -65 1.5 -113.5t5.5 -101.5q0 -5 -5 -6.5t-20 -1.5h-3q-17 0 -21.5 2t-5.5 7l-8 62q-23 -39 -65.5 -60t-95.5 -21q-57 0 -98.5 21t-68.5 57t-40 84.5t-13 102.5q0 64 17 116.5t47.5 89.5t72.5 57t92 20q52 0 88.5 -20t59.5 -53l5 53q1 6 6.5 8t21.5 2h7
q16 0 19 -2t3 -10q0 -7 -0.5 -15.5t-0.5 -16.5q-1 -23 -1 -54v-61v-146zM419 396q-25 38 -58 60t-81 22q-76 0 -119.5 -59t-43.5 -159q0 -39 7.5 -77t25.5 -68t48 -48t75 -18q73 0 110 41q10 12 17 24.5t11.5 30t6 42t1.5 59.5v150zM294 729q15 0 22 -2.5t12 -7.5l94 -100
q5 -5 -4 -16l-5 -6q-10 -11 -16 -6l-116 97l-116 -97q-6 -5 -16 6l-5 6q-9 11 -4 16l94 100q5 5 12 7.5t22 2.5h26z" />
    <glyph glyph-name="atilde" unicode="&#xe3;" horiz-adv-x="563" 
d="M484 223q0 -65 1.5 -113.5t5.5 -101.5q0 -5 -5 -6.5t-20 -1.5h-3q-17 0 -21.5 2t-5.5 7l-8 62q-23 -39 -65.5 -60t-95.5 -21q-57 0 -98.5 21t-68.5 57t-40 84.5t-13 102.5q0 64 17 116.5t47.5 89.5t72.5 57t92 20q52 0 88.5 -20t59.5 -53l5 53q1 6 6.5 8t21.5 2h7
q16 0 19 -2t3 -10q0 -7 -0.5 -15.5t-0.5 -16.5q-1 -23 -1 -54v-61v-146zM419 396q-25 38 -58 60t-81 22q-76 0 -119.5 -59t-43.5 -159q0 -39 7.5 -77t25.5 -68t48 -48t75 -18q73 0 110 41q10 12 17 24.5t11.5 30t6 42t1.5 59.5v150zM431 665q-14 -17 -38 -30.5t-50 -13.5
q-21 0 -37 6t-30.5 13t-29 13t-31.5 6q-16 0 -28.5 -7t-29.5 -23q-6 -5 -16 8l-8 10q-7 10 -2 16q14 17 38 30.5t50 13.5q21 0 37 -6t30.5 -13t29 -13t31.5 -6q16 0 28.5 7t29.5 23q3 2 6.5 1t9.5 -9l8 -10q7 -10 2 -16z" />
    <glyph glyph-name="adieresis" unicode="&#xe4;" horiz-adv-x="563" 
d="M484 223q0 -65 1.5 -113.5t5.5 -101.5q0 -5 -5 -6.5t-20 -1.5h-3q-17 0 -21.5 2t-5.5 7l-8 62q-23 -39 -65.5 -60t-95.5 -21q-57 0 -98.5 21t-68.5 57t-40 84.5t-13 102.5q0 64 17 116.5t47.5 89.5t72.5 57t92 20q52 0 88.5 -20t59.5 -53l5 53q1 6 6.5 8t21.5 2h7
q16 0 19 -2t3 -10q0 -7 -0.5 -15.5t-0.5 -16.5q-1 -23 -1 -54v-61v-146zM419 396q-25 38 -58 60t-81 22q-76 0 -119.5 -59t-43.5 -159q0 -39 7.5 -77t25.5 -68t48 -48t75 -18q73 0 110 41q10 12 17 24.5t11.5 30t6 42t1.5 59.5v150zM133 654q0 20 13.5 34t33.5 14t34 -14
t14 -34t-14 -33.5t-34 -13.5t-33.5 13.5t-13.5 33.5zM335 654q0 20 13.5 34t33.5 14t34 -14t14 -34t-14 -33.5t-34 -13.5t-33.5 13.5t-13.5 33.5z" />
    <glyph glyph-name="aring" unicode="&#xe5;" horiz-adv-x="563" 
d="M484 223q0 -65 1.5 -113.5t5.5 -101.5q0 -5 -5 -6.5t-20 -1.5h-3q-17 0 -21.5 2t-5.5 7l-8 62q-23 -39 -65.5 -60t-95.5 -21q-57 0 -98.5 21t-68.5 57t-40 84.5t-13 102.5q0 64 17 116.5t47.5 89.5t72.5 57t92 20q52 0 88.5 -20t59.5 -53l5 53q1 6 6.5 8t21.5 2h7
q16 0 19 -2t3 -10q0 -7 -0.5 -15.5t-0.5 -16.5q-1 -23 -1 -54v-61v-146zM419 396q-25 38 -58 60t-81 22q-76 0 -119.5 -59t-43.5 -159q0 -39 7.5 -77t25.5 -68t48 -48t75 -18q73 0 110 41q10 12 17 24.5t11.5 30t6 42t1.5 59.5v150zM187 668q0 19 7.5 35.5t20.5 28.5t30 19
t36 7t36 -7t30 -19t20.5 -28.5t7.5 -35.5t-7.5 -35.5t-20.5 -28.5t-30 -19t-36 -7t-36 7t-30 19t-20.5 28.5t-7.5 35.5zM230 668q0 -23 15 -37t36 -14q23 0 36 15t13 36t-13 36t-36 15q-21 0 -36 -14t-15 -37z" />
    <glyph glyph-name="ae" unicode="&#xe6;" horiz-adv-x="863" 
d="M455 243q2 -54 15.5 -92t35.5 -59t49.5 -31t66.5 -10q38 0 73 8t64 22q8 4 12 1.5t10 -17.5l4 -10q8 -21 -1 -26q-75 -39 -173 -39q-66 0 -114 27.5t-70 69.5q-31 -39 -81 -68t-124 -29q-37 0 -69.5 10.5t-56.5 31t-37.5 51t-13.5 70.5q0 85 56 127.5t153 42.5
q67 0 133 -26l1 33q2 81 -32 115t-112 34q-32 0 -67.5 -6.5t-70.5 -20.5q-6 -2 -9.5 1.5t-8.5 17.5l-2 6q-5 14 -5 20t5 8q36 16 81 24.5t86 8.5q33 0 62.5 -6.5t53.5 -19.5t40.5 -32.5t23.5 -46.5q25 49 69.5 77t108.5 28q60 0 104 -29t69 -79q17 -35 25.5 -76t8.5 -86
q0 -17 -3 -21t-11 -4h-349zM236 48q55 0 97 23.5t70 65.5q-17 46 -18 105q-26 12 -59.5 20.5t-69.5 8.5q-62 0 -101.5 -27t-39.5 -87q0 -54 32 -81.5t89 -27.5zM751 295q-1 34 -9.5 67t-26 58.5t-44 41t-62.5 15.5q-68 0 -107.5 -45.5t-45.5 -136.5h295z" />
    <glyph glyph-name="ccedilla" unicode="&#xe7;" horiz-adv-x="483" 
d="M242 -8q-50 6 -86.5 28.5t-60.5 57.5t-36 80.5t-12 97.5q0 69 18.5 121.5t51 88t77 54t96.5 18.5q88 0 156 -45q5 -4 5 -9t-7 -19l-4 -8q-7 -14 -11.5 -16.5t-11.5 1.5q-58 35 -122 35q-80 0 -129 -55.5t-49 -159.5q0 -42 9 -81t28.5 -68t51.5 -46.5t78 -17.5q36 0 69 7
t62 23q7 4 11 0.5t9 -17.5l4 -11q5 -12 4.5 -16.5t-5.5 -7.5q-29 -17 -67.5 -26t-81.5 -11l-7 -57q7 1 13.5 1.5t13.5 0.5q40 0 65 -21.5t25 -56.5q0 -18 -6.5 -34t-20 -28.5t-34 -20t-49.5 -7.5q-21 0 -41.5 3.5t-30.5 8.5q-5 2 -2 18l1 5q2 10 4 12.5t6 1.5q14 -3 28 -5
t27 -2q29 0 45.5 10.5t16.5 33.5t-16.5 33t-44.5 10q-11 0 -26.5 -1.5t-26.5 -3.5z" />
    <glyph glyph-name="egrave" unicode="&#xe8;" horiz-adv-x="541" 
d="M117 243q4 -107 57 -152q23 -20 55 -30t71 -10q38 0 73 8t64 22q8 4 12 1.5t10 -17.5l4 -10q8 -21 -1 -26q-75 -39 -173 -39q-117 0 -179.5 70t-62.5 192q0 61 16 113.5t46.5 90.5t74.5 60t100 22q65 0 109 -29t69 -79q17 -35 25.5 -76t8.5 -86q0 -17 -3 -21t-11 -4h-365
zM429 295q-1 34 -9.5 67t-26.5 58.5t-45 41t-65 15.5q-32 0 -60 -10t-49.5 -31.5t-36 -56.5t-19.5 -84h311zM248 721q20 0 26.5 -2.5t9.5 -7.5l67 -118q4 -7 -20 -7h-4q-14 0 -19 1t-8 5l-88 119q-4 5 0 7.5t21 2.5h15z" />
    <glyph glyph-name="eacute" unicode="&#xe9;" horiz-adv-x="541" 
d="M117 243q4 -107 57 -152q23 -20 55 -30t71 -10q38 0 73 8t64 22q8 4 12 1.5t10 -17.5l4 -10q8 -21 -1 -26q-75 -39 -173 -39q-117 0 -179.5 70t-62.5 192q0 61 16 113.5t46.5 90.5t74.5 60t100 22q65 0 109 -29t69 -79q17 -35 25.5 -76t8.5 -86q0 -17 -3 -21t-11 -4h-365
zM429 295q-1 34 -9.5 67t-26.5 58.5t-45 41t-65 15.5q-32 0 -60 -10t-49.5 -31.5t-36 -56.5t-19.5 -84h311zM338 721q17 0 21 -2.5t0 -7.5l-88 -119q-3 -4 -8 -5t-19 -1h-4q-24 0 -20 7l67 118q3 5 9.5 7.5t26.5 2.5h15z" />
    <glyph glyph-name="ecircumflex" unicode="&#xea;" horiz-adv-x="541" 
d="M117 243q4 -107 57 -152q23 -20 55 -30t71 -10q38 0 73 8t64 22q8 4 12 1.5t10 -17.5l4 -10q8 -21 -1 -26q-75 -39 -173 -39q-117 0 -179.5 70t-62.5 192q0 61 16 113.5t46.5 90.5t74.5 60t100 22q65 0 109 -29t69 -79q17 -35 25.5 -76t8.5 -86q0 -17 -3 -21t-11 -4h-365
zM429 295q-1 34 -9.5 67t-26.5 58.5t-45 41t-65 15.5q-32 0 -60 -10t-49.5 -31.5t-36 -56.5t-19.5 -84h311zM293 729q15 0 22 -2.5t12 -7.5l94 -100q5 -5 -4 -16l-5 -6q-10 -11 -16 -6l-116 97l-116 -97q-6 -5 -16 6l-5 6q-9 11 -4 16l94 100q5 5 12 7.5t22 2.5h26z" />
    <glyph glyph-name="edieresis" unicode="&#xeb;" horiz-adv-x="541" 
d="M117 243q4 -107 57 -152q23 -20 55 -30t71 -10q38 0 73 8t64 22q8 4 12 1.5t10 -17.5l4 -10q8 -21 -1 -26q-75 -39 -173 -39q-117 0 -179.5 70t-62.5 192q0 61 16 113.5t46.5 90.5t74.5 60t100 22q65 0 109 -29t69 -79q17 -35 25.5 -76t8.5 -86q0 -17 -3 -21t-11 -4h-365
zM429 295q-1 34 -9.5 67t-26.5 58.5t-45 41t-65 15.5q-32 0 -60 -10t-49.5 -31.5t-36 -56.5t-19.5 -84h311zM132 654q0 20 13.5 34t33.5 14t34 -14t14 -34t-14 -33.5t-34 -13.5t-33.5 13.5t-13.5 33.5zM334 654q0 20 13.5 34t33.5 14t34 -14t14 -34t-14 -33.5t-34 -13.5
t-33.5 13.5t-13.5 33.5z" />
    <glyph glyph-name="igrave" unicode="&#xec;" horiz-adv-x="222" 
d="M78 519q0 5 6 7t22 2h8q17 0 23 -2t6 -7v-509q0 -5 -5.5 -7.5t-22.5 -2.5h-8q-18 0 -23.5 2.5t-5.5 7.5v509zM80 721q20 0 26.5 -2.5t9.5 -7.5l67 -118q4 -7 -20 -7h-4q-14 0 -19 1t-8 5l-88 119q-4 5 0 7.5t21 2.5h15z" />
    <glyph glyph-name="iacute" unicode="&#xed;" horiz-adv-x="222" 
d="M78 519q0 5 6 7t22 2h8q17 0 23 -2t6 -7v-509q0 -5 -5.5 -7.5t-22.5 -2.5h-8q-18 0 -23.5 2.5t-5.5 7.5v509zM170 721q17 0 21 -2.5t0 -7.5l-88 -119q-3 -4 -8 -5t-19 -1h-4q-24 0 -20 7l67 118q3 5 9.5 7.5t26.5 2.5h15z" />
    <glyph glyph-name="icircumflex" unicode="&#xee;" horiz-adv-x="222" 
d="M78 519q0 5 6 7t22 2h8q17 0 23 -2t6 -7v-509q0 -5 -5.5 -7.5t-22.5 -2.5h-8q-18 0 -23.5 2.5t-5.5 7.5v509zM125 729q15 0 22 -2.5t12 -7.5l94 -100q5 -5 -4 -16l-5 -6q-10 -11 -16 -6l-116 97l-116 -97q-6 -5 -16 6l-5 6q-9 11 -4 16l94 100q5 5 12 7.5t22 2.5h26z" />
    <glyph glyph-name="idieresis" unicode="&#xef;" horiz-adv-x="222" 
d="M78 519q0 5 6 7t22 2h8q17 0 23 -2t6 -7v-509q0 -5 -5.5 -7.5t-22.5 -2.5h-8q-18 0 -23.5 2.5t-5.5 7.5v509zM-36 654q0 20 13.5 34t33.5 14t34 -14t14 -34t-14 -33.5t-34 -13.5t-33.5 13.5t-13.5 33.5zM166 654q0 20 13.5 34t33.5 14t34 -14t14 -34t-14 -33.5t-34 -13.5
t-33.5 13.5t-13.5 33.5z" />
    <glyph glyph-name="eth" unicode="&#xf0;" horiz-adv-x="566" 
d="M321 675q93 -70 143 -165t50 -223q0 -83 -19 -139.5t-51.5 -91.5t-75 -50.5t-89.5 -15.5q-51 0 -93.5 17.5t-73.5 50.5t-48 81t-17 110q0 58 17.5 107t49 84.5t74 55.5t92.5 20q37 0 71 -10.5t62 -30.5q-25 52 -61.5 94.5t-87.5 78.5l-137 -64q-8 -4 -14 9l-6 12
q-8 14 -1 17l115 54q-30 19 -54 31l-50 25q-5 3 -5 7t6 15l5 9q5 9 8 11.5t9 0.5q70 -26 140 -71l126 58q8 4 14 -9l6 -12q5 -8 4.5 -11.5t-3.5 -5.5zM445 294q0 29 -4 61.5t-12 53.5q-31 23 -65.5 35.5t-73.5 12.5q-42 0 -74.5 -16t-54.5 -43.5t-33 -65.5t-11 -81
q0 -94 43.5 -148t123.5 -54q85 0 123 62t38 183z" />
    <glyph glyph-name="ntilde" unicode="&#xf1;" horiz-adv-x="581" 
d="M141 455q29 40 72.5 61.5t103.5 21.5q93 0 143 -52q26 -26 37.5 -66.5t11.5 -101.5v-307q0 -5 -5.5 -8t-22.5 -3h-8q-18 0 -23.5 3t-5.5 8v262q0 33 -1 57.5t-4.5 44t-10 34.5t-16.5 27q-17 20 -45.5 29t-65.5 9q-42 0 -71.5 -12.5t-52.5 -36.5q-12 -14 -20 -33t-10 -39
q-2 -22 -2.5 -60.5t-0.5 -84.5v-197q0 -5 -6 -8t-22 -3h-8q-18 0 -23.5 3t-5.5 8v376v65q0 33 -2 67q0 9 27 9h7q15 0 21 -2t6 -7zM454 665q-14 -17 -38 -30.5t-50 -13.5q-21 0 -37 6t-30.5 13t-29 13t-31.5 6q-16 0 -28.5 -7t-29.5 -23q-6 -5 -16 8l-8 10q-7 10 -2 16
q14 17 38 30.5t50 13.5q21 0 37 -6t30.5 -13t29 -13t31.5 -6q16 0 28.5 7t29.5 23q3 2 6.5 1t9.5 -9l8 -10q7 -10 2 -16z" />
    <glyph glyph-name="ograve" unicode="&#xf2;" horiz-adv-x="566" 
d="M117 259q0 -38 7.5 -75.5t25.5 -67.5t48.5 -48.5t77.5 -18.5q34 0 65.5 12t55.5 38.5t38 68t14 101.5q0 38 -7.5 75.5t-25.5 67.5t-49 48.5t-78 18.5q-34 0 -65 -12t-55 -38.5t-38 -68.5t-14 -101zM273 -10q-45 0 -81.5 11.5t-65.5 37.5q-37 33 -58 87t-21 126
q0 71 17.5 124.5t49.5 89.5t77.5 54t101.5 18q45 0 81.5 -11.5t65.5 -37.5q37 -33 58 -87t21 -126q0 -71 -17.5 -124.5t-49.5 -89.5t-77.5 -54t-101.5 -18zM260 721q20 0 26.5 -2.5t9.5 -7.5l67 -118q4 -7 -20 -7h-4q-14 0 -19 1t-8 5l-88 119q-4 5 0 7.5t21 2.5h15z" />
    <glyph glyph-name="oacute" unicode="&#xf3;" horiz-adv-x="566" 
d="M117 259q0 -38 7.5 -75.5t25.5 -67.5t48.5 -48.5t77.5 -18.5q34 0 65.5 12t55.5 38.5t38 68t14 101.5q0 38 -7.5 75.5t-25.5 67.5t-49 48.5t-78 18.5q-34 0 -65 -12t-55 -38.5t-38 -68.5t-14 -101zM273 -10q-45 0 -81.5 11.5t-65.5 37.5q-37 33 -58 87t-21 126
q0 71 17.5 124.5t49.5 89.5t77.5 54t101.5 18q45 0 81.5 -11.5t65.5 -37.5q37 -33 58 -87t21 -126q0 -71 -17.5 -124.5t-49.5 -89.5t-77.5 -54t-101.5 -18zM340 721q17 0 21 -2.5t0 -7.5l-88 -119q-3 -4 -8 -5t-19 -1h-4q-24 0 -20 7l67 118q3 5 9.5 7.5t26.5 2.5h15z" />
    <glyph glyph-name="ocircumflex" unicode="&#xf4;" horiz-adv-x="566" 
d="M117 259q0 -38 7.5 -75.5t25.5 -67.5t48.5 -48.5t77.5 -18.5q34 0 65.5 12t55.5 38.5t38 68t14 101.5q0 38 -7.5 75.5t-25.5 67.5t-49 48.5t-78 18.5q-34 0 -65 -12t-55 -38.5t-38 -68.5t-14 -101zM273 -10q-45 0 -81.5 11.5t-65.5 37.5q-37 33 -58 87t-21 126
q0 71 17.5 124.5t49.5 89.5t77.5 54t101.5 18q45 0 81.5 -11.5t65.5 -37.5q37 -33 58 -87t21 -126q0 -71 -17.5 -124.5t-49.5 -89.5t-77.5 -54t-101.5 -18zM306 729q15 0 22 -2.5t12 -7.5l94 -100q5 -5 -4 -16l-5 -6q-10 -11 -16 -6l-116 97l-116 -97q-6 -5 -16 6l-5 6
q-9 11 -4 16l94 100q5 5 12 7.5t22 2.5h26z" />
    <glyph glyph-name="otilde" unicode="&#xf5;" horiz-adv-x="566" 
d="M117 259q0 -38 7.5 -75.5t25.5 -67.5t48.5 -48.5t77.5 -18.5q34 0 65.5 12t55.5 38.5t38 68t14 101.5q0 38 -7.5 75.5t-25.5 67.5t-49 48.5t-78 18.5q-34 0 -65 -12t-55 -38.5t-38 -68.5t-14 -101zM273 -10q-45 0 -81.5 11.5t-65.5 37.5q-37 33 -58 87t-21 126
q0 71 17.5 124.5t49.5 89.5t77.5 54t101.5 18q45 0 81.5 -11.5t65.5 -37.5q37 -33 58 -87t21 -126q0 -71 -17.5 -124.5t-49.5 -89.5t-77.5 -54t-101.5 -18zM443 665q-14 -17 -38 -30.5t-50 -13.5q-21 0 -37 6t-30.5 13t-29 13t-31.5 6q-16 0 -28.5 -7t-29.5 -23q-6 -5 -16 8
l-8 10q-7 10 -2 16q14 17 38 30.5t50 13.5q21 0 37 -6t30.5 -13t29 -13t31.5 -6q16 0 28.5 7t29.5 23q3 2 6.5 1t9.5 -9l8 -10q7 -10 2 -16z" />
    <glyph glyph-name="odieresis" unicode="&#xf6;" horiz-adv-x="566" 
d="M117 259q0 -38 7.5 -75.5t25.5 -67.5t48.5 -48.5t77.5 -18.5q34 0 65.5 12t55.5 38.5t38 68t14 101.5q0 38 -7.5 75.5t-25.5 67.5t-49 48.5t-78 18.5q-34 0 -65 -12t-55 -38.5t-38 -68.5t-14 -101zM273 -10q-45 0 -81.5 11.5t-65.5 37.5q-37 33 -58 87t-21 126
q0 71 17.5 124.5t49.5 89.5t77.5 54t101.5 18q45 0 81.5 -11.5t65.5 -37.5q37 -33 58 -87t21 -126q0 -71 -17.5 -124.5t-49.5 -89.5t-77.5 -54t-101.5 -18zM144 654q0 20 13.5 34t33.5 14t34 -14t14 -34t-14 -33.5t-34 -13.5t-33.5 13.5t-13.5 33.5zM346 654q0 20 13.5 34
t33.5 14t34 -14t14 -34t-14 -33.5t-34 -13.5t-33.5 13.5t-13.5 33.5z" />
    <glyph glyph-name="divide" unicode="&#xf7;" 
d="M296 619q20 0 34.5 -15t14.5 -37t-14.5 -36t-34.5 -14t-34 14t-14 36t14 37t34 15zM296 212q20 0 34.5 -14t14.5 -37q0 -21 -14.5 -35.5t-34.5 -14.5t-34 14.5t-14 35.5q0 23 14 37t34 14zM49 342q-8 0 -8 22v1q0 13 1.5 17.5t6.5 4.5h476q5 0 6.5 -4.5t1.5 -17.5v-1
q0 -22 -8 -22h-476z" />
    <glyph glyph-name="oslash" unicode="&#xf8;" horiz-adv-x="566" 
d="M273 -10q-77 0 -126 33l-35 -48q-4 -5 -9.5 -4.5t-19.5 10.5l-6 4q-13 9 -15 13.5t3 10.5l39 53q-27 33 -42 81t-15 109q0 71 17.5 124.5t49.5 89.5t77.5 54t101.5 18q75 0 127 -34l41 57q5 6 10 4.5t19 -11.5l4 -3q14 -10 16.5 -14.5t-2.5 -11.5l-44 -62
q26 -33 40.5 -80t14.5 -107q0 -71 -17.5 -124.5t-49.5 -89.5t-77.5 -54t-101.5 -18zM117 259q0 -36 6.5 -72.5t22.5 -65.5l235 329q-17 14 -40 21.5t-52 7.5q-34 0 -65 -12t-55 -38.5t-38 -68.5t-14 -101zM449 269q0 35 -6.5 70t-22.5 64l-235 -327q17 -13 39.5 -20t51.5 -7
q34 0 65.5 12t55.5 38.5t38 68t14 101.5z" />
    <glyph glyph-name="ugrave" unicode="&#xf9;" horiz-adv-x="578" 
d="M437 79q-25 -43 -68 -66t-103 -23q-47 0 -86 12.5t-62 38.5q-26 26 -36.5 66.5t-10.5 102.5v308q0 5 5 7.5t23 2.5h8q18 0 23.5 -2.5t5.5 -7.5v-264q0 -65 4 -102t24 -60q34 -40 111 -40q38 0 66 11t48 31q10 10 18.5 24t13.5 34t8 48.5t3 68.5v249q0 5 5 7.5t23 2.5h8
q18 0 23.5 -2.5t5.5 -7.5v-347q0 -39 1 -78q0 -12 1 -40t1 -43q0 -6 -4 -8q-5 -2 -20 -2h-8q-17 0 -21 1.5t-5 8.5zM256 721q20 0 26.5 -2.5t9.5 -7.5l67 -118q4 -7 -20 -7h-4q-14 0 -19 1t-8 5l-88 119q-4 5 0 7.5t21 2.5h15z" />
    <glyph glyph-name="uacute" unicode="&#xfa;" horiz-adv-x="578" 
d="M437 79q-25 -43 -68 -66t-103 -23q-47 0 -86 12.5t-62 38.5q-26 26 -36.5 66.5t-10.5 102.5v308q0 5 5 7.5t23 2.5h8q18 0 23.5 -2.5t5.5 -7.5v-264q0 -65 4 -102t24 -60q34 -40 111 -40q38 0 66 11t48 31q10 10 18.5 24t13.5 34t8 48.5t3 68.5v249q0 5 5 7.5t23 2.5h8
q18 0 23.5 -2.5t5.5 -7.5v-347q0 -39 1 -78q0 -12 1 -40t1 -43q0 -6 -4 -8q-5 -2 -20 -2h-8q-17 0 -21 1.5t-5 8.5zM348 721q17 0 21 -2.5t0 -7.5l-88 -119q-3 -4 -8 -5t-19 -1h-4q-24 0 -20 7l67 118q3 5 9.5 7.5t26.5 2.5h15z" />
    <glyph glyph-name="ucircumflex" unicode="&#xfb;" horiz-adv-x="578" 
d="M437 79q-25 -43 -68 -66t-103 -23q-47 0 -86 12.5t-62 38.5q-26 26 -36.5 66.5t-10.5 102.5v308q0 5 5 7.5t23 2.5h8q18 0 23.5 -2.5t5.5 -7.5v-264q0 -65 4 -102t24 -60q34 -40 111 -40q38 0 66 11t48 31q10 10 18.5 24t13.5 34t8 48.5t3 68.5v249q0 5 5 7.5t23 2.5h8
q18 0 23.5 -2.5t5.5 -7.5v-347q0 -39 1 -78q0 -12 1 -40t1 -43q0 -6 -4 -8q-5 -2 -20 -2h-8q-17 0 -21 1.5t-5 8.5zM302 729q15 0 22 -2.5t12 -7.5l94 -100q5 -5 -4 -16l-5 -6q-10 -11 -16 -6l-116 97l-116 -97q-6 -5 -16 6l-5 6q-9 11 -4 16l94 100q5 5 12 7.5t22 2.5h26z
" />
    <glyph glyph-name="udieresis" unicode="&#xfc;" horiz-adv-x="578" 
d="M437 79q-25 -43 -68 -66t-103 -23q-47 0 -86 12.5t-62 38.5q-26 26 -36.5 66.5t-10.5 102.5v308q0 5 5 7.5t23 2.5h8q18 0 23.5 -2.5t5.5 -7.5v-264q0 -65 4 -102t24 -60q34 -40 111 -40q38 0 66 11t48 31q10 10 18.5 24t13.5 34t8 48.5t3 68.5v249q0 5 5 7.5t23 2.5h8
q18 0 23.5 -2.5t5.5 -7.5v-347q0 -39 1 -78q0 -12 1 -40t1 -43q0 -6 -4 -8q-5 -2 -20 -2h-8q-17 0 -21 1.5t-5 8.5zM140 654q0 20 13.5 34t33.5 14t34 -14t14 -34t-14 -33.5t-34 -13.5t-33.5 13.5t-13.5 33.5zM342 654q0 20 13.5 34t33.5 14t34 -14t14 -34t-14 -33.5
t-34 -13.5t-33.5 13.5t-13.5 33.5z" />
    <glyph glyph-name="yacute" unicode="&#xfd;" horiz-adv-x="509" 
d="M198 264q18 -48 34 -97l37 -110l35 107q15 46 32 93l92 261q2 6 7.5 8t23.5 2h5q15 0 23 -2t6 -8l-192 -539q-21 -56 -42.5 -97t-44.5 -66q-29 -32 -66 -46t-79 -14q-17 0 -38 3t-36 10q-5 2 -5 7t4 17l3 9q5 13 7.5 17.5t7.5 2.5q12 -4 25 -6.5t28 -2.5q31 0 55.5 9.5
t45 30.5t37.5 53.5t33 79.5l-206 530q-2 6 3 9t27 3h8q19 0 26.5 -2t9.5 -8zM337 721q17 0 21 -2.5t0 -7.5l-88 -119q-3 -4 -8 -5t-19 -1h-4q-24 0 -20 7l67 118q3 5 9.5 7.5t26.5 2.5h15z" />
    <glyph glyph-name="thorn" unicode="&#xfe;" horiz-adv-x="561" 
d="M143 470q53 68 156 68q99 0 157 -66.5t58 -196.5q0 -56 -15.5 -107.5t-45 -91t-73.5 -63t-101 -23.5q-44 0 -77 12.5t-59 35.5v-262q0 -9 -29 -9h-8q-16 0 -22 2t-6 7v985q0 5 5.5 7t22.5 2h8q29 0 29 -9v-291zM143 102q23 -23 58.5 -38t77.5 -15q39 0 70 16t52 45
t32 70.5t11 91.5q0 55 -11 94t-31 64t-48.5 36.5t-63.5 11.5q-42 0 -70 -12t-45 -33q-7 -9 -13 -20t-10 -29.5t-6.5 -47t-2.5 -71.5v-163z" />
    <glyph glyph-name="ydieresis" unicode="&#xff;" horiz-adv-x="509" 
d="M198 264q18 -48 34 -97l37 -110l35 107q15 46 32 93l92 261q2 6 7.5 8t23.5 2h5q15 0 23 -2t6 -8l-192 -539q-21 -56 -42.5 -97t-44.5 -66q-29 -32 -66 -46t-79 -14q-17 0 -38 3t-36 10q-5 2 -5 7t4 17l3 9q5 13 7.5 17.5t7.5 2.5q12 -4 25 -6.5t28 -2.5q31 0 55.5 9.5
t45 30.5t37.5 53.5t33 79.5l-206 530q-2 6 3 9t27 3h8q19 0 26.5 -2t9.5 -8zM124 654q0 20 13.5 34t33.5 14t34 -14t14 -34t-14 -33.5t-34 -13.5t-33.5 13.5t-13.5 33.5zM326 654q0 20 13.5 34t33.5 14t34 -14t14 -34t-14 -33.5t-34 -13.5t-33.5 13.5t-13.5 33.5z" />
    <glyph glyph-name="Amacron" unicode="&#x100;" horiz-adv-x="626" 
d="M463 194h-308l-61 -184q-2 -6 -10 -8t-25 -2h-5q-21 0 -26 3q-4 2 -4 5q0 2 1 3l242 696q3 8 11.5 10.5t31.5 2.5h2q23 0 31.5 -2.5t11.5 -10.5l246 -696q1 -1 1 -3q0 -3 -4 -5q-5 -3 -27 -3h-10q-20 0 -27.5 2t-9.5 8zM173 250h272l-135 407zM444 874q5 0 6.5 -4.5
t1.5 -18.5v-3q0 -25 -8 -25h-262q-8 0 -8 25v3q0 14 1.5 18.5t6.5 4.5h262z" />
    <glyph glyph-name="amacron" unicode="&#x101;" horiz-adv-x="563" 
d="M484 223q0 -65 1.5 -113.5t5.5 -101.5q0 -5 -5 -6.5t-20 -1.5h-3q-17 0 -21.5 2t-5.5 7l-8 62q-23 -39 -65.5 -60t-95.5 -21q-57 0 -98.5 21t-68.5 57t-40 84.5t-13 102.5q0 64 17 116.5t47.5 89.5t72.5 57t92 20q52 0 88.5 -20t59.5 -53l5 53q1 6 6.5 8t21.5 2h7
q16 0 19 -2t3 -10q0 -7 -0.5 -15.5t-0.5 -16.5q-1 -23 -1 -54v-61v-146zM419 396q-25 38 -58 60t-81 22q-76 0 -119.5 -59t-43.5 -159q0 -39 7.5 -77t25.5 -68t48 -48t75 -18q73 0 110 41q10 12 17 24.5t11.5 30t6 42t1.5 59.5v150zM412 684q5 0 6.5 -4.5t1.5 -18.5v-3
q0 -25 -8 -25h-262q-8 0 -8 25v3q0 14 1.5 18.5t6.5 4.5h262z" />
    <glyph glyph-name="Abreve" unicode="&#x102;" horiz-adv-x="626" 
d="M463 194h-308l-61 -184q-2 -6 -10 -8t-25 -2h-5q-21 0 -26 3q-4 2 -4 5q0 2 1 3l242 696q3 8 11.5 10.5t31.5 2.5h2q23 0 31.5 -2.5t11.5 -10.5l246 -696q1 -1 1 -3q0 -3 -4 -5q-5 -3 -27 -3h-10q-20 0 -27.5 2t-9.5 8zM173 250h272l-135 407zM313 795q-29 0 -53.5 7.5
t-43 22t-29 35t-10.5 46.5q0 3 2.5 4.5t16.5 1.5h12q13 0 15.5 -1.5t3.5 -8.5q4 -32 26 -49t60 -17t60 17t26 49q1 7 3.5 8.5t15.5 1.5h12q14 0 16.5 -1.5t2.5 -4.5q0 -26 -10.5 -46.5t-29 -35t-43.5 -22t-53 -7.5z" />
    <glyph glyph-name="abreve" unicode="&#x103;" horiz-adv-x="563" 
d="M484 223q0 -65 1.5 -113.5t5.5 -101.5q0 -5 -5 -6.5t-20 -1.5h-3q-17 0 -21.5 2t-5.5 7l-8 62q-23 -39 -65.5 -60t-95.5 -21q-57 0 -98.5 21t-68.5 57t-40 84.5t-13 102.5q0 64 17 116.5t47.5 89.5t72.5 57t92 20q52 0 88.5 -20t59.5 -53l5 53q1 6 6.5 8t21.5 2h7
q16 0 19 -2t3 -10q0 -7 -0.5 -15.5t-0.5 -16.5q-1 -23 -1 -54v-61v-146zM419 396q-25 38 -58 60t-81 22q-76 0 -119.5 -59t-43.5 -159q0 -39 7.5 -77t25.5 -68t48 -48t75 -18q73 0 110 41q10 12 17 24.5t11.5 30t6 42t1.5 59.5v150zM281 595q-29 0 -53.5 7.5t-43 22t-29 35
t-10.5 46.5q0 3 2.5 4.5t16.5 1.5h12q13 0 15.5 -1.5t3.5 -8.5q4 -32 26 -49t60 -17t60 17t26 49q1 7 3.5 8.5t15.5 1.5h12q14 0 16.5 -1.5t2.5 -4.5q0 -26 -10.5 -46.5t-29 -35t-43.5 -22t-53 -7.5z" />
    <glyph glyph-name="Aogonek" unicode="&#x104;" horiz-adv-x="626" 
d="M599 -213q-35 -16 -73 -16q-41 0 -70.5 25.5t-29.5 68.5t25.5 80.5t72.5 63.5l-61 185h-308l-61 -184q-2 -6 -10 -8t-25 -2h-5q-21 0 -26 3t-3 8l242 696q3 8 11.5 10.5t31.5 2.5h2q23 0 31.5 -2.5t11.5 -10.5l246 -696q3 -9 -7 -10q-26 -5 -50.5 -21.5t-39.5 -40.5
q-21 -33 -21 -67q0 -28 15.5 -42.5t42.5 -14.5q13 0 25.5 3t23.5 6q3 1 5.5 -1.5t4.5 -12.5l1 -5q3 -16 -2 -18zM173 250h272l-135 407z" />
    <glyph glyph-name="aogonek" unicode="&#x105;" horiz-adv-x="563" 
d="M484 223v-60l2 -51q0 -24 1.5 -48.5t3.5 -51.5q0 -7 -1.5 -8.5t-7.5 -3.5q-27 -7 -51 -22.5t-38 -38.5q-21 -33 -21 -67q0 -28 15.5 -42.5t42.5 -14.5q13 0 25.5 3t23.5 6q3 1 5.5 -1.5t4.5 -12.5l1 -5q3 -16 -2 -18q-35 -16 -73 -16q-41 0 -70.5 25.5t-29.5 70.5
q0 51 34 89.5t87 58.5l-8 56q-23 -39 -65.5 -60t-95.5 -21q-57 0 -98.5 21t-68.5 57t-40 84.5t-13 102.5q0 64 17 116.5t47.5 89.5t72.5 57t92 20q52 0 88.5 -20t59.5 -53l5 53q1 6 6.5 8t21.5 2h7q16 0 19 -2t3 -10q0 -7 -0.5 -15.5t-0.5 -16.5q-1 -24 -1 -54v-61v-146z
M419 396q-25 38 -58 60t-81 22q-76 0 -119.5 -59t-43.5 -159q0 -39 7.5 -77t25.5 -68t48 -48t75 -18q73 0 110 41q10 12 17 24.5t11.5 30t6 42t1.5 59.5v150z" />
    <glyph glyph-name="Cacute" unicode="&#x106;" horiz-adv-x="564" 
d="M355 671q-59 0 -103.5 -22.5t-73.5 -63.5t-43.5 -99t-14.5 -130q0 -146 57.5 -226.5t175.5 -80.5q37 0 73.5 8.5t68.5 24.5q10 5 18 -15l4 -10q5 -12 5 -17.5t-6 -8.5q-38 -20 -84 -30.5t-96 -10.5q-69 0 -122.5 26t-90.5 73t-56 113.5t-19 147.5q0 95 23 166.5t64 119
t96 71t120 23.5q45 0 89 -12t79 -34q5 -3 5 -7t-7 -17l-5 -11q-6 -12 -9.5 -14t-8.5 0q-39 18 -71.5 27t-67.5 9zM399 913q17 0 21 -2.5t0 -7.5l-88 -119q-3 -4 -8 -5t-19 -1h-4q-24 0 -20 7l67 118q3 5 9.5 7.5t26.5 2.5h15z" />
    <glyph glyph-name="cacute" unicode="&#x107;" horiz-adv-x="483" 
d="M446 493q5 -4 5 -9t-7 -19l-4 -8q-7 -14 -11.5 -16.5t-11.5 1.5q-58 35 -122 35q-80 0 -129 -55.5t-49 -159.5q0 -42 9 -81t28.5 -68t51.5 -46.5t78 -17.5q36 0 69 7t62 23q7 4 11 0.5t9 -17.5l4 -11q5 -12 4.5 -16.5t-5.5 -7.5q-32 -18 -73.5 -27.5t-87.5 -9.5
q-58 0 -101.5 20.5t-72 56.5t-42.5 84.5t-14 104.5q0 69 18.5 121.5t51 88t77 54t96.5 18.5q88 0 156 -45zM353 721q17 0 21 -2.5t0 -7.5l-88 -119q-3 -4 -8 -5t-19 -1h-4q-24 0 -20 7l67 118q3 5 9.5 7.5t26.5 2.5h15z" />
    <glyph glyph-name="Ccircumflex" unicode="&#x108;" horiz-adv-x="564" 
d="M355 671q-59 0 -103.5 -22.5t-73.5 -63.5t-43.5 -99t-14.5 -130q0 -146 57.5 -226.5t175.5 -80.5q37 0 73.5 8.5t68.5 24.5q10 5 18 -15l4 -10q5 -12 5 -17.5t-6 -8.5q-38 -20 -84 -30.5t-96 -10.5q-69 0 -122.5 26t-90.5 73t-56 113.5t-19 147.5q0 95 23 166.5t64 119
t96 71t120 23.5q45 0 89 -12t79 -34q5 -3 5 -7t-7 -17l-5 -11q-6 -12 -9.5 -14t-8.5 0q-39 18 -71.5 27t-67.5 9zM365 921q15 0 22 -2.5t12 -7.5l94 -100q5 -5 -4 -16l-5 -6q-10 -11 -16 -6l-116 97l-116 -97q-6 -5 -16 6l-5 6q-9 11 -4 16l94 100q5 5 12 7.5t22 2.5h26z
" />
    <glyph glyph-name="ccircumflex" unicode="&#x109;" horiz-adv-x="483" 
d="M446 493q5 -4 5 -9t-7 -19l-4 -8q-7 -14 -11.5 -16.5t-11.5 1.5q-58 35 -122 35q-80 0 -129 -55.5t-49 -159.5q0 -42 9 -81t28.5 -68t51.5 -46.5t78 -17.5q36 0 69 7t62 23q7 4 11 0.5t9 -17.5l4 -11q5 -12 4.5 -16.5t-5.5 -7.5q-32 -18 -73.5 -27.5t-87.5 -9.5
q-58 0 -101.5 20.5t-72 56.5t-42.5 84.5t-14 104.5q0 69 18.5 121.5t51 88t77 54t96.5 18.5q88 0 156 -45zM304 729q15 0 22 -2.5t12 -7.5l94 -100q5 -5 -4 -16l-5 -6q-10 -11 -16 -6l-116 97l-116 -97q-6 -5 -16 6l-5 6q-9 11 -4 16l94 100q5 5 12 7.5t22 2.5h26z" />
    <glyph glyph-name="Cdotaccent" unicode="&#x10a;" horiz-adv-x="564" 
d="M355 671q-59 0 -103.5 -22.5t-73.5 -63.5t-43.5 -99t-14.5 -130q0 -146 57.5 -226.5t175.5 -80.5q37 0 73.5 8.5t68.5 24.5q10 5 18 -15l4 -10q5 -12 5 -17.5t-6 -8.5q-38 -20 -84 -30.5t-96 -10.5q-69 0 -122.5 26t-90.5 73t-56 113.5t-19 147.5q0 95 23 166.5t64 119
t96 71t120 23.5q45 0 89 -12t79 -34q5 -3 5 -7t-7 -17l-5 -11q-6 -12 -9.5 -14t-8.5 0q-39 18 -71.5 27t-67.5 9zM302 840q0 20 13 33.5t33 13.5t33.5 -13.5t13.5 -33.5t-13.5 -33t-33.5 -13t-33 13t-13 33z" />
    <glyph glyph-name="cdotaccent" unicode="&#x10b;" horiz-adv-x="483" 
d="M446 493q5 -4 5 -9t-7 -19l-4 -8q-7 -14 -11.5 -16.5t-11.5 1.5q-58 35 -122 35q-80 0 -129 -55.5t-49 -159.5q0 -42 9 -81t28.5 -68t51.5 -46.5t78 -17.5q36 0 69 7t62 23q7 4 11 0.5t9 -17.5l4 -11q5 -12 4.5 -16.5t-5.5 -7.5q-32 -18 -73.5 -27.5t-87.5 -9.5
q-58 0 -101.5 20.5t-72 56.5t-42.5 84.5t-14 104.5q0 69 18.5 121.5t51 88t77 54t96.5 18.5q88 0 156 -45zM245 680q0 20 13 33.5t33 13.5t33.5 -13.5t13.5 -33.5t-13.5 -33t-33.5 -13t-33 13t-13 33z" />
    <glyph glyph-name="Ccaron" unicode="&#x10c;" horiz-adv-x="564" 
d="M355 671q-59 0 -103.5 -22.5t-73.5 -63.5t-43.5 -99t-14.5 -130q0 -146 57.5 -226.5t175.5 -80.5q37 0 73.5 8.5t68.5 24.5q10 5 18 -15l4 -10q5 -12 5 -17.5t-6 -8.5q-38 -20 -84 -30.5t-96 -10.5q-69 0 -122.5 26t-90.5 73t-56 113.5t-19 147.5q0 95 23 166.5t64 119
t96 71t120 23.5q45 0 89 -12t79 -34q5 -3 5 -7t-7 -17l-5 -11q-6 -12 -9.5 -14t-8.5 0q-39 18 -71.5 27t-67.5 9zM211 898q-3 4 -2.5 6.5t6.5 9.5l5 6q6 7 9 8t7 -2l116 -97l116 97q4 3 7 2t9 -8l5 -6q6 -7 6 -9.5t-2 -6.5l-94 -100q-5 -5 -12 -7.5t-22 -2.5h-26
q-15 0 -22 2.5t-12 7.5z" />
    <glyph glyph-name="ccaron" unicode="&#x10d;" horiz-adv-x="483" 
d="M446 493q5 -4 5 -9t-7 -19l-4 -8q-7 -14 -11.5 -16.5t-11.5 1.5q-58 35 -122 35q-80 0 -129 -55.5t-49 -159.5q0 -42 9 -81t28.5 -68t51.5 -46.5t78 -17.5q36 0 69 7t62 23q7 4 11 0.5t9 -17.5l4 -11q5 -12 4.5 -16.5t-5.5 -7.5q-32 -18 -73.5 -27.5t-87.5 -9.5
q-58 0 -101.5 20.5t-72 56.5t-42.5 84.5t-14 104.5q0 69 18.5 121.5t51 88t77 54t96.5 18.5q88 0 156 -45zM278 583q-15 0 -22 2.5t-12 7.5l-94 100q-5 5 4 16l5 6q10 11 16 6l116 -97l116 97q6 5 16 -6l5 -6q9 -11 4 -16l-94 -100q-5 -5 -12 -7.5t-22 -2.5h-26z" />
    <glyph glyph-name="Dcaron" unicode="&#x10e;" horiz-adv-x="646" 
d="M244 720q98 0 161.5 -23.5t108.5 -70.5q85 -90 85 -263q0 -182 -93 -275q-44 -44 -107 -66t-154 -22h-163v720h162zM151 56h88q76 0 127 17.5t85 50.5q40 39 58 99t18 138q0 77 -18.5 135.5t-56.5 97.5q-17 18 -37.5 31t-46 21.5t-58 13t-73.5 4.5h-86v-608zM180 898
q-3 4 -2.5 6.5t6.5 9.5l5 6q6 7 9 8t7 -2l116 -97l116 97q4 3 7 2t9 -8l5 -6q6 -7 6 -9.5t-2 -6.5l-94 -100q-5 -5 -12 -7.5t-22 -2.5h-26q-15 0 -22 2.5t-12 7.5z" />
    <glyph glyph-name="dcaron" unicode="&#x10f;" horiz-adv-x="631" 
d="M527 50q5 0 6 -3t1 -18v-4q0 -14 -0.5 -17.5t-5.5 -5.5t-14.5 -3t-19.5 -1q-62 0 -68 66q-45 -74 -157 -74q-107 0 -164.5 69t-57.5 194q0 56 15 107.5t45 91t75 63t105 23.5q36 0 71.5 -11t61.5 -31v255q0 5 8 7t20 2h8q29 0 29 -9v-636q0 -22 2 -35t7 -19.5t13 -8.5
t20 -2zM420 430q-27 23 -58 35t-69 12q-40 0 -72.5 -15.5t-55.5 -44.5t-35.5 -70t-12.5 -91q0 -103 43.5 -155t116.5 -52q34 0 63 10.5t48 30.5q10 10 16.5 22.5t10 30.5t4.5 42t1 59v186zM537 518q-7 7 -1 13q17 17 33 41.5t16 45.5q0 13 -5.5 22t-11.5 16.5t-11.5 15.5
t-5.5 20q0 17 12 27.5t29 10.5q23 0 36 -16t13 -38q0 -47 -22 -91t-63 -76q-6 -4 -14 4z" />
    <glyph glyph-name="Dcroat" unicode="&#x110;" horiz-adv-x="652" 
d="M250 720q98 0 161.5 -23.5t108.5 -70.5q85 -90 85 -263q0 -182 -93 -275q-44 -44 -107 -66t-154 -22h-163v339h-58q-8 0 -8 25v3q0 14 1.5 18.5t6.5 4.5h58v330h162zM157 56h88q76 0 127 17.5t85 50.5q40 39 58 99t18 138q0 77 -18.5 135.5t-56.5 97.5q-17 18 -37.5 31
t-46 21.5t-58 13t-73.5 4.5h-86v-274h169q5 0 6.5 -4.5t1.5 -18.5v-3q0 -25 -8 -25h-169v-283z" />
    <glyph glyph-name="dcroat" unicode="&#x111;" horiz-adv-x="581" 
d="M420 669v82q0 5 8 7t20 2h8q29 0 29 -9v-82h67q5 0 6.5 -4.5t1.5 -18.5v-1q0 -25 -8 -25h-67v-505q0 -22 2 -35t7 -19.5t13 -8.5t20 -2q5 0 6 -3t1 -18v-4q0 -14 -0.5 -17.5t-5.5 -5.5t-14.5 -3t-19.5 -1q-62 0 -68 66q-45 -74 -157 -74q-107 0 -164.5 69t-57.5 194
q0 56 15 107.5t45 91t75 63t105 23.5q36 0 71.5 -11t61.5 -31v124h-160q-8 0 -8 25v1q0 14 1.5 18.5t6.5 4.5h160zM420 430q-27 23 -58 35t-69 12q-40 0 -72.5 -15.5t-55.5 -44.5t-35.5 -70t-12.5 -91q0 -103 43.5 -155t116.5 -52q34 0 63 10.5t48 30.5q10 10 16.5 22.5
t10 30.5t4.5 42t1 59v186z" />
    <glyph glyph-name="Emacron" unicode="&#x112;" horiz-adv-x="534" 
d="M82 0v720h386q5 0 7 -5t2 -21v-4q0 -17 -2 -22t-7 -5h-317v-270h269q5 0 7 -5t2 -21v-4q0 -17 -2 -22t-7 -5h-269v-279h321q5 0 7 -5t2 -21v-4q0 -17 -2 -22t-7 -5h-390zM409 874q5 0 6.5 -4.5t1.5 -18.5v-3q0 -25 -8 -25h-262q-8 0 -8 25v3q0 14 1.5 18.5t6.5 4.5h262z
" />
    <glyph glyph-name="emacron" unicode="&#x113;" horiz-adv-x="541" 
d="M117 243q4 -107 57 -152q23 -20 55 -30t71 -10q38 0 73 8t64 22q8 4 12 1.5t10 -17.5l4 -10q8 -21 -1 -26q-75 -39 -173 -39q-117 0 -179.5 70t-62.5 192q0 61 16 113.5t46.5 90.5t74.5 60t100 22q65 0 109 -29t69 -79q17 -35 25.5 -76t8.5 -86q0 -17 -3 -21t-11 -4h-365
zM429 295q-1 34 -9.5 67t-26.5 58.5t-45 41t-65 15.5q-32 0 -60 -10t-49.5 -31.5t-36 -56.5t-19.5 -84h311zM414 684q5 0 6.5 -4.5t1.5 -18.5v-3q0 -25 -8 -25h-262q-8 0 -8 25v3q0 14 1.5 18.5t6.5 4.5h262z" />
    <glyph glyph-name="Ebreve" unicode="&#x114;" horiz-adv-x="534" 
d="M82 0v720h386q5 0 7 -5t2 -21v-4q0 -17 -2 -22t-7 -5h-317v-270h269q5 0 7 -5t2 -21v-4q0 -17 -2 -22t-7 -5h-269v-279h321q5 0 7 -5t2 -21v-4q0 -17 -2 -22t-7 -5h-390zM281 795q-29 0 -53.5 7.5t-43 22t-29 35t-10.5 46.5q0 3 2.5 4.5t16.5 1.5h12q13 0 15.5 -1.5
t3.5 -8.5q4 -32 26 -49t60 -17t60 17t26 49q1 7 3.5 8.5t15.5 1.5h12q14 0 16.5 -1.5t2.5 -4.5q0 -26 -10.5 -46.5t-29 -35t-43.5 -22t-53 -7.5z" />
    <glyph glyph-name="ebreve" unicode="&#x115;" horiz-adv-x="541" 
d="M117 243q4 -107 57 -152q23 -20 55 -30t71 -10q38 0 73 8t64 22q8 4 12 1.5t10 -17.5l4 -10q8 -21 -1 -26q-75 -39 -173 -39q-117 0 -179.5 70t-62.5 192q0 61 16 113.5t46.5 90.5t74.5 60t100 22q65 0 109 -29t69 -79q17 -35 25.5 -76t8.5 -86q0 -17 -3 -21t-11 -4h-365
zM429 295q-1 34 -9.5 67t-26.5 58.5t-45 41t-65 15.5q-32 0 -60 -10t-49.5 -31.5t-36 -56.5t-19.5 -84h311zM285 595q-29 0 -53.5 7.5t-43 22t-29 35t-10.5 46.5q0 3 2.5 4.5t16.5 1.5h12q13 0 15.5 -1.5t3.5 -8.5q4 -32 26 -49t60 -17t60 17t26 49q1 7 3.5 8.5t15.5 1.5h12
q14 0 16.5 -1.5t2.5 -4.5q0 -26 -10.5 -46.5t-29 -35t-43.5 -22t-53 -7.5z" />
    <glyph glyph-name="Edotaccent" unicode="&#x116;" horiz-adv-x="534" 
d="M82 0v720h386q5 0 7 -5t2 -21v-4q0 -17 -2 -22t-7 -5h-317v-270h269q5 0 7 -5t2 -21v-4q0 -17 -2 -22t-7 -5h-269v-279h321q5 0 7 -5t2 -21v-4q0 -17 -2 -22t-7 -5h-390zM239 840q0 20 13 33.5t33 13.5t33.5 -13.5t13.5 -33.5t-13.5 -33t-33.5 -13t-33 13t-13 33z" />
    <glyph glyph-name="edotaccent" unicode="&#x117;" horiz-adv-x="541" 
d="M117 243q4 -107 57 -152q23 -20 55 -30t71 -10q38 0 73 8t64 22q8 4 12 1.5t10 -17.5l4 -10q8 -21 -1 -26q-75 -39 -173 -39q-117 0 -179.5 70t-62.5 192q0 61 16 113.5t46.5 90.5t74.5 60t100 22q65 0 109 -29t69 -79q17 -35 25.5 -76t8.5 -86q0 -17 -3 -21t-11 -4h-365
zM429 295q-1 34 -9.5 67t-26.5 58.5t-45 41t-65 15.5q-32 0 -60 -10t-49.5 -31.5t-36 -56.5t-19.5 -84h311zM239 680q0 20 13 33.5t33 13.5t33.5 -13.5t13.5 -33.5t-13.5 -33t-33.5 -13t-33 13t-13 33z" />
    <glyph glyph-name="Eogonek" unicode="&#x118;" horiz-adv-x="534" 
d="M472 0q-24 -3 -46 -13t-39.5 -27t-28 -39t-10.5 -49q0 -28 15.5 -42.5t40.5 -14.5q14 0 27 3t24 6q3 1 5.5 -1.5t4.5 -12.5l1 -5q3 -16 -2 -18q-35 -16 -73 -16q-41 0 -70.5 24t-29.5 74q0 36 22.5 72t61.5 59h-293v720h386q5 0 7 -5t2 -21v-4q0 -17 -2 -22t-7 -5h-317
v-270h269q5 0 7 -5t2 -21v-4q0 -17 -2 -22t-7 -5h-269v-279h321q5 0 7 -5t2 -21v-4q0 -16 -2 -21t-7 -6z" />
    <glyph glyph-name="eogonek" unicode="&#x119;" horiz-adv-x="541" 
d="M444 -213q-35 -16 -73 -16q-41 0 -70.5 25.5t-29.5 73.5q0 35 18.5 67.5t48.5 55.5q-24 -3 -49 -3q-117 0 -179.5 70t-62.5 192q0 61 16 113.5t46.5 90.5t74.5 60t100 22q65 0 109 -29t69 -79q17 -35 25.5 -76t8.5 -86q0 -17 -3 -21t-11 -4h-365q4 -107 57 -152
q23 -20 55 -30t71 -10q38 0 73 8t64 22q8 4 12 1.5t10 -17.5l4 -10q8 -21 -1 -26q-57 -28 -95.5 -66.5t-38.5 -87.5q0 -28 15.5 -44t42.5 -16q13 0 25.5 3t23.5 6q3 1 5.5 -1.5t4.5 -12.5l1 -5q3 -16 -2 -18zM429 295q-1 34 -9.5 67t-26.5 58.5t-45 41t-65 15.5
q-32 0 -60 -10t-49.5 -31.5t-36 -56.5t-19.5 -84h311z" />
    <glyph glyph-name="Ecaron" unicode="&#x11a;" horiz-adv-x="534" 
d="M82 0v720h386q5 0 7 -5t2 -21v-4q0 -17 -2 -22t-7 -5h-317v-270h269q5 0 7 -5t2 -21v-4q0 -17 -2 -22t-7 -5h-269v-279h321q5 0 7 -5t2 -21v-4q0 -17 -2 -22t-7 -5h-390zM146 898q-3 4 -2.5 6.5t6.5 9.5l5 6q6 7 9 8t7 -2l116 -97l116 97q4 3 7 2t9 -8l5 -6q6 -7 6 -9.5
t-2 -6.5l-94 -100q-5 -5 -12 -7.5t-22 -2.5h-26q-15 0 -22 2.5t-12 7.5z" />
    <glyph glyph-name="ecaron" unicode="&#x11b;" horiz-adv-x="541" 
d="M117 243q4 -107 57 -152q23 -20 55 -30t71 -10q38 0 73 8t64 22q8 4 12 1.5t10 -17.5l4 -10q8 -21 -1 -26q-75 -39 -173 -39q-117 0 -179.5 70t-62.5 192q0 61 16 113.5t46.5 90.5t74.5 60t100 22q65 0 109 -29t69 -79q17 -35 25.5 -76t8.5 -86q0 -17 -3 -21t-11 -4h-365
zM429 295q-1 34 -9.5 67t-26.5 58.5t-45 41t-65 15.5q-32 0 -60 -10t-49.5 -31.5t-36 -56.5t-19.5 -84h311zM271 583q-15 0 -22 2.5t-12 7.5l-94 100q-5 5 4 16l5 6q10 11 16 6l116 -97l116 97q6 5 16 -6l5 -6q9 -11 4 -16l-94 -100q-5 -5 -12 -7.5t-22 -2.5h-26z" />
    <glyph glyph-name="Gcircumflex" unicode="&#x11c;" horiz-adv-x="636" 
d="M525 625q-44 24 -82.5 35t-84.5 11q-60 0 -105 -22.5t-74.5 -63.5t-44.5 -98.5t-15 -127.5q0 -68 14 -125t43.5 -98.5t76 -64.5t112.5 -23q37 0 74 7.5t66 19.5v243h-163q-5 0 -7 5t-2 21v4q0 17 2 22t7 5h230v-337q-49 -21 -102 -34.5t-109 -13.5q-72 0 -126 21.5
t-92 59.5q-48 48 -72 120t-24 163q0 87 21.5 156.5t62 118.5t98 75t129.5 26q58 0 106.5 -15t85.5 -41q5 -3 4 -8t-6 -16l-5 -11q-5 -11 -9 -14t-9 0zM371 921q15 0 22 -2.5t12 -7.5l94 -100q5 -5 -4 -16l-5 -6q-10 -11 -16 -6l-116 97l-116 -97q-6 -5 -16 6l-5 6
q-9 11 -4 16l94 100q5 5 12 7.5t22 2.5h26z" />
    <glyph glyph-name="gcircumflex" unicode="&#x11d;" horiz-adv-x="561" 
d="M484 519q1 -20 1.5 -49t0.5 -63l2 -70v-70v-174q0 -66 -4.5 -111.5t-15.5 -82.5q-23 -72 -80 -108t-139 -36q-38 0 -76 7.5t-63 18.5q-5 2 -6 7t4 21l2 6q6 17 9 20.5t11 0.5q26 -11 54.5 -16t64.5 -5q69 0 112 31t56 97q3 20 4.5 54t1.5 69q-63 -66 -165 -66
q-53 0 -92.5 19.5t-65.5 54t-39.5 82t-13.5 102.5q0 65 17.5 117t48 88t72.5 55.5t92 19.5q45 0 82 -15t63 -52l1 48q0 5 5.5 7t22.5 2h4q20 0 24.5 -2t4.5 -7zM423 284q0 54 -3 81t-14 47q-14 27 -44 45t-76 18q-84 0 -126.5 -58t-42.5 -155q0 -98 39 -150t119 -52
q44 0 82.5 20t65.5 52v152zM293 729q15 0 22 -2.5t12 -7.5l94 -100q5 -5 -4 -16l-5 -6q-10 -11 -16 -6l-116 97l-116 -97q-6 -5 -16 6l-5 6q-9 11 -4 16l94 100q5 5 12 7.5t22 2.5h26z" />
    <glyph glyph-name="Gbreve" unicode="&#x11e;" horiz-adv-x="636" 
d="M525 625q-44 24 -82.5 35t-84.5 11q-60 0 -105 -22.5t-74.5 -63.5t-44.5 -98.5t-15 -127.5q0 -68 14 -125t43.5 -98.5t76 -64.5t112.5 -23q37 0 74 7.5t66 19.5v243h-163q-5 0 -7 5t-2 21v4q0 17 2 22t7 5h230v-337q-49 -21 -102 -34.5t-109 -13.5q-72 0 -126 21.5
t-92 59.5q-48 48 -72 120t-24 163q0 87 21.5 156.5t62 118.5t98 75t129.5 26q58 0 106.5 -15t85.5 -41q5 -3 4 -8t-6 -16l-5 -11q-5 -11 -9 -14t-9 0zM358 795q-29 0 -53.5 7.5t-43 22t-29 35t-10.5 46.5q0 3 2.5 4.5t16.5 1.5h12q13 0 15.5 -1.5t3.5 -8.5q4 -32 26 -49
t60 -17t60 17t26 49q1 7 3.5 8.5t15.5 1.5h12q14 0 16.5 -1.5t2.5 -4.5q0 -26 -10.5 -46.5t-29 -35t-43.5 -22t-53 -7.5z" />
    <glyph glyph-name="gbreve" unicode="&#x11f;" horiz-adv-x="561" 
d="M484 519q1 -20 1.5 -49t0.5 -63l2 -70v-70v-174q0 -66 -4.5 -111.5t-15.5 -82.5q-23 -72 -80 -108t-139 -36q-38 0 -76 7.5t-63 18.5q-5 2 -6 7t4 21l2 6q6 17 9 20.5t11 0.5q26 -11 54.5 -16t64.5 -5q69 0 112 31t56 97q3 20 4.5 54t1.5 69q-63 -66 -165 -66
q-53 0 -92.5 19.5t-65.5 54t-39.5 82t-13.5 102.5q0 65 17.5 117t48 88t72.5 55.5t92 19.5q45 0 82 -15t63 -52l1 48q0 5 5.5 7t22.5 2h4q20 0 24.5 -2t4.5 -7zM423 284q0 54 -3 81t-14 47q-14 27 -44 45t-76 18q-84 0 -126.5 -58t-42.5 -155q0 -98 39 -150t119 -52
q44 0 82.5 20t65.5 52v152zM280 595q-29 0 -53.5 7.5t-43 22t-29 35t-10.5 46.5q0 3 2.5 4.5t16.5 1.5h12q13 0 15.5 -1.5t3.5 -8.5q4 -32 26 -49t60 -17t60 17t26 49q1 7 3.5 8.5t15.5 1.5h12q14 0 16.5 -1.5t2.5 -4.5q0 -26 -10.5 -46.5t-29 -35t-43.5 -22t-53 -7.5z" />
    <glyph glyph-name="Gdotaccent" unicode="&#x120;" horiz-adv-x="636" 
d="M525 625q-44 24 -82.5 35t-84.5 11q-60 0 -105 -22.5t-74.5 -63.5t-44.5 -98.5t-15 -127.5q0 -68 14 -125t43.5 -98.5t76 -64.5t112.5 -23q37 0 74 7.5t66 19.5v243h-163q-5 0 -7 5t-2 21v4q0 17 2 22t7 5h230v-337q-49 -21 -102 -34.5t-109 -13.5q-72 0 -126 21.5
t-92 59.5q-48 48 -72 120t-24 163q0 87 21.5 156.5t62 118.5t98 75t129.5 26q58 0 106.5 -15t85.5 -41q5 -3 4 -8t-6 -16l-5 -11q-5 -11 -9 -14t-9 0zM311 840q0 20 13 33.5t33 13.5t33.5 -13.5t13.5 -33.5t-13.5 -33t-33.5 -13t-33 13t-13 33z" />
    <glyph glyph-name="gdotaccent" unicode="&#x121;" horiz-adv-x="561" 
d="M484 519q1 -20 1.5 -49t0.5 -63l2 -70v-70v-174q0 -66 -4.5 -111.5t-15.5 -82.5q-23 -72 -80 -108t-139 -36q-38 0 -76 7.5t-63 18.5q-5 2 -6 7t4 21l2 6q6 17 9 20.5t11 0.5q26 -11 54.5 -16t64.5 -5q69 0 112 31t56 97q3 20 4.5 54t1.5 69q-63 -66 -165 -66
q-53 0 -92.5 19.5t-65.5 54t-39.5 82t-13.5 102.5q0 65 17.5 117t48 88t72.5 55.5t92 19.5q45 0 82 -15t63 -52l1 48q0 5 5.5 7t22.5 2h4q20 0 24.5 -2t4.5 -7zM423 284q0 54 -3 81t-14 47q-14 27 -44 45t-76 18q-84 0 -126.5 -58t-42.5 -155q0 -98 39 -150t119 -52
q44 0 82.5 20t65.5 52v152zM237 680q0 20 13 33.5t33 13.5t33.5 -13.5t13.5 -33.5t-13.5 -33t-33.5 -13t-33 13t-13 33z" />
    <glyph glyph-name="Gcommaaccent" unicode="&#x122;" horiz-adv-x="636" 
d="M525 625q-44 24 -82.5 35t-84.5 11q-60 0 -105 -22.5t-74.5 -63.5t-44.5 -98.5t-15 -127.5q0 -68 14 -125t43.5 -98.5t76 -64.5t112.5 -23q37 0 74 7.5t66 19.5v243h-163q-5 0 -7 5t-2 21v4q0 17 2 22t7 5h230v-337q-49 -21 -102 -34.5t-109 -13.5q-72 0 -126 21.5
t-92 59.5q-48 48 -72 120t-24 163q0 87 21.5 156.5t62 118.5t98 75t129.5 26q58 0 106.5 -15t85.5 -41q5 -3 4 -8t-6 -16l-5 -11q-5 -11 -9 -14t-9 0zM307 -265q-7 7 -1 13q17 17 33 41.5t16 45.5q0 13 -5.5 22t-11.5 16.5t-11.5 15.5t-5.5 20q0 17 12 27.5t29 10.5
q23 0 36 -16t13 -38q0 -47 -22 -91t-63 -76q-6 -4 -14 4z" />
    <glyph glyph-name="gcommaaccent" unicode="&#x123;" horiz-adv-x="561" 
d="M331 814q7 -7 1 -13q-17 -17 -33 -41.5t-16 -45.5q0 -14 5.5 -22.5t11.5 -16t11.5 -15.5t5.5 -20q0 -17 -12 -27.5t-29 -10.5q-23 0 -36 16t-13 38q0 47 22 91t63 76q6 4 14 -4zM484 519q1 -20 1.5 -49t0.5 -63l2 -70v-70v-174q0 -66 -4.5 -111.5t-15.5 -82.5
q-23 -72 -80 -108t-139 -36q-38 0 -76 7.5t-63 18.5q-5 2 -6 7t4 21l2 6q6 17 9 20.5t11 0.5q26 -11 54.5 -16t64.5 -5q69 0 112 31t56 97q3 20 4.5 54t1.5 69q-63 -66 -165 -66q-53 0 -92.5 19.5t-65.5 54t-39.5 82t-13.5 102.5q0 65 17.5 117t48 88t72.5 55.5t92 19.5
q45 0 82 -15t63 -52l1 48q0 5 5.5 7t22.5 2h4q20 0 24.5 -2t4.5 -7zM423 284q0 54 -3 81t-14 47q-14 27 -44 45t-76 18q-84 0 -126.5 -58t-42.5 -155q0 -98 39 -150t119 -52q44 0 82.5 20t65.5 52v152z" />
    <glyph glyph-name="Hcircumflex" unicode="&#x124;" horiz-adv-x="656" 
d="M82 711q0 9 29 9h8q32 0 32 -9v-318h354v318q0 9 29 9h8q32 0 32 -9v-702q0 -9 -32 -9h-8q-29 0 -29 9v327h-354v-327q0 -9 -32 -9h-8q-29 0 -29 9v702zM341 921q15 0 22 -2.5t12 -7.5l94 -100q5 -5 -4 -16l-5 -6q-10 -11 -16 -6l-116 97l-116 -97q-6 -5 -16 6l-5 6
q-9 11 -4 16l94 100q5 5 12 7.5t22 2.5h26z" />
    <glyph glyph-name="hcircumflex" unicode="&#x125;" horiz-adv-x="580" 
d="M143 457q28 39 71 60t102 21q93 0 143 -52q26 -26 37.5 -66.5t11.5 -101.5v-307q0 -5 -5.5 -8t-22.5 -3h-8q-18 0 -23.5 3t-5.5 8v262q0 33 -1 57.5t-4.5 44t-10 34.5t-16.5 27q-17 20 -45.5 29t-65.5 9q-42 0 -71.5 -12.5t-52.5 -36.5q-12 -14 -20 -33t-10 -39
q-2 -22 -2.5 -60.5t-0.5 -84.5v-197q0 -5 -6 -8t-22 -3h-8q-18 0 -23.5 3t-5.5 8v740q0 5 8 7t20 2h8q29 0 29 -9v-294zM125 902q15 0 22 -2.5t12 -7.5l94 -100q5 -5 -4 -16l-5 -6q-10 -11 -16 -6l-116 97l-116 -97q-6 -5 -16 6l-5 6q-9 11 -4 16l94 100q5 5 12 7.5t22 2.5
h26z" />
    <glyph glyph-name="Hbar" unicode="&#x126;" horiz-adv-x="668" 
d="M88 543h-58q-8 0 -8 25v3q0 14 1.5 18.5t6.5 4.5h58v117q0 9 29 9h8q32 0 32 -9v-117h354v117q0 9 29 9h8q32 0 32 -9v-117h58q5 0 6.5 -4.5t1.5 -18.5v-3q0 -25 -8 -25h-58v-534q0 -9 -32 -9h-8q-29 0 -29 9v327h-354v-327q0 -9 -32 -9h-8q-29 0 -29 9v534zM511 393v150
h-354v-150h354z" />
    <glyph glyph-name="hbar" unicode="&#x127;" horiz-adv-x="580" 
d="M143 669h160q5 0 6.5 -4.5t1.5 -18.5v-1q0 -25 -8 -25h-160v-163q28 39 71 60t102 21q93 0 143 -52q26 -26 37.5 -66.5t11.5 -101.5v-307q0 -5 -5.5 -8t-22.5 -3h-8q-18 0 -23.5 3t-5.5 8v262q0 33 -1 57.5t-4.5 44t-10 34.5t-16.5 27q-17 20 -45.5 29t-65.5 9
q-42 0 -71.5 -12.5t-52.5 -36.5q-12 -14 -20 -33t-10 -39q-2 -22 -2.5 -60.5t-0.5 -84.5v-197q0 -5 -6 -8t-22 -3h-8q-18 0 -23.5 3t-5.5 8v609h-67q-8 0 -8 25v1q0 14 1.5 18.5t6.5 4.5h67v82q0 5 8 7t20 2h8q29 0 29 -9v-82z" />
    <glyph glyph-name="Itilde" unicode="&#x128;" horiz-adv-x="365" 
d="M73 0q-5 0 -7 3.5t-2 17.5v4q0 15 2 18.5t7 3.5h75v626h-75q-5 0 -7 3.5t-2 17.5v4q0 15 2 18.5t7 3.5h219q5 0 7 -3.5t2 -18.5v-4q0 -14 -2 -17.5t-7 -3.5h-75v-626h75q5 0 7 -3.5t2 -18.5v-4q0 -14 -2 -17.5t-7 -3.5h-219zM332 857q-14 -17 -38 -30.5t-50 -13.5
q-21 0 -37 6t-30.5 13t-29 13t-31.5 6q-16 0 -28.5 -7t-29.5 -23q-6 -5 -16 8l-8 10q-7 10 -2 16q14 17 38 30.5t50 13.5q21 0 37 -6t30.5 -13t29 -13t31.5 -6q16 0 28.5 7t29.5 23q3 2 6.5 1t9.5 -9l8 -10q7 -10 2 -16z" />
    <glyph glyph-name="itilde" unicode="&#x129;" horiz-adv-x="222" 
d="M78 519q0 5 6 7t22 2h8q17 0 23 -2t6 -7v-509q0 -5 -5.5 -7.5t-22.5 -2.5h-8q-18 0 -23.5 2.5t-5.5 7.5v509zM262 665q-14 -17 -38 -30.5t-50 -13.5q-21 0 -37 6t-30.5 13t-29 13t-31.5 6q-16 0 -28.5 -7t-29.5 -23q-6 -5 -16 8l-8 10q-7 10 -2 16q14 17 38 30.5t50 13.5
q21 0 37 -6t30.5 -13t29 -13t31.5 -6q16 0 28.5 7t29.5 23q3 2 6.5 1t9.5 -9l8 -10q7 -10 2 -16z" />
    <glyph glyph-name="Imacron" unicode="&#x12a;" horiz-adv-x="365" 
d="M73 0q-5 0 -7 3.5t-2 17.5v4q0 15 2 18.5t7 3.5h75v626h-75q-5 0 -7 3.5t-2 17.5v4q0 15 2 18.5t7 3.5h219q5 0 7 -3.5t2 -18.5v-4q0 -14 -2 -17.5t-7 -3.5h-75v-626h75q5 0 7 -3.5t2 -18.5v-4q0 -14 -2 -17.5t-7 -3.5h-219zM313 874q5 0 6.5 -4.5t1.5 -18.5v-3
q0 -25 -8 -25h-262q-8 0 -8 25v3q0 14 1.5 18.5t6.5 4.5h262z" />
    <glyph glyph-name="imacron" unicode="&#x12b;" horiz-adv-x="222" 
d="M78 519q0 5 6 7t22 2h8q17 0 23 -2t6 -7v-509q0 -5 -5.5 -7.5t-22.5 -2.5h-8q-18 0 -23.5 2.5t-5.5 7.5v509zM243 684q5 0 6.5 -4.5t1.5 -18.5v-3q0 -25 -8 -25h-262q-8 0 -8 25v3q0 14 1.5 18.5t6.5 4.5h262z" />
    <glyph glyph-name="Ibreve" unicode="&#x12c;" horiz-adv-x="365" 
d="M73 0q-5 0 -7 3.5t-2 17.5v4q0 15 2 18.5t7 3.5h75v626h-75q-5 0 -7 3.5t-2 17.5v4q0 15 2 18.5t7 3.5h219q5 0 7 -3.5t2 -18.5v-4q0 -14 -2 -17.5t-7 -3.5h-75v-626h75q5 0 7 -3.5t2 -18.5v-4q0 -14 -2 -17.5t-7 -3.5h-219zM182 795q-29 0 -53.5 7.5t-43 22t-29 35
t-10.5 46.5q0 3 2.5 4.5t16.5 1.5h12q13 0 15.5 -1.5t3.5 -8.5q4 -32 26 -49t60 -17t60 17t26 49q1 7 3.5 8.5t15.5 1.5h12q14 0 16.5 -1.5t2.5 -4.5q0 -26 -10.5 -46.5t-29 -35t-43.5 -22t-53 -7.5z" />
    <glyph glyph-name="ibreve" unicode="&#x12d;" horiz-adv-x="222" 
d="M78 519q0 5 6 7t22 2h8q17 0 23 -2t6 -7v-509q0 -5 -5.5 -7.5t-22.5 -2.5h-8q-18 0 -23.5 2.5t-5.5 7.5v509zM112 595q-29 0 -53.5 7.5t-43 22t-29 35t-10.5 46.5q0 3 2.5 4.5t16.5 1.5h12q13 0 15.5 -1.5t3.5 -8.5q4 -32 26 -49t60 -17t60 17t26 49q1 7 3.5 8.5
t15.5 1.5h12q14 0 16.5 -1.5t2.5 -4.5q0 -26 -10.5 -46.5t-29 -35t-43.5 -22t-53 -7.5z" />
    <glyph glyph-name="Iogonek" unicode="&#x12e;" horiz-adv-x="365" 
d="M73 0q-5 0 -7 3.5t-2 17.5v4q0 15 2 18.5t7 3.5h75v626h-75q-5 0 -7 3.5t-2 17.5v4q0 15 2 18.5t7 3.5h219q5 0 7 -3.5t2 -18.5v-4q0 -14 -2 -17.5t-7 -3.5h-75v-626h75q5 0 7 -3.5t2 -18.5v-4q0 -14 -2 -17.5t-7 -3.5h-7q-32 0 -57 -12t-43 -34q-14 -17 -22.5 -38.5
t-8.5 -43.5q0 -57 54 -57q14 0 28 3t25 6q3 1 5.5 -1.5t4.5 -12.5l1 -5q3 -16 -2 -18q-35 -16 -73 -16q-41 0 -70.5 24t-29.5 74q0 36 21 72.5t62 58.5h-107z" />
    <glyph glyph-name="iogonek" unicode="&#x12f;" horiz-adv-x="221" 
d="M7 -133q0 42 21 75t50 58v519q0 5 6 7t22 2h8q17 0 23 -2t6 -7v-501q0 -5 -1.5 -8.5t-7.5 -9.5q-29 -29 -49.5 -59t-20.5 -69q0 -28 15.5 -42.5t42.5 -14.5q13 0 25.5 3t23.5 6q3 1 5.5 -1.5t4.5 -12.5l1 -5q3 -16 -2 -18q-35 -16 -73 -16q-41 0 -70.5 25t-29.5 71z
M59 710q0 23 15.5 38.5t36.5 15.5t36.5 -15.5t15.5 -38.5t-15.5 -38t-36.5 -15t-36.5 15t-15.5 38z" />
    <glyph glyph-name="Idotaccent" unicode="&#x130;" horiz-adv-x="365" 
d="M73 0q-5 0 -7 3.5t-2 17.5v4q0 15 2 18.5t7 3.5h75v626h-75q-5 0 -7 3.5t-2 17.5v4q0 15 2 18.5t7 3.5h219q5 0 7 -3.5t2 -18.5v-4q0 -14 -2 -17.5t-7 -3.5h-75v-626h75q5 0 7 -3.5t2 -18.5v-4q0 -14 -2 -17.5t-7 -3.5h-219zM136 840q0 20 13 33.5t33 13.5t33.5 -13.5
t13.5 -33.5t-13.5 -33t-33.5 -13t-33 13t-13 33z" />
    <glyph glyph-name="dotlessi" unicode="&#x131;" horiz-adv-x="222" 
d="M78 519q0 5 6 7t22 2h8q17 0 23 -2t6 -7v-509q0 -5 -5.5 -7.5t-22.5 -2.5h-8q-18 0 -23.5 2.5t-5.5 7.5v509z" />
    <glyph glyph-name="IJ" unicode="&#x132;" horiz-adv-x="803" 
d="M73 0q-5 0 -7 3.5t-2 17.5v4q0 15 2 18.5t7 3.5h75v626h-75q-5 0 -7 3.5t-2 17.5v4q0 15 2 18.5t7 3.5h219q5 0 7 -3.5t2 -18.5v-4q0 -14 -2 -17.5t-7 -3.5h-75v-626h75q5 0 7 -3.5t2 -18.5v-4q0 -14 -2 -17.5t-7 -3.5h-219zM697 720q32 0 32 -9v-516q0 -53 -11.5 -90.5
t-37.5 -64.5q-23 -24 -58.5 -37t-77.5 -13t-80.5 11t-67.5 31q-7 5 -7 9.5t6 16.5l5 10q6 11 10 14t12 -1q32 -16 60 -24.5t56 -8.5q29 0 53.5 10t38.5 27q30 37 30 126v500q0 9 29 9h8z" />
    <glyph glyph-name="ij" unicode="&#x133;" horiz-adv-x="467" 
d="M59 710q0 23 15.5 38.5t36.5 15.5t36.5 -15.5t15.5 -38.5t-15.5 -38t-36.5 -15t-36.5 15t-15.5 38zM78 519q0 5 6 7t22 2h8q17 0 23 -2t6 -7v-509q0 -5 -5.5 -7.5t-22.5 -2.5h-8q-18 0 -23.5 2.5t-5.5 7.5v509zM304 710q0 23 15.5 38.5t36.5 15.5t36.5 -15.5t15.5 -38.5
t-15.5 -38t-36.5 -15t-36.5 15t-15.5 38zM388 -9q0 -128 -46 -182t-133 -54q-18 0 -36 3t-29 8q-4 3 -4 10q0 5 1 14l1 6q2 14 4 18.5t7 2.5q11 -3 23 -5t27 -2q67 0 93.5 41t26.5 138v530q0 9 28 9h8q17 0 23 -2t6 -7v-528z" />
    <glyph glyph-name="Jcircumflex" unicode="&#x134;" horiz-adv-x="438" 
d="M332 720q32 0 32 -9v-516q0 -53 -11.5 -90.5t-37.5 -64.5q-23 -24 -58.5 -37t-77.5 -13t-80.5 11t-67.5 31q-7 5 -7 9.5t6 16.5l5 10q6 11 10 14t12 -1q32 -16 60 -24.5t56 -8.5q29 0 53.5 10t38.5 27q30 37 30 126v500q0 9 29 9h8zM342 921q15 0 22 -2.5t12 -7.5
l94 -100q5 -5 -4 -16l-5 -6q-10 -11 -16 -6l-116 97l-116 -97q-6 -5 -16 6l-5 6q-9 11 -4 16l94 100q5 5 12 7.5t22 2.5h26z" />
    <glyph glyph-name="jcircumflex" unicode="&#x135;" horiz-adv-x="246" 
d="M167 -9q0 -128 -46 -182t-133 -54q-18 0 -36 3t-29 8q-3 2 -4 6t1 18l1 6q2 14 4 18.5t7 2.5q11 -3 23 -5t27 -2q67 0 93.5 41t26.5 138v530q0 9 28 9h8q17 0 23 -2t6 -7v-528zM149 729q15 0 22 -2.5t12 -7.5l94 -100q5 -5 -4 -16l-5 -6q-10 -11 -16 -6l-116 97l-116 -97
q-6 -5 -16 6l-5 6q-9 11 -4 16l94 100q5 5 12 7.5t22 2.5h26z" />
    <glyph glyph-name="Kcommaaccent" unicode="&#x136;" horiz-adv-x="571" 
d="M82 711q0 9 29 9h8q32 0 32 -9v-375l103 110q78 83 126.5 149.5t73.5 116.5q2 5 6 6.5t21 1.5h14q14 0 18.5 -2t2.5 -8q-23 -55 -77.5 -130t-136.5 -160l244 -407q2 -3 2 -6q0 -2 -2 -3q-3 -4 -23 -4h-16q-22 0 -28 2t-10 8l-214 361l-104 -108v-254q0 -9 -32 -9h-8
q-29 0 -29 9v702zM253 -265q-7 7 -1 13q17 17 33 41.5t16 45.5q0 13 -5.5 22t-11.5 16.5t-11.5 15.5t-5.5 20q0 17 12 27.5t29 10.5q23 0 36 -16t13 -38q0 -47 -22 -91t-63 -76q-6 -4 -14 4z" />
    <glyph glyph-name="kcommaaccent" unicode="&#x137;" horiz-adv-x="478" 
d="M107 0q-29 0 -29 9v742q0 5 8 7t20 2h8q29 0 29 -9v-462l58 50q45 38 88 84.5t78 94.5q4 5 11 7.5t25 2.5h5q20 0 25.5 -2t0.5 -9q-12 -18 -29.5 -40.5t-39.5 -48.5l-47 -52q-26 -27 -54 -53l190 -309q3 -4 3 -7t-5 -5q-7 -2 -25 -2h-4q-13 0 -20 0.5t-11 1.5t-6 3.5
t-4 5.5l-166 271l-73 -63v-210q0 -5 -8 -7t-20 -2h-8zM205 -265q-7 7 -1 13q17 17 33 41.5t16 45.5q0 13 -5.5 22t-11.5 16.5t-11.5 15.5t-5.5 20q0 17 12 27.5t29 10.5q23 0 36 -16t13 -38q0 -47 -22 -91t-63 -76q-6 -4 -14 4z" />
    <glyph glyph-name="kgreenlandic" unicode="&#x138;" horiz-adv-x="478" 
d="M107 0q-29 0 -29 9v510q0 5 8 7t20 2h8q29 0 29 -9v-230l58 50q45 38 88 84.5t78 94.5q4 5 11 7.5t25 2.5h5q20 0 25.5 -2t0.5 -9q-12 -18 -29.5 -40.5t-39.5 -48.5l-47 -52q-26 -27 -54 -53l190 -309q6 -9 -1.5 -11.5t-25.5 -2.5h-4q-13 0 -20 0.5t-11 1.5t-6 3.5
t-4 5.5l-166 271l-73 -63v-210q0 -5 -8 -7t-20 -2h-8z" />
    <glyph glyph-name="Lacute" unicode="&#x139;" horiz-adv-x="495" 
d="M151 57h297q5 0 7 -5t2 -21v-4q0 -17 -2 -22t-7 -5h-338q-18 0 -23 2.5t-5 8.5v700q0 9 29 9h8q32 0 32 -9v-654zM193 913q17 0 21 -2.5t0 -7.5l-88 -119q-3 -4 -8 -5t-19 -1h-4q-24 0 -20 7l67 118q3 5 9.5 7.5t26.5 2.5h15z" />
    <glyph glyph-name="lacute" unicode="&#x13a;" horiz-adv-x="245" 
d="M136 112q0 -33 6.5 -47t29.5 -14q6 0 10.5 0.5t9.5 1.5q4 1 5.5 -2t3.5 -16l1 -7q1 -6 1 -10t-1 -6q-1 -4 -9 -6q-10 -3 -21 -4.5t-20 -1.5q-19 0 -36.5 5.5t-29.5 22.5q-8 13 -11.5 37.5t-3.5 66.5v351v80q0 36 -0.5 68t-1.5 61l-2 59q0 5 6 7t22 2h8q17 0 23 -2t6 -7
q1 -22 2 -55t1.5 -72.5t0.5 -81.5v-82v-348zM171 925q17 0 21 -2.5t0 -7.5l-88 -119q-3 -4 -8 -5t-19 -1h-4q-24 0 -20 7l67 118q3 5 9.5 7.5t26.5 2.5h15z" />
    <glyph glyph-name="Lcommaaccent" unicode="&#x13b;" horiz-adv-x="495" 
d="M151 57h297q5 0 7 -5t2 -21v-4q0 -17 -2 -22t-7 -5h-338q-18 0 -23 2.5t-5 8.5v700q0 9 29 9h8q32 0 32 -9v-654zM221 -265q-7 7 -1 13q17 17 33 41.5t16 45.5q0 13 -5.5 22t-11.5 16.5t-11.5 15.5t-5.5 20q0 17 12 27.5t29 10.5q23 0 36 -16t13 -38q0 -47 -22 -91
t-63 -76q-6 -4 -14 4z" />
    <glyph glyph-name="lcommaaccent" unicode="&#x13c;" horiz-adv-x="245" 
d="M136 112q0 -33 6.5 -47t29.5 -14q6 0 10.5 0.5t9.5 1.5q4 1 5.5 -2t3.5 -16l1 -7q1 -6 1 -10t-1 -6q-1 -4 -9 -6q-10 -3 -21 -4.5t-20 -1.5q-19 0 -36.5 5.5t-29.5 22.5q-8 13 -11.5 37.5t-3.5 66.5v351v80q0 36 -0.5 68t-1.5 61l-2 59q0 5 6 7t22 2h8q17 0 23 -2t6 -7
q1 -22 2 -55t1.5 -72.5t0.5 -81.5v-82v-348zM75 -265q-7 7 -1 13q17 17 33 41.5t16 45.5q0 13 -5.5 22t-11.5 16.5t-11.5 15.5t-5.5 20q0 17 12 27.5t29 10.5q23 0 36 -16t13 -38q0 -47 -22 -91t-63 -76q-6 -4 -14 4z" />
    <glyph glyph-name="Lcaron" unicode="&#x13d;" horiz-adv-x="495" 
d="M151 57h297q5 0 7 -5t2 -21v-4q0 -17 -2 -22t-7 -5h-338q-18 0 -23 2.5t-5 8.5v700q0 9 29 9h8q32 0 32 -9v-654zM237 528q-7 7 -1 13q17 17 33 41.5t16 45.5q0 13 -5.5 22t-11.5 16.5t-11.5 15.5t-5.5 20q0 17 12 27.5t29 10.5q23 0 36 -16t13 -38q0 -47 -22 -91
t-63 -76q-6 -4 -14 4z" />
    <glyph glyph-name="lcaron" unicode="&#x13e;" horiz-adv-x="282" 
d="M136 112q0 -33 6.5 -47t29.5 -14q6 0 10.5 0.5t9.5 1.5q4 1 5.5 -2t3.5 -16l1 -7q1 -6 1 -10t-1 -6q-1 -4 -9 -6q-10 -3 -21 -4.5t-20 -1.5q-19 0 -36.5 5.5t-29.5 22.5q-8 13 -11.5 37.5t-3.5 66.5v351v80q0 36 -0.5 68t-1.5 61l-2 59q0 5 6 7t22 2h8q17 0 23 -2t6 -7
q1 -22 2 -55t1.5 -72.5t0.5 -81.5v-82v-348zM188 518q-7 7 -1 13q17 17 33 41.5t16 45.5q0 13 -5.5 22t-11.5 16.5t-11.5 15.5t-5.5 20q0 17 12 27.5t29 10.5q23 0 36 -16t13 -38q0 -47 -22 -91t-63 -76q-6 -4 -14 4z" />
    <glyph glyph-name="Ldot" unicode="&#x13f;" horiz-adv-x="495" 
d="M151 57h297q5 0 7 -5t2 -21v-4q0 -17 -2 -22t-7 -5h-338q-18 0 -23 2.5t-5 8.5v700q0 9 29 9h8q32 0 32 -9v-654zM271 384q0 20 13 33.5t33 13.5t33.5 -13.5t13.5 -33.5t-13.5 -33t-33.5 -13t-33 13t-13 33z" />
    <glyph glyph-name="ldot" unicode="&#x140;" horiz-adv-x="293" 
d="M136 112q0 -33 6.5 -47t29.5 -14q6 0 10.5 0.5t9.5 1.5q4 1 5.5 -2t3.5 -16l1 -7q1 -6 1 -10t-1 -6q-1 -4 -9 -6q-10 -3 -21 -4.5t-20 -1.5q-19 0 -36.5 5.5t-29.5 22.5q-8 13 -11.5 37.5t-3.5 66.5v351v80q0 36 -0.5 68t-1.5 61l-2 59q0 5 6 7t22 2h8q17 0 23 -2t6 -7
q1 -22 2 -55t1.5 -72.5t0.5 -81.5v-82v-348zM202 357q0 20 13 33.5t33 13.5t33.5 -13.5t13.5 -33.5t-13.5 -33t-33.5 -13t-33 13t-13 33z" />
    <glyph glyph-name="Lslash" unicode="&#x141;" horiz-adv-x="495" 
d="M110 0q-18 0 -23 2.5t-5 8.5v269l-59 -46q-12 -9 -12 14v10q0 12 1.5 16.5t6.5 8.5l63 49v379q0 9 29 9h8q32 0 32 -9v-326l122 95q5 4 8.5 1.5t3.5 -16.5v-8q0 -13 -1.5 -17.5t-6.5 -8.5l-126 -98v-276h297q5 0 7 -5t2 -21v-4q0 -17 -2 -22t-7 -5h-338z" />
    <glyph glyph-name="lslash" unicode="&#x142;" horiz-adv-x="245" 
d="M136 424l73 57q5 4 8.5 1.5t3.5 -16.5v-7q0 -13 -1.5 -17.5t-6.5 -8.5l-77 -60v-261q0 -33 6.5 -47t29.5 -14q6 0 10.5 0.5t9.5 1.5q4 1 5.5 -2t3.5 -16l1 -7q2 -11 0.5 -15.5t-9.5 -6.5q-10 -3 -21 -4.5t-20 -1.5q-19 0 -36.5 5.5t-29.5 22.5q-8 13 -11.5 37.5
t-3.5 66.5v191l-53 -41q-12 -9 -12 14v9q0 12 1.5 16.5t6.5 8.5l57 44v109v80q0 36 -0.5 68t-1.5 61l-2 59q0 5 6 7t22 2h8q17 0 23 -2t6 -7q1 -22 2 -55t1.5 -72.5t0.5 -81.5v-82v-36z" />
    <glyph glyph-name="Nacute" unicode="&#x143;" horiz-adv-x="677" 
d="M142 625v-616q0 -5 -5.5 -7t-22.5 -2h-7q-17 0 -22 2t-5 7v702q0 5 6 7t23 2h7q25 0 33 -2t12 -8l374 -615v616q0 5 5 7t22 2h7q17 0 22.5 -2t5.5 -7v-702q0 -5 -6 -7t-23 -2h-7q-25 0 -33 2t-12 8zM412 913q17 0 21 -2.5t0 -7.5l-88 -119q-3 -4 -8 -5t-19 -1h-4
q-24 0 -20 7l67 118q3 5 9.5 7.5t26.5 2.5h15z" />
    <glyph glyph-name="nacute" unicode="&#x144;" horiz-adv-x="581" 
d="M141 455q29 40 72.5 61.5t103.5 21.5q93 0 143 -52q26 -26 37.5 -66.5t11.5 -101.5v-307q0 -5 -5.5 -8t-22.5 -3h-8q-18 0 -23.5 3t-5.5 8v262q0 33 -1 57.5t-4.5 44t-10 34.5t-16.5 27q-17 20 -45.5 29t-65.5 9q-42 0 -71.5 -12.5t-52.5 -36.5q-12 -14 -20 -33t-10 -39
q-2 -22 -2.5 -60.5t-0.5 -84.5v-197q0 -5 -6 -8t-22 -3h-8q-18 0 -23.5 3t-5.5 8v376v65q0 33 -2 67q0 9 27 9h7q15 0 21 -2t6 -7zM368 721q17 0 21 -2.5t0 -7.5l-88 -119q-3 -4 -8 -5t-19 -1h-4q-24 0 -20 7l67 118q3 5 9.5 7.5t26.5 2.5h15z" />
    <glyph glyph-name="Ncommaaccent" unicode="&#x145;" horiz-adv-x="677" 
d="M142 625v-616q0 -5 -5.5 -7t-22.5 -2h-7q-17 0 -22 2t-5 7v702q0 5 6 7t23 2h7q25 0 33 -2t12 -8l374 -615v616q0 5 5 7t22 2h7q17 0 22.5 -2t5.5 -7v-702q0 -5 -6 -7t-23 -2h-7q-25 0 -33 2t-12 8zM288 -265q-7 7 -1 13q17 17 33 41.5t16 45.5q0 13 -5.5 22t-11.5 16.5
t-11.5 15.5t-5.5 20q0 17 12 27.5t29 10.5q23 0 36 -16t13 -38q0 -47 -22 -91t-63 -76q-6 -4 -14 4z" />
    <glyph glyph-name="ncommaaccent" unicode="&#x146;" horiz-adv-x="581" 
d="M141 455q29 40 72.5 61.5t103.5 21.5q93 0 143 -52q26 -26 37.5 -66.5t11.5 -101.5v-307q0 -5 -5.5 -8t-22.5 -3h-8q-18 0 -23.5 3t-5.5 8v262q0 33 -1 57.5t-4.5 44t-10 34.5t-16.5 27q-17 20 -45.5 29t-65.5 9q-42 0 -71.5 -12.5t-52.5 -36.5q-12 -14 -20 -33t-10 -39
q-2 -22 -2.5 -60.5t-0.5 -84.5v-197q0 -5 -6 -8t-22 -3h-8q-18 0 -23.5 3t-5.5 8v376v65q0 33 -2 67q0 9 27 9h7q15 0 21 -2t6 -7zM241 -265q-7 7 -1 13q17 17 33 41.5t16 45.5q0 13 -5.5 22t-11.5 16.5t-11.5 15.5t-5.5 20q0 17 12 27.5t29 10.5q23 0 36 -16t13 -38
q0 -47 -22 -91t-63 -76q-6 -4 -14 4z" />
    <glyph glyph-name="Ncaron" unicode="&#x147;" horiz-adv-x="677" 
d="M142 625v-616q0 -5 -5.5 -7t-22.5 -2h-7q-17 0 -22 2t-5 7v702q0 5 6 7t23 2h7q25 0 33 -2t12 -8l374 -615v616q0 5 5 7t22 2h7q17 0 22.5 -2t5.5 -7v-702q0 -5 -6 -7t-23 -2h-7q-25 0 -33 2t-12 8zM205 898q-3 4 -2.5 6.5t6.5 9.5l5 6q6 7 9 8t7 -2l116 -97l116 97
q4 3 7 2t9 -8l5 -6q6 -7 6 -9.5t-2 -6.5l-94 -100q-5 -5 -12 -7.5t-22 -2.5h-26q-15 0 -22 2.5t-12 7.5z" />
    <glyph glyph-name="ncaron" unicode="&#x148;" horiz-adv-x="581" 
d="M141 455q29 40 72.5 61.5t103.5 21.5q93 0 143 -52q26 -26 37.5 -66.5t11.5 -101.5v-307q0 -5 -5.5 -8t-22.5 -3h-8q-18 0 -23.5 3t-5.5 8v262q0 33 -1 57.5t-4.5 44t-10 34.5t-16.5 27q-17 20 -45.5 29t-65.5 9q-42 0 -71.5 -12.5t-52.5 -36.5q-12 -14 -20 -33t-10 -39
q-2 -22 -2.5 -60.5t-0.5 -84.5v-197q0 -5 -6 -8t-22 -3h-8q-18 0 -23.5 3t-5.5 8v376v65q0 33 -2 67q0 9 27 9h7q15 0 21 -2t6 -7zM301 583q-15 0 -22 2.5t-12 7.5l-94 100q-5 5 4 16l5 6q10 11 16 6l116 -97l116 97q6 5 16 -6l5 -6q9 -11 4 -16l-94 -100q-5 -5 -12 -7.5
t-22 -2.5h-26z" />
    <glyph glyph-name="napostrophe" unicode="&#x149;" horiz-adv-x="640" 
d="M200 455q29 40 72.5 61.5t103.5 21.5q93 0 143 -52q26 -26 37.5 -66.5t11.5 -101.5v-307q0 -5 -5.5 -8t-22.5 -3h-8q-18 0 -23.5 3t-5.5 8v262q0 33 -1 57.5t-4.5 44t-10 34.5t-16.5 27q-17 20 -45.5 29t-65.5 9q-42 0 -71.5 -12.5t-52.5 -36.5q-12 -14 -20 -33t-10 -39
q-2 -22 -2.5 -60.5t-0.5 -84.5v-197q0 -5 -6 -8t-22 -3h-8q-18 0 -23.5 3t-5.5 8v376v65q0 33 -2 67q0 9 27 9h7q15 0 21 -2t6 -7zM-3 459q-8 10 -2 16q11 11 22 24.5t20 28.5t15 30t6 29q0 17 -7 28t-16 21t-16 20t-7 26q0 22 15.5 35t36.5 13q29 0 45.5 -20t16.5 -49
q0 -59 -29.5 -116t-78.5 -96q-4 -3 -7.5 -2.5t-9.5 7.5z" />
    <glyph glyph-name="Eng" unicode="&#x14a;" horiz-adv-x="677" 
d="M412 -140q60 0 88 32.5t33 108.5l-391 624v-616q0 -5 -5.5 -7t-22.5 -2h-7q-17 0 -22 2t-5 7v702q0 5 6 7t23 2h7q25 0 33 -2t12 -8l374 -595v596q0 5 5 7t22 2h7q17 0 22.5 -2t5.5 -7v-670q0 -128 -46 -182t-133 -54q-18 0 -36 3t-29 8q-3 2 -4 6t1 18l1 6q2 14 4 18.5
t7 2.5q11 -3 23 -5t27 -2z" />
    <glyph glyph-name="eng" unicode="&#x14b;" horiz-adv-x="581" 
d="M444 273q0 33 -1 57.5t-4.5 44t-10 34.5t-16.5 27q-17 20 -45.5 29t-65.5 9q-42 0 -71.5 -12.5t-52.5 -36.5q-12 -14 -20 -33t-10 -39q-2 -22 -2.5 -60.5t-0.5 -84.5v-197q0 -5 -6 -8t-22 -3h-8q-18 0 -23.5 3t-5.5 8v376v65q0 34 -2 67q0 9 27 9h7q15 0 21 -2t6 -7
l3 -64q29 40 72.5 61.5t103.5 21.5q93 0 143 -52q26 -26 37.5 -66.5t11.5 -101.5v-277q0 -128 -46 -182t-133 -54q-18 0 -36 3t-29 8q-3 2 -4 6t1 18l1 6q2 14 4 18.5t7 2.5q11 -3 23 -5t27 -2q67 0 93.5 41t26.5 138v234z" />
    <glyph glyph-name="Omacron" unicode="&#x14c;" horiz-adv-x="693" 
d="M353 671q-54 0 -97.5 -21t-73.5 -61.5t-46.5 -99.5t-16.5 -135q0 -148 58 -226.5t163 -78.5q54 0 97 21.5t73.5 62t47 100t16.5 134.5q0 148 -58 226t-163 78zM356 730q64 0 117 -22.5t91.5 -67.5t60 -112t21.5 -157q0 -88 -21.5 -158.5t-62 -120t-97.5 -76t-128 -26.5
q-64 0 -117 22.5t-91.5 67.5t-60 112.5t-21.5 157.5q0 88 21.5 158t62 119.5t97.5 76t128 26.5zM477 874q5 0 6.5 -4.5t1.5 -18.5v-3q0 -25 -8 -25h-262q-8 0 -8 25v3q0 14 1.5 18.5t6.5 4.5h262z" />
    <glyph glyph-name="omacron" unicode="&#x14d;" horiz-adv-x="566" 
d="M117 259q0 -38 7.5 -75.5t25.5 -67.5t48.5 -48.5t77.5 -18.5q34 0 65.5 12t55.5 38.5t38 68t14 101.5q0 38 -7.5 75.5t-25.5 67.5t-49 48.5t-78 18.5q-34 0 -65 -12t-55 -38.5t-38 -68.5t-14 -101zM273 -10q-45 0 -81.5 11.5t-65.5 37.5q-37 33 -58 87t-21 126
q0 71 17.5 124.5t49.5 89.5t77.5 54t101.5 18q45 0 81.5 -11.5t65.5 -37.5q37 -33 58 -87t21 -126q0 -71 -17.5 -124.5t-49.5 -89.5t-77.5 -54t-101.5 -18zM418 684q5 0 6.5 -4.5t1.5 -18.5v-3q0 -25 -8 -25h-262q-8 0 -8 25v3q0 14 1.5 18.5t6.5 4.5h262z" />
    <glyph glyph-name="Obreve" unicode="&#x14e;" horiz-adv-x="693" 
d="M353 671q-54 0 -97.5 -21t-73.5 -61.5t-46.5 -99.5t-16.5 -135q0 -148 58 -226.5t163 -78.5q54 0 97 21.5t73.5 62t47 100t16.5 134.5q0 148 -58 226t-163 78zM356 730q64 0 117 -22.5t91.5 -67.5t60 -112t21.5 -157q0 -88 -21.5 -158.5t-62 -120t-97.5 -76t-128 -26.5
q-64 0 -117 22.5t-91.5 67.5t-60 112.5t-21.5 157.5q0 88 21.5 158t62 119.5t97.5 76t128 26.5zM346 795q-29 0 -53.5 7.5t-43 22t-29 35t-10.5 46.5q0 3 2.5 4.5t16.5 1.5h12q13 0 15.5 -1.5t3.5 -8.5q4 -32 26 -49t60 -17t60 17t26 49q1 7 3.5 8.5t15.5 1.5h12
q14 0 16.5 -1.5t2.5 -4.5q0 -26 -10.5 -46.5t-29 -35t-43.5 -22t-53 -7.5z" />
    <glyph glyph-name="obreve" unicode="&#x14f;" horiz-adv-x="566" 
d="M117 259q0 -38 7.5 -75.5t25.5 -67.5t48.5 -48.5t77.5 -18.5q34 0 65.5 12t55.5 38.5t38 68t14 101.5q0 38 -7.5 75.5t-25.5 67.5t-49 48.5t-78 18.5q-34 0 -65 -12t-55 -38.5t-38 -68.5t-14 -101zM273 -10q-45 0 -81.5 11.5t-65.5 37.5q-37 33 -58 87t-21 126
q0 71 17.5 124.5t49.5 89.5t77.5 54t101.5 18q45 0 81.5 -11.5t65.5 -37.5q37 -33 58 -87t21 -126q0 -71 -17.5 -124.5t-49.5 -89.5t-77.5 -54t-101.5 -18zM287 595q-29 0 -53.5 7.5t-43 22t-29 35t-10.5 46.5q0 3 2.5 4.5t16.5 1.5h12q13 0 15.5 -1.5t3.5 -8.5
q4 -32 26 -49t60 -17t60 17t26 49q1 7 3.5 8.5t15.5 1.5h12q14 0 16.5 -1.5t2.5 -4.5q0 -26 -10.5 -46.5t-29 -35t-43.5 -22t-53 -7.5z" />
    <glyph glyph-name="Ohungarumlaut" unicode="&#x150;" horiz-adv-x="693" 
d="M353 671q-54 0 -97.5 -21t-73.5 -61.5t-46.5 -99.5t-16.5 -135q0 -148 58 -226.5t163 -78.5q54 0 97 21.5t73.5 62t47 100t16.5 134.5q0 148 -58 226t-163 78zM356 730q64 0 117 -22.5t91.5 -67.5t60 -112t21.5 -157q0 -88 -21.5 -158.5t-62 -120t-97.5 -76t-128 -26.5
q-64 0 -117 22.5t-91.5 67.5t-60 112.5t-21.5 157.5q0 88 21.5 158t62 119.5t97.5 76t128 26.5zM333 913q17 0 21 -2.5t0 -7.5l-88 -119q-3 -4 -8 -5t-19 -1h-4q-24 0 -20 7l67 118q3 5 9.5 7.5t26.5 2.5h15zM490 913q17 0 21 -2.5t0 -7.5l-88 -119q-3 -4 -8 -5t-19 -1h-4
q-24 0 -20 7l67 118q3 5 9.5 7.5t26.5 2.5h15z" />
    <glyph glyph-name="ohungarumlaut" unicode="&#x151;" horiz-adv-x="566" 
d="M117 259q0 -38 7.5 -75.5t25.5 -67.5t48.5 -48.5t77.5 -18.5q34 0 65.5 12t55.5 38.5t38 68t14 101.5q0 38 -7.5 75.5t-25.5 67.5t-49 48.5t-78 18.5q-34 0 -65 -12t-55 -38.5t-38 -68.5t-14 -101zM273 -10q-45 0 -81.5 11.5t-65.5 37.5q-37 33 -58 87t-21 126
q0 71 17.5 124.5t49.5 89.5t77.5 54t101.5 18q45 0 81.5 -11.5t65.5 -37.5q37 -33 58 -87t21 -126q0 -71 -17.5 -124.5t-49.5 -89.5t-77.5 -54t-101.5 -18zM262 721q17 0 21 -2.5t0 -7.5l-88 -119q-3 -4 -8 -5t-19 -1h-4q-24 0 -20 7l67 118q3 5 9.5 7.5t26.5 2.5h15z
M419 721q17 0 21 -2.5t0 -7.5l-88 -119q-3 -4 -8 -5t-19 -1h-4q-24 0 -20 7l67 118q3 5 9.5 7.5t26.5 2.5h15z" />
    <glyph glyph-name="OE" unicode="&#x152;" horiz-adv-x="939" 
d="M487 0q-31 -4 -68 -7t-70 -3q-68 0 -123.5 21t-95.5 65t-61.5 110.5t-21.5 158.5q0 93 22 164.5t63 120.5t100 74.5t134 25.5q32 0 62 -3t56 -7h389q5 0 7 -5t2 -21v-4q0 -17 -2 -22t-7 -5h-317v-270h269q5 0 7 -5t2 -21v-4q0 -17 -2 -22t-7 -5h-269v-279h321q5 0 7 -5
t2 -21v-4q0 -17 -2 -22t-7 -5h-390zM353 46q30 0 65 2.5t69 6.5v606q-27 5 -59 8.5t-63 3.5q-118 0 -182 -82t-64 -239q0 -153 60 -229.5t174 -76.5z" />
    <glyph glyph-name="oe" unicode="&#x153;" horiz-adv-x="909" 
d="M657 538q60 0 104 -29t69 -79q17 -35 25.5 -76t8.5 -86q0 -17 -3 -21t-11 -4h-349q2 -54 15.5 -92t35.5 -59t49.5 -31t66.5 -10q35 0 70.5 7.5t66.5 22.5q8 4 12 1.5t10 -17.5l4 -10q8 -21 -1 -26q-38 -20 -78.5 -29.5t-91.5 -9.5q-75 0 -126 32t-71 82
q-30 -57 -81 -85.5t-118 -28.5q-43 0 -78.5 11.5t-62.5 37.5q-35 33 -55.5 87.5t-20.5 126.5q0 70 17 123.5t48 89.5t74.5 54t96.5 18q43 0 78.5 -11.5t62.5 -37.5q13 -13 24.5 -28.5t20.5 -33.5q28 54 75.5 82.5t112.5 28.5zM116 260q0 -38 6.5 -75.5t24 -67.5t46.5 -49
t74 -19q33 0 63 12t52.5 38.5t36 68.5t13.5 101q0 38 -7 75.5t-24 67.5t-47 48.5t-75 18.5q-33 0 -62.5 -12t-52 -38.5t-35.5 -68t-13 -100.5zM797 295q-1 34 -9.5 67t-26 58.5t-44 41t-62.5 15.5q-68 0 -107.5 -47t-45.5 -135h295z" />
    <glyph glyph-name="Racute" unicode="&#x154;" horiz-adv-x="554" 
d="M151 305v-296q0 -9 -32 -9h-8q-29 0 -29 9v711h152q83 0 136.5 -15.5t87.5 -48.5q50 -48 50 -136q0 -48 -15 -85t-41 -63q-39 -39 -103 -56l43 -90l40 -77q19 -36 40 -69t46 -67q1 -2 1 -4q0 -3 -1 -5q-4 -4 -27 -4h-10q-20 0 -27 1.5t-13 9.5q-20 25 -41.5 60.5
t-42.5 75t-40 81t-34 78.5q-7 -1 -14 -1h-14h-104zM151 359h96q99 0 147 46q41 41 41 111q0 66 -33 101q-24 26 -64 37t-100 11h-87v-306zM354 913q17 0 21 -2.5t0 -7.5l-88 -119q-3 -4 -8 -5t-19 -1h-4q-24 0 -20 7l67 118q3 5 9.5 7.5t26.5 2.5h15z" />
    <glyph glyph-name="racute" unicode="&#x155;" horiz-adv-x="347" 
d="M142 405q22 63 62.5 96t85.5 33q19 0 30 -3q4 -1 5.5 -5t1.5 -16v-8q0 -15 -1.5 -23t-8.5 -8q-41 0 -71.5 -17t-51.5 -43q-22 -28 -33.5 -62.5t-13.5 -72.5q-2 -22 -2.5 -65.5t-0.5 -89.5v-112q0 -5 -6 -7t-24 -2h-6q-18 0 -23.5 2t-5.5 7v348q0 41 -0.5 81.5t-1.5 82.5
q0 3 4.5 5t23.5 2h5q20 0 24.5 -2t4.5 -5zM281 721q17 0 21 -2.5t0 -7.5l-88 -119q-3 -4 -8 -5t-19 -1h-4q-24 0 -20 7l67 118q3 5 9.5 7.5t26.5 2.5h15z" />
    <glyph glyph-name="Rcommaaccent" unicode="&#x156;" horiz-adv-x="554" 
d="M151 305v-296q0 -9 -32 -9h-8q-29 0 -29 9v711h152q83 0 136.5 -15.5t87.5 -48.5q50 -48 50 -136q0 -48 -15 -85t-41 -63q-39 -39 -103 -56l43 -90l40 -77q19 -36 40 -69t46 -67q1 -2 1 -4q0 -3 -1 -5q-4 -4 -27 -4h-10q-20 0 -27 1.5t-13 9.5q-20 25 -41.5 60.5
t-42.5 75t-40 81t-34 78.5q-7 -1 -14 -1h-14h-104zM151 359h96q99 0 147 46q41 41 41 111q0 66 -33 101q-24 26 -64 37t-100 11h-87v-306zM243 -265q-7 7 -1 13q17 17 33 41.5t16 45.5q0 13 -5.5 22t-11.5 16.5t-11.5 15.5t-5.5 20q0 17 12 27.5t29 10.5q23 0 36 -16t13 -38
q0 -47 -22 -91t-63 -76q-6 -4 -14 4z" />
    <glyph glyph-name="rcommaaccent" unicode="&#x157;" horiz-adv-x="347" 
d="M142 405q22 63 62.5 96t85.5 33q19 0 30 -3q4 -1 5.5 -5t1.5 -16v-8q0 -15 -1.5 -23t-8.5 -8q-41 0 -71.5 -17t-51.5 -43q-22 -28 -33.5 -62.5t-13.5 -72.5q-2 -22 -2.5 -65.5t-0.5 -89.5v-112q0 -5 -6 -7t-24 -2h-6q-18 0 -23.5 2t-5.5 7v348q0 41 -0.5 81.5t-1.5 82.5
q0 3 4.5 5t23.5 2h5q20 0 24.5 -2t4.5 -5zM57 -265q-7 7 -1 13q17 17 33 41.5t16 45.5q0 13 -5.5 22t-11.5 16.5t-11.5 15.5t-5.5 20q0 17 12 27.5t29 10.5q23 0 36 -16t13 -38q0 -47 -22 -91t-63 -76q-6 -4 -14 4z" />
    <glyph glyph-name="Rcaron" unicode="&#x158;" horiz-adv-x="554" 
d="M151 305v-296q0 -9 -32 -9h-8q-29 0 -29 9v711h152q83 0 136.5 -15.5t87.5 -48.5q50 -48 50 -136q0 -48 -15 -85t-41 -63q-39 -39 -103 -56l43 -90l40 -77q19 -36 40 -69t46 -67q1 -2 1 -4q0 -3 -1 -5q-4 -4 -27 -4h-10q-20 0 -27 1.5t-13 9.5q-20 25 -41.5 60.5
t-42.5 75t-40 81t-34 78.5q-7 -1 -14 -1h-14h-104zM151 359h96q99 0 147 46q41 41 41 111q0 66 -33 101q-24 26 -64 37t-100 11h-87v-306zM160 898q-3 4 -2.5 6.5t6.5 9.5l5 6q6 7 9 8t7 -2l116 -97l116 97q4 3 7 2t9 -8l5 -6q6 -7 6 -9.5t-2 -6.5l-94 -100q-5 -5 -12 -7.5
t-22 -2.5h-26q-15 0 -22 2.5t-12 7.5z" />
    <glyph glyph-name="rcaron" unicode="&#x159;" horiz-adv-x="347" 
d="M142 405q22 63 62.5 96t85.5 33q19 0 30 -3q4 -1 5.5 -5t1.5 -16v-8q0 -15 -1.5 -23t-8.5 -8q-41 0 -71.5 -17t-51.5 -43q-22 -28 -33.5 -62.5t-13.5 -72.5q-2 -22 -2.5 -65.5t-0.5 -89.5v-112q0 -5 -6 -7t-24 -2h-6q-18 0 -23.5 2t-5.5 7v348q0 41 -0.5 81.5t-1.5 82.5
q0 3 4.5 5t23.5 2h5q20 0 24.5 -2t4.5 -5zM193 583q-15 0 -22 2.5t-12 7.5l-94 100q-5 5 4 16l5 6q10 11 16 6l116 -97l116 97q6 5 16 -6l5 -6q9 -11 4 -16l-94 -100q-5 -5 -12 -7.5t-22 -2.5h-26z" />
    <glyph glyph-name="Sacute" unicode="&#x15a;" horiz-adv-x="513" 
d="M49 47q-5 4 -5 9t9 20l3 5q8 12 12 15.5t9 0.5q40 -26 81 -38t79 -12q75 0 120.5 38t45.5 98q0 31 -14 54.5t-37 42t-52 34.5l-61 32q-32 16 -62 34.5t-53.5 42t-38 54.5t-14.5 72t16.5 74.5t45 57t65 36.5t77.5 13q46 0 90 -13.5t76 -35.5q6 -4 5 -9t-8 -17l-3 -5
q-8 -14 -12 -16.5t-9 0.5q-30 17 -63.5 28t-71.5 11q-60 0 -100 -32t-40 -89q0 -29 12 -51t32 -40t46 -33l54 -29q34 -17 67.5 -36t60.5 -43.5t43.5 -56.5t16.5 -77q0 -44 -16.5 -80t-46.5 -61.5t-72 -40t-93 -14.5q-59 0 -110.5 16.5t-83.5 40.5zM328 913q17 0 21 -2.5
t0 -7.5l-88 -119q-3 -4 -8 -5t-19 -1h-4q-24 0 -20 7l67 118q3 5 9.5 7.5t26.5 2.5h15z" />
    <glyph glyph-name="sacute" unicode="&#x15b;" horiz-adv-x="449" 
d="M378 454q-8 -12 -13 -14t-10 2q-29 20 -59.5 30t-68.5 10q-51 0 -80.5 -22t-29.5 -64q0 -25 9 -40.5t25.5 -25.5t38 -16.5t47.5 -13.5q36 -9 66 -20t52.5 -27.5t35 -41t12.5 -61.5q0 -78 -52.5 -119t-136.5 -41q-53 0 -94 14t-70 33q-5 3 -5 7t8 18l3 6q8 16 12.5 18.5
t10.5 -1.5q28 -17 63.5 -29t69.5 -12q60 0 95.5 23t35.5 75q0 23 -8.5 38.5t-25.5 26.5t-41.5 19t-56.5 16q-37 9 -67.5 21t-49.5 29q-41 36 -41 96q0 36 13 64t36.5 47t55.5 29t71 10q45 0 86 -14t72 -38q5 -4 4 -9.5t-9 -16.5zM297 721q17 0 21 -2.5t0 -7.5l-88 -119
q-3 -4 -8 -5t-19 -1h-4q-24 0 -20 7l67 118q3 5 9.5 7.5t26.5 2.5h15z" />
    <glyph glyph-name="Scircumflex" unicode="&#x15c;" horiz-adv-x="513" 
d="M49 47q-5 4 -5 9t9 20l3 5q8 12 12 15.5t9 0.5q40 -26 81 -38t79 -12q75 0 120.5 38t45.5 98q0 31 -14 54.5t-37 42t-52 34.5l-61 32q-32 16 -62 34.5t-53.5 42t-38 54.5t-14.5 72t16.5 74.5t45 57t65 36.5t77.5 13q46 0 90 -13.5t76 -35.5q6 -4 5 -9t-8 -17l-3 -5
q-8 -14 -12 -16.5t-9 0.5q-30 17 -63.5 28t-71.5 11q-60 0 -100 -32t-40 -89q0 -29 12 -51t32 -40t46 -33l54 -29q34 -17 67.5 -36t60.5 -43.5t43.5 -56.5t16.5 -77q0 -44 -16.5 -80t-46.5 -61.5t-72 -40t-93 -14.5q-59 0 -110.5 16.5t-83.5 40.5zM289 921q15 0 22 -2.5
t12 -7.5l94 -100q5 -5 -4 -16l-5 -6q-10 -11 -16 -6l-116 97l-116 -97q-6 -5 -16 6l-5 6q-9 11 -4 16l94 100q5 5 12 7.5t22 2.5h26z" />
    <glyph glyph-name="scircumflex" unicode="&#x15d;" horiz-adv-x="449" 
d="M378 454q-8 -12 -13 -14t-10 2q-29 20 -59.5 30t-68.5 10q-51 0 -80.5 -22t-29.5 -64q0 -25 9 -40.5t25.5 -25.5t38 -16.5t47.5 -13.5q36 -9 66 -20t52.5 -27.5t35 -41t12.5 -61.5q0 -78 -52.5 -119t-136.5 -41q-53 0 -94 14t-70 33q-5 3 -5 7t8 18l3 6q8 16 12.5 18.5
t10.5 -1.5q28 -17 63.5 -29t69.5 -12q60 0 95.5 23t35.5 75q0 23 -8.5 38.5t-25.5 26.5t-41.5 19t-56.5 16q-37 9 -67.5 21t-49.5 29q-41 36 -41 96q0 36 13 64t36.5 47t55.5 29t71 10q45 0 86 -14t72 -38q5 -4 4 -9.5t-9 -16.5zM240 729q15 0 22 -2.5t12 -7.5l94 -100
q5 -5 -4 -16l-5 -6q-10 -11 -16 -6l-116 97l-116 -97q-6 -5 -16 6l-5 6q-9 11 -4 16l94 100q5 5 12 7.5t22 2.5h26z" />
    <glyph glyph-name="Scedilla" unicode="&#x15e;" horiz-adv-x="513" 
d="M218 -9q-52 3 -96.5 18.5t-72.5 37.5q-5 4 -4.5 9.5t8.5 19.5l3 5q8 12 12 15.5t9 0.5q40 -26 81 -38t79 -12q75 0 120.5 38t45.5 98q0 31 -14 54.5t-37 42.5q-22 18 -52 34l-61 32q-32 16 -62 34.5t-53.5 42t-38 54.5t-14.5 72t16.5 74.5t45 57t65 36.5t77.5 13
q46 0 90 -13.5t76 -35.5q6 -4 5 -9t-8 -17l-3 -5q-8 -14 -12 -16.5t-9 0.5q-30 17 -63.5 28t-71.5 11q-60 0 -100 -32t-40 -89q0 -29 12 -51t32 -40q20 -19 46 -33l54 -29q34 -17 67.5 -36t60.5 -43.5t43.5 -56.5t16.5 -77q0 -41 -14.5 -75.5t-41.5 -60t-65 -41t-84 -18.5
l-7 -58q7 1 13.5 1.5t13.5 0.5q40 0 65 -21.5t25 -56.5q0 -18 -6.5 -34t-20 -28.5t-34 -20t-49.5 -7.5q-21 0 -41.5 3.5t-30.5 8.5q-5 2 -2 18l1 5q2 10 4 12.5t6 1.5q14 -3 28 -5t27 -2q29 0 45.5 10.5t16.5 33.5t-16.5 33t-44.5 10q-11 0 -26.5 -1.5t-26.5 -3.5z" />
    <glyph glyph-name="scedilla" unicode="&#x15f;" horiz-adv-x="449" 
d="M191 -9q-45 3 -80 16t-61 30q-5 3 -4.5 7.5t7.5 17.5l3 6q8 16 12.5 18.5t10.5 -1.5q28 -17 63.5 -29t69.5 -12q60 0 95.5 23t35.5 75q0 23 -8.5 38.5t-25.5 26.5t-41.5 19t-56.5 16q-37 9 -67.5 21t-49.5 29q-41 36 -41 96q0 36 13 64t36.5 47t55.5 29t71 10
q45 0 86 -14t72 -38q5 -4 4 -9.5t-9 -16.5l-4 -6q-8 -12 -13 -14t-10 2q-29 20 -59.5 30t-68.5 10q-51 0 -80.5 -22t-29.5 -64q0 -25 9 -40.5t25.5 -25.5t38 -16.5t47.5 -13.5q36 -9 66 -20t52.5 -27.5t35 -41t12.5 -61.5q0 -72 -45 -112.5t-119 -46.5l-7 -58q7 1 13.5 1.5
t13.5 0.5q40 0 65 -21.5t25 -56.5q0 -18 -6.5 -34t-20 -28.5t-34 -20t-49.5 -7.5q-21 0 -41.5 3.5t-30.5 8.5q-5 2 -2 18l1 5q2 10 4 12.5t6 1.5q14 -3 28 -5t27 -2q29 0 45.5 10.5t16.5 33.5t-16.5 33t-44.5 10q-11 0 -26.5 -1.5t-26.5 -3.5z" />
    <glyph glyph-name="Scaron" unicode="&#x160;" horiz-adv-x="513" 
d="M49 47q-5 4 -5 9t9 20l3 5q8 12 12 15.5t9 0.5q40 -26 81 -38t79 -12q75 0 120.5 38t45.5 98q0 31 -14 54.5t-37 42t-52 34.5l-61 32q-32 16 -62 34.5t-53.5 42t-38 54.5t-14.5 72t16.5 74.5t45 57t65 36.5t77.5 13q46 0 90 -13.5t76 -35.5q6 -4 5 -9t-8 -17l-3 -5
q-8 -14 -12 -16.5t-9 0.5q-30 17 -63.5 28t-71.5 11q-60 0 -100 -32t-40 -89q0 -29 12 -51t32 -40t46 -33l54 -29q34 -17 67.5 -36t60.5 -43.5t43.5 -56.5t16.5 -77q0 -44 -16.5 -80t-46.5 -61.5t-72 -40t-93 -14.5q-59 0 -110.5 16.5t-83.5 40.5zM135 886q-3 4 -2.5 6.5
t6.5 9.5l5 6q6 7 9 8t7 -2l116 -97l116 97q4 3 7 2t9 -8l5 -6q6 -7 6 -9.5t-2 -6.5l-94 -100q-5 -5 -12 -7.5t-22 -2.5h-26q-15 0 -22 2.5t-12 7.5z" />
    <glyph glyph-name="scaron" unicode="&#x161;" horiz-adv-x="449" 
d="M378 454q-8 -12 -13 -14t-10 2q-29 20 -59.5 30t-68.5 10q-51 0 -80.5 -22t-29.5 -64q0 -25 9 -40.5t25.5 -25.5t38 -16.5t47.5 -13.5q36 -9 66 -20t52.5 -27.5t35 -41t12.5 -61.5q0 -78 -52.5 -119t-136.5 -41q-53 0 -94 14t-70 33q-5 3 -5 7t8 18l3 6q8 16 12.5 18.5
t10.5 -1.5q28 -17 63.5 -29t69.5 -12q60 0 95.5 23t35.5 75q0 23 -8.5 38.5t-25.5 26.5t-41.5 19t-56.5 16q-37 9 -67.5 21t-49.5 29q-41 36 -41 96q0 36 13 64t36.5 47t55.5 29t71 10q45 0 86 -14t72 -38q5 -4 4 -9.5t-9 -16.5zM218 583q-15 0 -22 2.5t-12 7.5l-94 100
q-5 5 4 16l5 6q10 11 16 6l116 -97l116 97q6 5 16 -6l5 -6q9 -11 4 -16l-94 -100q-5 -5 -12 -7.5t-22 -2.5h-26z" />
    <glyph glyph-name="Tcommaaccent" unicode="&#x162;" horiz-adv-x="516" 
d="M25 663q-5 0 -7 6t-2 21v4q0 26 9 26h466q5 0 7 -6t2 -21v-4q0 -26 -9 -26h-195v-654q0 -9 -32 -9h-8q-29 0 -29 9v654h-202zM203 -265q-7 7 -1 13q17 17 33 41.5t16 45.5q0 13 -5.5 22t-11.5 16.5t-11.5 15.5t-5.5 20q0 17 12 27.5t29 10.5q23 0 36 -16t13 -38
q0 -47 -22 -91t-63 -76q-6 -4 -14 4z" />
    <glyph glyph-name="tcommaaccent" unicode="&#x163;" horiz-adv-x="365" 
d="M309 478h-141v-321q0 -36 3 -57.5t15 -33.5q11 -11 25.5 -15.5t35.5 -4.5q20 0 39.5 3t36.5 9q7 2 8.5 -1t5.5 -17l2 -7q3 -11 3 -16t-5 -8q-24 -10 -51.5 -14.5t-53.5 -4.5q-31 0 -54.5 8.5t-39.5 22.5q-20 20 -27.5 49.5t-7.5 79.5v328h-70q-4 0 -5 4.5t-1 18.5v3
q0 14 1 19t6 5h69v149q0 4 4 5t25 1h7q20 0 24.5 -1.5t4.5 -4.5v-149h141q5 0 6 -5t1 -19v-3q0 -14 -1 -18.5t-6 -4.5zM169 -265q-7 7 -1 13q17 17 33 41.5t16 45.5q0 13 -5.5 22t-11.5 16.5t-11.5 15.5t-5.5 20q0 17 12 27.5t29 10.5q23 0 36 -16t13 -38q0 -47 -22 -91
t-63 -76q-6 -4 -14 4z" />
    <glyph glyph-name="Tcaron" unicode="&#x164;" horiz-adv-x="516" 
d="M25 663q-5 0 -7 6t-2 21v4q0 26 9 26h466q5 0 7 -6t2 -21v-4q0 -26 -9 -26h-195v-654q0 -9 -32 -9h-8q-29 0 -29 9v654h-202zM117 898q-3 4 -2.5 6.5t6.5 9.5l5 6q6 7 9 8t7 -2l116 -97l116 97q4 3 7 2t9 -8l5 -6q6 -7 6 -9.5t-2 -6.5l-94 -100q-5 -5 -12 -7.5t-22 -2.5
h-26q-15 0 -22 2.5t-12 7.5z" />
    <glyph glyph-name="tcaron" unicode="&#x165;" horiz-adv-x="365" 
d="M309 478h-141v-321q0 -36 3 -57.5t15 -33.5q11 -11 25.5 -15.5t35.5 -4.5q20 0 39.5 3t36.5 9q7 2 8.5 -1t5.5 -17l2 -7q3 -11 3 -16t-5 -8q-24 -10 -51.5 -14.5t-53.5 -4.5q-31 0 -54.5 8.5t-39.5 22.5q-20 20 -27.5 49.5t-7.5 79.5v328h-70q-4 0 -5 4.5t-1 18.5v3
q0 14 1 19t6 5h69v149q0 4 4 5t25 1h7q20 0 24.5 -1.5t4.5 -4.5v-149h141q5 0 6 -5t1 -19v-3q0 -14 -1 -18.5t-6 -4.5zM228 602q-7 7 -1 13q17 17 33 41.5t16 45.5q0 13 -5.5 22t-11.5 16.5t-11.5 15.5t-5.5 20q0 17 12 27.5t29 10.5q23 0 36 -16t13 -38q0 -47 -22 -91
t-63 -76q-6 -4 -14 4z" />
    <glyph glyph-name="Tbar" unicode="&#x166;" horiz-adv-x="516" 
d="M227 390v273h-202q-5 0 -7 6t-2 21v4q0 26 9 26h466q5 0 7 -6t2 -21v-4q0 -26 -9 -26h-195v-273h115q5 0 6.5 -4.5t1.5 -18.5v-3q0 -25 -8 -25h-115v-330q0 -9 -32 -9h-8q-29 0 -29 9v330h-122q-8 0 -8 25v3q0 14 1.5 18.5t6.5 4.5h122z" />
    <glyph glyph-name="tbar" unicode="&#x167;" horiz-adv-x="365" 
d="M103 302v176h-70q-4 0 -5 4.5t-1 18.5v3q0 14 1 19t6 5h69v149q0 4 4 5t25 1h7q20 0 24.5 -1.5t4.5 -4.5v-149h141q5 0 6 -5t1 -19v-3q0 -14 -1 -18.5t-6 -4.5h-141v-176h127q5 0 6.5 -4.5t1.5 -18.5v-1q0 -25 -8 -25h-127v-96q0 -36 3 -57.5t15 -33.5q11 -11 25.5 -15.5
t35.5 -4.5q20 0 39.5 3t36.5 9q7 2 8.5 -1t5.5 -17l2 -7q4 -14 3 -18t-5 -6q-24 -10 -51.5 -14.5t-53.5 -4.5q-31 0 -54.5 8.5t-39.5 22.5q-20 20 -27.5 49.5t-7.5 79.5v103h-65q-8 0 -8 25v1q0 14 1.5 18.5t6.5 4.5h65z" />
    <glyph glyph-name="Utilde" unicode="&#x168;" horiz-adv-x="670" 
d="M595 267q0 -77 -17 -128t-52 -84q-33 -32 -81 -48.5t-109 -16.5q-125 0 -192 64q-35 33 -52 84t-17 128v445q0 9 29 9h8q32 0 32 -9v-436q0 -65 13 -108.5t39 -69.5q24 -25 59.5 -37t80.5 -12q91 0 139 49q26 26 39 69.5t13 108.5v436q0 9 29 9h7q32 0 32 -9v-444z
M485 857q-14 -17 -38 -30.5t-50 -13.5q-21 0 -37 6t-30.5 13t-29 13t-31.5 6q-16 0 -28.5 -7t-29.5 -23q-6 -5 -16 8l-8 10q-7 10 -2 16q14 17 38 30.5t50 13.5q21 0 37 -6t30.5 -13t29 -13t31.5 -6q16 0 28.5 7t29.5 23q3 2 6.5 1t9.5 -9l8 -10q7 -10 2 -16z" />
    <glyph glyph-name="utilde" unicode="&#x169;" horiz-adv-x="578" 
d="M437 79q-25 -43 -68 -66t-103 -23q-47 0 -86 12.5t-62 38.5q-26 26 -36.5 66.5t-10.5 102.5v308q0 5 5 7.5t23 2.5h8q18 0 23.5 -2.5t5.5 -7.5v-264q0 -65 4 -102t24 -60q34 -40 111 -40q38 0 66 11t48 31q10 10 18.5 24t13.5 34t8 48.5t3 68.5v249q0 5 5 7.5t23 2.5h8
q18 0 23.5 -2.5t5.5 -7.5v-347q0 -39 1 -78q0 -12 1 -40t1 -43q0 -6 -4 -8q-5 -2 -20 -2h-8q-17 0 -21 1.5t-5 8.5zM439 665q-14 -17 -38 -30.5t-50 -13.5q-21 0 -37 6t-30.5 13t-29 13t-31.5 6q-16 0 -28.5 -7t-29.5 -23q-6 -5 -16 8l-8 10q-7 10 -2 16q14 17 38 30.5
t50 13.5q21 0 37 -6t30.5 -13t29 -13t31.5 -6q16 0 28.5 7t29.5 23q3 2 6.5 1t9.5 -9l8 -10q7 -10 2 -16z" />
    <glyph glyph-name="Umacron" unicode="&#x16a;" horiz-adv-x="670" 
d="M595 267q0 -77 -17 -128t-52 -84q-33 -32 -81 -48.5t-109 -16.5q-125 0 -192 64q-35 33 -52 84t-17 128v445q0 9 29 9h8q32 0 32 -9v-436q0 -65 13 -108.5t39 -69.5q24 -25 59.5 -37t80.5 -12q91 0 139 49q26 26 39 69.5t13 108.5v436q0 9 29 9h7q32 0 32 -9v-444z
M466 874q5 0 6.5 -4.5t1.5 -18.5v-3q0 -25 -8 -25h-262q-8 0 -8 25v3q0 14 1.5 18.5t6.5 4.5h262z" />
    <glyph glyph-name="umacron" unicode="&#x16b;" horiz-adv-x="578" 
d="M437 79q-25 -43 -68 -66t-103 -23q-47 0 -86 12.5t-62 38.5q-26 26 -36.5 66.5t-10.5 102.5v308q0 5 5 7.5t23 2.5h8q18 0 23.5 -2.5t5.5 -7.5v-264q0 -65 4 -102t24 -60q34 -40 111 -40q38 0 66 11t48 31q10 10 18.5 24t13.5 34t8 48.5t3 68.5v249q0 5 5 7.5t23 2.5h8
q18 0 23.5 -2.5t5.5 -7.5v-347q0 -39 1 -78q0 -12 1 -40t1 -43q0 -6 -4 -8q-5 -2 -20 -2h-8q-17 0 -21 1.5t-5 8.5zM420 684q5 0 6.5 -4.5t1.5 -18.5v-3q0 -25 -8 -25h-262q-8 0 -8 25v3q0 14 1.5 18.5t6.5 4.5h262z" />
    <glyph glyph-name="Ubreve" unicode="&#x16c;" horiz-adv-x="670" 
d="M595 267q0 -77 -17 -128t-52 -84q-33 -32 -81 -48.5t-109 -16.5q-125 0 -192 64q-35 33 -52 84t-17 128v445q0 9 29 9h8q32 0 32 -9v-436q0 -65 13 -108.5t39 -69.5q24 -25 59.5 -37t80.5 -12q91 0 139 49q26 26 39 69.5t13 108.5v436q0 9 29 9h7q32 0 32 -9v-444z
M335 795q-29 0 -53.5 7.5t-43 22t-29 35t-10.5 46.5q0 3 2.5 4.5t16.5 1.5h12q13 0 15.5 -1.5t3.5 -8.5q4 -32 26 -49t60 -17t60 17t26 49q1 7 3.5 8.5t15.5 1.5h12q14 0 16.5 -1.5t2.5 -4.5q0 -26 -10.5 -46.5t-29 -35t-43.5 -22t-53 -7.5z" />
    <glyph glyph-name="ubreve" unicode="&#x16d;" horiz-adv-x="578" 
d="M437 79q-25 -43 -68 -66t-103 -23q-47 0 -86 12.5t-62 38.5q-26 26 -36.5 66.5t-10.5 102.5v308q0 5 5 7.5t23 2.5h8q18 0 23.5 -2.5t5.5 -7.5v-264q0 -65 4 -102t24 -60q34 -40 111 -40q38 0 66 11t48 31q10 10 18.5 24t13.5 34t8 48.5t3 68.5v249q0 5 5 7.5t23 2.5h8
q18 0 23.5 -2.5t5.5 -7.5v-347q0 -39 1 -78q0 -12 1 -40t1 -43q0 -6 -4 -8q-5 -2 -20 -2h-8q-17 0 -21 1.5t-5 8.5zM289 595q-29 0 -53.5 7.5t-43 22t-29 35t-10.5 46.5q0 3 2.5 4.5t16.5 1.5h12q13 0 15.5 -1.5t3.5 -8.5q4 -32 26 -49t60 -17t60 17t26 49q1 7 3.5 8.5
t15.5 1.5h12q14 0 16.5 -1.5t2.5 -4.5q0 -26 -10.5 -46.5t-29 -35t-43.5 -22t-53 -7.5z" />
    <glyph glyph-name="Uring" unicode="&#x16e;" horiz-adv-x="670" 
d="M595 267q0 -77 -17 -128t-52 -84q-33 -32 -81 -48.5t-109 -16.5q-125 0 -192 64q-35 33 -52 84t-17 128v445q0 9 29 9h8q32 0 32 -9v-436q0 -65 13 -108.5t39 -69.5q24 -25 59.5 -37t80.5 -12q91 0 139 49q26 26 39 69.5t13 108.5v436q0 9 29 9h7q32 0 32 -9v-444z
M241 868q0 19 7.5 35.5t20.5 28.5t30 19t36 7t36 -7t30 -19t20.5 -28.5t7.5 -35.5t-7.5 -35.5t-20.5 -28.5t-30 -19t-36 -7t-36 7t-30 19t-20.5 28.5t-7.5 35.5zM284 868q0 -23 15 -37t36 -14q23 0 36 15t13 36t-13 36t-36 15q-21 0 -36 -14t-15 -37z" />
    <glyph glyph-name="uring" unicode="&#x16f;" horiz-adv-x="578" 
d="M437 79q-25 -43 -68 -66t-103 -23q-47 0 -86 12.5t-62 38.5q-26 26 -36.5 66.5t-10.5 102.5v308q0 5 5 7.5t23 2.5h8q18 0 23.5 -2.5t5.5 -7.5v-264q0 -65 4 -102t24 -60q34 -40 111 -40q38 0 66 11t48 31q10 10 18.5 24t13.5 34t8 48.5t3 68.5v249q0 5 5 7.5t23 2.5h8
q18 0 23.5 -2.5t5.5 -7.5v-347q0 -39 1 -78q0 -12 1 -40t1 -43q0 -6 -4 -8q-5 -2 -20 -2h-8q-17 0 -21 1.5t-5 8.5zM195 668q0 19 7.5 35.5t20.5 28.5t30 19t36 7t36 -7t30 -19t20.5 -28.5t7.5 -35.5t-7.5 -35.5t-20.5 -28.5t-30 -19t-36 -7t-36 7t-30 19t-20.5 28.5
t-7.5 35.5zM238 668q0 -23 15 -37t36 -14q23 0 36 15t13 36t-13 36t-36 15q-21 0 -36 -14t-15 -37z" />
    <glyph glyph-name="Uhungarumlaut" unicode="&#x170;" horiz-adv-x="670" 
d="M595 267q0 -77 -17 -128t-52 -84q-33 -32 -81 -48.5t-109 -16.5q-125 0 -192 64q-35 33 -52 84t-17 128v445q0 9 29 9h8q32 0 32 -9v-436q0 -65 13 -108.5t39 -69.5q24 -25 59.5 -37t80.5 -12q91 0 139 49q26 26 39 69.5t13 108.5v436q0 9 29 9h7q32 0 32 -9v-444z
M324 913q17 0 21 -2.5t0 -7.5l-88 -119q-3 -4 -8 -5t-19 -1h-4q-24 0 -20 7l67 118q3 5 9.5 7.5t26.5 2.5h15zM481 913q17 0 21 -2.5t0 -7.5l-88 -119q-3 -4 -8 -5t-19 -1h-4q-24 0 -20 7l67 118q3 5 9.5 7.5t26.5 2.5h15z" />
    <glyph glyph-name="uhungarumlaut" unicode="&#x171;" horiz-adv-x="578" 
d="M437 79q-25 -43 -68 -66t-103 -23q-47 0 -86 12.5t-62 38.5q-26 26 -36.5 66.5t-10.5 102.5v308q0 5 5 7.5t23 2.5h8q18 0 23.5 -2.5t5.5 -7.5v-264q0 -65 4 -102t24 -60q34 -40 111 -40q38 0 66 11t48 31q10 10 18.5 24t13.5 34t8 48.5t3 68.5v249q0 5 5 7.5t23 2.5h8
q18 0 23.5 -2.5t5.5 -7.5v-347q0 -39 1 -78q0 -12 1 -40t1 -43q0 -6 -4 -8q-5 -2 -20 -2h-8q-17 0 -21 1.5t-5 8.5zM268 721q17 0 21 -2.5t0 -7.5l-88 -119q-3 -4 -8 -5t-19 -1h-4q-24 0 -20 7l67 118q3 5 9.5 7.5t26.5 2.5h15zM425 721q17 0 21 -2.5t0 -7.5l-88 -119
q-3 -4 -8 -5t-19 -1h-4q-24 0 -20 7l67 118q3 5 9.5 7.5t26.5 2.5h15z" />
    <glyph glyph-name="Uogonek" unicode="&#x172;" horiz-adv-x="670" 
d="M476 -213q-35 -16 -73 -16q-20 0 -38.5 6.5t-32.5 18.5t-22.5 29t-8.5 39q0 40 24 72.5t58 57.5q-9 -2 -22.5 -3t-24.5 -1q-125 0 -192 64q-35 33 -52 84t-17 128v445q0 9 29 9h8q32 0 32 -9v-436q0 -65 13 -108.5t39 -69.5q24 -25 59.5 -37t80.5 -12q91 0 139 49
q26 26 39 69.5t13 108.5v436q0 9 29 9h7q32 0 32 -9v-444q0 -77 -17 -128t-52 -84q-31 -29 -67.5 -54t-62.5 -52q-17 -17 -26.5 -35.5t-9.5 -41.5q0 -26 15.5 -41.5t42.5 -15.5q13 0 25.5 3t23.5 6q3 1 5.5 -1.5t4.5 -12.5l1 -5q3 -16 -2 -18z" />
    <glyph glyph-name="uogonek" unicode="&#x173;" horiz-adv-x="578" 
d="M324 -133q0 50 33 88.5t84 58.5l-4 65q-25 -43 -68 -66t-103 -23q-47 0 -86 12.5t-62 38.5q-26 26 -36.5 66.5t-10.5 102.5v308q0 5 5 7.5t23 2.5h8q18 0 23.5 -2.5t5.5 -7.5v-264q0 -65 4 -102t24 -60q34 -40 111 -40q38 0 66 11t48 31q10 10 18.5 24t13.5 34t8 48.5
t3 68.5v249q0 5 5 7.5t23 2.5h8q18 0 23.5 -2.5t5.5 -7.5v-347q0 -105 3 -159q0 -6 -1.5 -8t-7.5 -4q-27 -7 -51 -22.5t-38 -38.5q-21 -33 -21 -67q0 -28 15.5 -42.5t42.5 -14.5q13 0 25.5 3t23.5 6q3 1 5.5 -1.5t4.5 -12.5l1 -5q3 -16 -2 -18q-35 -16 -73 -16
q-41 0 -70.5 25.5t-29.5 70.5z" />
    <glyph glyph-name="Wcircumflex" unicode="&#x174;" horiz-adv-x="956" 
d="M735 14q-2 -9 -12 -11.5t-33 -2.5h-5q-23 0 -33.5 2.5t-12.5 11.5l-158 577l-158 -577q-2 -9 -12 -11.5t-33 -2.5h-5q-23 0 -32.5 2.5t-12.5 11.5l-198 693q-1 2 -1 4q0 5 4 7q5 2 26 2h11q18 0 25 -2.5t9 -8.5l174 -642l173 643q2 5 7 7.5t22 2.5h8q17 0 22 -2.5t7 -7.5
l175 -644l170 644q2 6 7 8t24 2h7q20 0 25 -3q4 -2 4 -5q0 -2 -1 -3zM495 921q15 0 22 -2.5t12 -7.5l94 -100q5 -5 -4 -16l-5 -6q-10 -11 -16 -6l-116 97l-116 -97q-6 -5 -16 6l-5 6q-9 11 -4 16l94 100q5 5 12 7.5t22 2.5h26z" />
    <glyph glyph-name="wcircumflex" unicode="&#x175;" horiz-adv-x="788" 
d="M226 53l120 464q2 7 8.5 9t28.5 2h9q24 0 30 -2t8 -8l132 -465l40 121q18 57 33.5 112.5t28.5 111.5t25 118q2 8 6 10t24 2h5q17 0 23 -2q5 -2 5 -5q0 -1 -1 -2l-35 -149q-17 -66 -34 -124t-36 -112l-41 -113q-5 -11 -12.5 -16t-30.5 -5h-8q-23 0 -31.5 4.5t-10.5 12.5
l-66 235l-28 102l-30 115q-14 -64 -26 -113.5t-27 -104.5l-64 -231q-3 -11 -12 -15.5t-32 -4.5h-8q-21 0 -30 4t-12 13l-151 498q-1 2 -1 4q0 5 5 7t25 2h8q20 0 25.5 -2t7.5 -10zM401 729q15 0 22 -2.5t12 -7.5l94 -100q5 -5 -4 -16l-5 -6q-10 -11 -16 -6l-116 97l-116 -97
q-6 -5 -16 6l-5 6q-9 11 -4 16l94 100q5 5 12 7.5t22 2.5h26z" />
    <glyph glyph-name="Ycircumflex" unicode="&#x176;" horiz-adv-x="523" 
d="M254 0q-29 0 -29 9v269l-211 430q-1 2 -1 3q0 3 3 5q5 4 27 4h8q21 0 28 -2.5t10 -8.5l177 -369l175 371q3 6 9 7.5t25 1.5h9q17 0 22 -3q3 -2 3 -5q0 -2 -1 -4l-214 -430v-269q0 -9 -32 -9h-8zM276 921q15 0 22 -2.5t12 -7.5l94 -100q5 -5 -4 -16l-5 -6q-10 -11 -16 -6
l-116 97l-116 -97q-6 -5 -16 6l-5 6q-9 11 -4 16l94 100q5 5 12 7.5t22 2.5h26z" />
    <glyph glyph-name="ycircumflex" unicode="&#x177;" horiz-adv-x="509" 
d="M198 264q18 -48 34 -97l37 -110l35 107q15 46 32 93l92 261q2 6 7.5 8t23.5 2h5q15 0 23 -2t6 -8l-192 -539q-21 -56 -42.5 -97t-44.5 -66q-29 -32 -66 -46t-79 -14q-17 0 -38 3t-36 10q-5 2 -5 7t4 17l3 9q5 13 7.5 17.5t7.5 2.5q12 -4 25 -6.5t28 -2.5q31 0 55.5 9.5
t45 30.5t37.5 53.5t33 79.5l-206 530q-2 6 3 9t27 3h8q19 0 26.5 -2t9.5 -8zM275 729q15 0 22 -2.5t12 -7.5l94 -100q5 -5 -4 -16l-5 -6q-10 -11 -16 -6l-116 97l-116 -97q-6 -5 -16 6l-5 6q-9 11 -4 16l94 100q5 5 12 7.5t22 2.5h26z" />
    <glyph glyph-name="Ydieresis" unicode="&#x178;" horiz-adv-x="523" 
d="M254 0q-29 0 -29 9v269l-211 430q-1 2 -1 3q0 3 3 5q5 4 27 4h8q21 0 28 -2.5t10 -8.5l177 -369l175 371q3 6 9 7.5t25 1.5h9q17 0 22 -3q3 -2 3 -5q0 -2 -1 -4l-214 -430v-269q0 -9 -32 -9h-8zM113 846q0 20 13.5 34t33.5 14t34 -14t14 -34t-14 -33.5t-34 -13.5
t-33.5 13.5t-13.5 33.5zM315 846q0 20 13.5 34t33.5 14t34 -14t14 -34t-14 -33.5t-34 -13.5t-33.5 13.5t-13.5 33.5z" />
    <glyph glyph-name="Zacute" unicode="&#x179;" horiz-adv-x="538" 
d="M122 57h369q5 0 7 -6t2 -21v-4q0 -26 -9 -26h-426q-14 0 -18 2t-4 8v20q0 16 4 26t14 27l351 580h-341q-5 0 -7 6t-2 21v4q0 26 9 26h399q14 0 18 -2t4 -8v-15q0 -16 -4 -26t-14 -27zM346 913q17 0 21 -2.5t0 -7.5l-88 -119q-3 -4 -8 -5t-19 -1h-4q-24 0 -20 7l67 118
q3 5 9.5 7.5t26.5 2.5h15z" />
    <glyph glyph-name="zacute" unicode="&#x17a;" horiz-adv-x="455" 
d="M407 56q5 0 6.5 -4.5t1.5 -22.5v-3q0 -17 -1.5 -21.5t-6.5 -4.5h-356q-5 0 -7 4t-2 18v5q0 11 1 16.5t5 10.5l272 418h-258q-5 0 -6.5 4.5t-1.5 21.5v3q0 18 1.5 22.5t6.5 4.5h330q6 0 7.5 -3.5t1.5 -18.5v-4q0 -13 -1 -18.5t-6 -12.5l-271 -415h284zM289 721
q17 0 21 -2.5t0 -7.5l-88 -119q-3 -4 -8 -5t-19 -1h-4q-24 0 -20 7l67 118q3 5 9.5 7.5t26.5 2.5h15z" />
    <glyph glyph-name="Zdotaccent" unicode="&#x17b;" horiz-adv-x="538" 
d="M122 57h369q5 0 7 -6t2 -21v-4q0 -26 -9 -26h-426q-14 0 -18 2t-4 8v20q0 16 4 26t14 27l351 580h-341q-5 0 -7 6t-2 21v4q0 26 9 26h399q14 0 18 -2t4 -8v-15q0 -16 -4 -26t-14 -27zM238 840q0 20 13 33.5t33 13.5t33.5 -13.5t13.5 -33.5t-13.5 -33t-33.5 -13t-33 13
t-13 33z" />
    <glyph glyph-name="zdotaccent" unicode="&#x17c;" horiz-adv-x="455" 
d="M407 56q5 0 6.5 -4.5t1.5 -22.5v-3q0 -17 -1.5 -21.5t-6.5 -4.5h-356q-5 0 -7 4t-2 18v5q0 11 1 16.5t5 10.5l272 418h-258q-5 0 -6.5 4.5t-1.5 21.5v3q0 18 1.5 22.5t6.5 4.5h330q6 0 7.5 -3.5t1.5 -18.5v-4q0 -13 -1 -18.5t-6 -12.5l-271 -415h284zM187 680
q0 20 13 33.5t33 13.5t33.5 -13.5t13.5 -33.5t-13.5 -33t-33.5 -13t-33 13t-13 33z" />
    <glyph glyph-name="Zcaron" unicode="&#x17d;" horiz-adv-x="538" 
d="M122 57h369q5 0 7 -6t2 -21v-4q0 -26 -9 -26h-426q-14 0 -18 2t-4 8v20q0 16 4 26t14 27l351 580h-341q-5 0 -7 6t-2 21v4q0 26 9 26h399q14 0 18 -2t4 -8v-15q0 -16 -4 -26t-14 -27zM136 886q-3 4 -2.5 6.5t6.5 9.5l5 6q6 7 9 8t7 -2l116 -97l116 97q4 3 7 2t9 -8l5 -6
q6 -7 6 -9.5t-2 -6.5l-94 -100q-5 -5 -12 -7.5t-22 -2.5h-26q-15 0 -22 2.5t-12 7.5z" />
    <glyph glyph-name="zcaron" unicode="&#x17e;" horiz-adv-x="455" 
d="M407 56q5 0 6.5 -4.5t1.5 -22.5v-3q0 -17 -1.5 -21.5t-6.5 -4.5h-356q-5 0 -7 4t-2 18v5q0 11 1 16.5t5 10.5l272 418h-258q-5 0 -6.5 4.5t-1.5 21.5v3q0 18 1.5 22.5t6.5 4.5h330q6 0 7.5 -3.5t1.5 -18.5v-4q0 -13 -1 -18.5t-6 -12.5l-271 -415h284zM218 583
q-15 0 -22 2.5t-12 7.5l-94 100q-5 5 4 16l5 6q10 11 16 6l116 -97l116 97q6 5 16 -6l5 -6q9 -11 4 -16l-94 -100q-5 -5 -12 -7.5t-22 -2.5h-26z" />
    <glyph glyph-name="longs" unicode="&#x17f;" horiz-adv-x="299" 
d="M176 10q0 -5 -6 -7.5t-22 -2.5h-8q-17 0 -23 2.5t-6 7.5v462h-70q-5 0 -7 5t-2 19v7q0 15 2 20t7 5h70v41q0 100 41 156.5t136 56.5q48 0 91 -17q9 -4 3 -26l-2 -7q-4 -13 -7 -17.5t-10 -2.5q-16 5 -34 8.5t-38 3.5q-35 0 -57 -10.5t-35 -30.5t-18 -49t-5 -67v-557z" />
    <glyph glyph-name="florin" unicode="&#x192;" 
d="M262 385h-108q-5 0 -6.5 5t-1.5 19v3q0 14 1.5 18t6.5 4h114l8 63q16 126 64 184t133 58q21 0 40 -4t31 -10q5 -3 4.5 -8t-3.5 -16l-3 -10q-4 -12 -7 -15t-9 -1q-13 3 -26 5t-25 2q-63 0 -92 -44.5t-39 -131.5l-9 -72h133q5 0 6.5 -4t1.5 -18v-3q0 -14 -1.5 -19t-6.5 -5
h-139l-32 -258q-16 -126 -64 -184t-133 -58q-21 0 -40 4t-31 10q-5 3 -4.5 8t3.5 16l3 10q4 12 7 15t9 1q13 -3 26 -5t25 -2q63 0 91.5 44.5t39.5 131.5z" />
    <glyph glyph-name="Aringacute" unicode="&#x1fa;" horiz-adv-x="626" 
d="M219 782q0 19 7.5 35.5t20.5 28.5t30 19t36 7t36 -7t30 -19t20.5 -28.5t7.5 -35.5q0 -27 -14 -48t-37 -32l245 -691q2 -5 -3 -8t-27 -3h-10q-20 0 -27.5 2t-9.5 8l-61 184h-308l-61 -184q-2 -6 -10 -8t-25 -2h-5q-21 0 -26 3t-3 8l241 693q-21 11 -34 31.5t-13 46.5z
M173 250h272l-135 407zM262 782q0 -23 15 -37t36 -14q23 0 36 15t13 36t-13 36t-36 15q-21 0 -36 -14t-15 -37zM360 1033q17 0 21 -2.5t0 -7.5l-88 -119q-3 -4 -8 -5t-19 -1h-4q-24 0 -20 7l67 118q3 5 9.5 7.5t26.5 2.5h15z" />
    <glyph glyph-name="aringacute" unicode="&#x1fb;" horiz-adv-x="563" 
d="M484 223q0 -65 1.5 -113.5t5.5 -101.5q0 -5 -5 -6.5t-20 -1.5h-3q-17 0 -21.5 2t-5.5 7l-8 62q-23 -39 -65.5 -60t-95.5 -21q-57 0 -98.5 21t-68.5 57t-40 84.5t-13 102.5q0 64 17 116.5t47.5 89.5t72.5 57t92 20q52 0 88.5 -20t59.5 -53l5 53q1 6 6.5 8t21.5 2h7
q16 0 19 -2t3 -10q0 -7 -0.5 -15.5t-0.5 -16.5q-1 -23 -1 -54v-61v-146zM419 396q-25 38 -58 60t-81 22q-76 0 -119.5 -59t-43.5 -159q0 -39 7.5 -77t25.5 -68t48 -48t75 -18q73 0 110 41q10 12 17 24.5t11.5 30t6 42t1.5 59.5v150zM187 659q0 19 7.5 35.5t20.5 28.5t30 19
t36 7t36 -7t30 -19t20.5 -28.5t7.5 -35.5t-7.5 -35.5t-20.5 -28.5t-30 -19t-36 -7t-36 7t-30 19t-20.5 28.5t-7.5 35.5zM230 659q0 -23 15 -37t36 -14q23 0 36 15t13 36t-13 36t-36 15q-21 0 -36 -14t-15 -37zM334 903q17 0 21 -2.5t0 -7.5l-88 -119q-3 -4 -8 -5t-19 -1h-4
q-24 0 -20 7l67 118q3 5 9.5 7.5t26.5 2.5h15z" />
    <glyph glyph-name="AEacute" unicode="&#x1fc;" horiz-adv-x="895" 
d="M410 709q4 6 8.5 8.5t24.5 2.5h386q5 0 7 -5t2 -21v-4q0 -17 -2 -22t-7 -5h-317v-270h269q5 0 7 -5t2 -21v-4q0 -17 -2 -22t-7 -5h-269v-279h321q5 0 7 -5t2 -21v-4q0 -17 -2 -22t-7 -5h-390v199h-255l-107 -189q-3 -5 -11 -7.5t-25 -2.5h-6q-23 0 -27.5 3t-1.5 8z
M443 256v392l-223 -392h223zM681 913q17 0 21 -2.5t0 -7.5l-88 -119q-3 -4 -8 -5t-19 -1h-4q-24 0 -20 7l67 118q3 5 9.5 7.5t26.5 2.5h15z" />
    <glyph glyph-name="aeacute" unicode="&#x1fd;" horiz-adv-x="863" 
d="M455 243q2 -54 15.5 -92t35.5 -59t49.5 -31t66.5 -10q38 0 73 8t64 22q8 4 12 1.5t10 -17.5l4 -10q8 -21 -1 -26q-75 -39 -173 -39q-66 0 -114 27.5t-70 69.5q-31 -39 -81 -68t-124 -29q-37 0 -69.5 10.5t-56.5 31t-37.5 51t-13.5 70.5q0 85 56 127.5t153 42.5
q67 0 133 -26l1 33q2 81 -32 115t-112 34q-32 0 -67.5 -6.5t-70.5 -20.5q-6 -2 -9.5 1.5t-8.5 17.5l-2 6q-5 14 -5 20t5 8q36 16 81 24.5t86 8.5q33 0 62.5 -6.5t53.5 -19.5t40.5 -32.5t23.5 -46.5q25 49 69.5 77t108.5 28q60 0 104 -29t69 -79q17 -35 25.5 -76t8.5 -86
q0 -17 -3 -21t-11 -4h-349zM236 48q55 0 97 23.5t70 65.5q-17 46 -18 105q-26 12 -59.5 20.5t-69.5 8.5q-62 0 -101.5 -27t-39.5 -87q0 -54 32 -81.5t89 -27.5zM751 295q-1 34 -9.5 67t-26 58.5t-44 41t-62.5 15.5q-68 0 -107.5 -45.5t-45.5 -136.5h295zM526 721
q17 0 21 -2.5t0 -7.5l-88 -119q-3 -4 -8 -5t-19 -1h-4q-24 0 -20 7l67 118q3 5 9.5 7.5t26.5 2.5h15z" />
    <glyph glyph-name="Oslashacute" unicode="&#x1fe;" horiz-adv-x="693" 
d="M356 730q51 0 96 -15t80 -44l62 86q3 5 8.5 4.5t17.5 -9.5l12 -9q12 -9 14 -13.5t-1 -9.5l-68 -95q33 -45 51 -108.5t18 -145.5q0 -88 -21.5 -158.5t-62 -120t-97.5 -76t-128 -26.5q-104 0 -174 57l-59 -82q-3 -5 -8.5 -4.5t-17.5 9.5l-12 9q-12 9 -14 13.5t1 9.5l65 91
q-34 45 -52.5 108.5t-18.5 148.5q0 88 21.5 158t62 119.5t97.5 76t128 26.5zM353 671q-54 0 -97.5 -21t-73.5 -61.5t-46.5 -99.5t-16.5 -135q0 -63 11 -113t31 -88l333 464q-56 54 -141 54zM574 367q0 121 -41 197l-332 -464q54 -51 139 -51q54 0 97 21.5t73.5 62t47 100
t16.5 134.5zM414 913q17 0 21 -2.5t0 -7.5l-88 -119q-3 -4 -8 -5t-19 -1h-4q-24 0 -20 7l67 118q3 5 9.5 7.5t26.5 2.5h15z" />
    <glyph glyph-name="oslashacute" unicode="&#x1ff;" horiz-adv-x="566" 
d="M273 -10q-77 0 -126 33l-35 -48q-4 -5 -9.5 -4.5t-19.5 10.5l-6 4q-13 9 -15 13.5t3 10.5l39 53q-27 33 -42 81t-15 109q0 71 17.5 124.5t49.5 89.5t77.5 54t101.5 18q75 0 127 -34l41 57q5 6 10 4.5t19 -11.5l4 -3q14 -10 16.5 -14.5t-2.5 -11.5l-44 -62
q26 -33 40.5 -80t14.5 -107q0 -71 -17.5 -124.5t-49.5 -89.5t-77.5 -54t-101.5 -18zM117 259q0 -36 6.5 -72.5t22.5 -65.5l235 329q-17 14 -40 21.5t-52 7.5q-34 0 -65 -12t-55 -38.5t-38 -68.5t-14 -101zM449 269q0 35 -6.5 70t-22.5 64l-235 -327q17 -13 39.5 -20t51.5 -7
q34 0 65.5 12t55.5 38.5t38 68t14 101.5zM346 721q17 0 21 -2.5t0 -7.5l-88 -119q-3 -4 -8 -5t-19 -1h-4q-24 0 -20 7l67 118q3 5 9.5 7.5t26.5 2.5h15z" />
    <glyph glyph-name="Scommaaccent" unicode="&#x218;" horiz-adv-x="513" 
d="M49 47q-5 4 -5 9t9 20l3 5q8 12 12 15.5t9 0.5q40 -26 81 -38t79 -12q75 0 120.5 38t45.5 98q0 31 -14 54.5t-37 42t-52 34.5l-61 32q-32 16 -62 34.5t-53.5 42t-38 54.5t-14.5 72t16.5 74.5t45 57t65 36.5t77.5 13q46 0 90 -13.5t76 -35.5q6 -4 5 -9t-8 -17l-3 -5
q-8 -14 -12 -16.5t-9 0.5q-30 17 -63.5 28t-71.5 11q-60 0 -100 -32t-40 -89q0 -29 12 -51t32 -40t46 -33l54 -29q34 -17 67.5 -36t60.5 -43.5t43.5 -56.5t16.5 -77q0 -44 -16.5 -80t-46.5 -61.5t-72 -40t-93 -14.5q-59 0 -110.5 16.5t-83.5 40.5zM212 -265q-7 7 -1 13
q17 17 33 41.5t16 45.5q0 13 -5.5 22t-11.5 16.5t-11.5 15.5t-5.5 20q0 17 12 27.5t29 10.5q23 0 36 -16t13 -38q0 -47 -22 -91t-63 -76q-6 -4 -14 4z" />
    <glyph glyph-name="scommaaccent" unicode="&#x219;" horiz-adv-x="449" 
d="M378 454q-8 -12 -13 -14t-10 2q-29 20 -59.5 30t-68.5 10q-51 0 -80.5 -22t-29.5 -64q0 -25 9 -40.5t25.5 -25.5t38 -16.5t47.5 -13.5q36 -9 66 -20t52.5 -27.5t35 -41t12.5 -61.5q0 -78 -52.5 -119t-136.5 -41q-53 0 -94 14t-70 33q-5 3 -5 7t8 18l3 6q8 16 12.5 18.5
t10.5 -1.5q28 -17 63.5 -29t69.5 -12q60 0 95.5 23t35.5 75q0 23 -8.5 38.5t-25.5 26.5t-41.5 19t-56.5 16q-37 9 -67.5 21t-49.5 29q-41 36 -41 96q0 36 13 64t36.5 47t55.5 29t71 10q45 0 86 -14t72 -38q5 -4 4 -9.5t-9 -16.5zM166 -265q-7 7 -1 13q17 17 33 41.5t16 45.5
q0 13 -5.5 22t-11.5 16.5t-11.5 15.5t-5.5 20q0 17 12 27.5t29 10.5q23 0 36 -16t13 -38q0 -47 -22 -91t-63 -76q-6 -4 -14 4z" />
    <glyph glyph-name="uni021A" unicode="&#x21a;" horiz-adv-x="516" 
d="M25 663q-5 0 -7 6t-2 21v4q0 26 9 26h466q5 0 7 -6t2 -21v-4q0 -26 -9 -26h-195v-654q0 -9 -32 -9h-8q-29 0 -29 9v654h-202zM203 -265q-7 7 -1 13q17 17 33 41.5t16 45.5q0 13 -5.5 22t-11.5 16.5t-11.5 15.5t-5.5 20q0 17 12 27.5t29 10.5q23 0 36 -16t13 -38
q0 -47 -22 -91t-63 -76q-6 -4 -14 4z" />
    <glyph glyph-name="uni021B" unicode="&#x21b;" horiz-adv-x="365" 
d="M309 478h-141v-321q0 -36 3 -57.5t15 -33.5q11 -11 25.5 -15.5t35.5 -4.5q20 0 39.5 3t36.5 9q7 2 8.5 -1t5.5 -17l2 -7q3 -11 3 -16t-5 -8q-24 -10 -51.5 -14.5t-53.5 -4.5q-31 0 -54.5 8.5t-39.5 22.5q-20 20 -27.5 49.5t-7.5 79.5v328h-70q-4 0 -5 4.5t-1 18.5v3
q0 14 1 19t6 5h69v149q0 4 4 5t25 1h7q20 0 24.5 -1.5t4.5 -4.5v-149h141q5 0 6 -5t1 -19v-3q0 -14 -1 -18.5t-6 -4.5zM169 -265q-7 7 -1 13q17 17 33 41.5t16 45.5q0 13 -5.5 22t-11.5 16.5t-11.5 15.5t-5.5 20q0 17 12 27.5t29 10.5q23 0 36 -16t13 -38q0 -47 -22 -91
t-63 -76q-6 -4 -14 4z" />
    <glyph glyph-name="circumflex" unicode="&#x2c6;" horiz-adv-x="354" 
d="M190 729q15 0 22 -2.5t12 -7.5l94 -100q5 -5 -4 -16l-5 -6q-10 -11 -16 -6l-116 97l-116 -97q-6 -5 -16 6l-5 6q-9 11 -4 16l94 100q5 5 12 7.5t22 2.5h26z" />
    <glyph glyph-name="caron" unicode="&#x2c7;" horiz-adv-x="354" 
d="M164 583q-15 0 -22 2.5t-12 7.5l-94 100q-5 5 4 16l5 6q10 11 16 6l116 -97l116 97q6 5 16 -6l5 -6q9 -11 4 -16l-94 -100q-5 -5 -12 -7.5t-22 -2.5h-26z" />
    <glyph glyph-name="breve" unicode="&#x2d8;" horiz-adv-x="354" 
d="M177 595q-29 0 -53.5 7.5t-43 22t-29 35t-10.5 46.5q0 3 2.5 4.5t16.5 1.5h12q13 0 15.5 -1.5t3.5 -8.5q4 -32 26 -49t60 -17t60 17t26 49q1 7 3.5 8.5t15.5 1.5h12q14 0 16.5 -1.5t2.5 -4.5q0 -26 -10.5 -46.5t-29 -35t-43.5 -22t-53 -7.5z" />
    <glyph glyph-name="dotaccent" unicode="&#x2d9;" horiz-adv-x="354" 
d="M130 680q0 20 13 33.5t33 13.5t33.5 -13.5t13.5 -33.5t-13.5 -33t-33.5 -13t-33 13t-13 33z" />
    <glyph glyph-name="ring" unicode="&#x2da;" horiz-adv-x="354" 
d="M83 668q0 19 7.5 35.5t20.5 28.5t30 19t36 7t36 -7t30 -19t20.5 -28.5t7.5 -35.5t-7.5 -35.5t-20.5 -28.5t-30 -19t-36 -7t-36 7t-30 19t-20.5 28.5t-7.5 35.5zM126 668q0 -23 15 -37t36 -14q23 0 36 15t13 36t-13 36t-36 15q-21 0 -36 -14t-15 -37z" />
    <glyph glyph-name="ogonek" unicode="&#x2db;" horiz-adv-x="354" 
d="M261 -213q-35 -16 -73 -16q-41 0 -70.5 24.5t-29.5 67.5q0 40 25 74t63 55q7 4 13.5 5.5t17.5 1.5h8q22 0 13 -6q-44 -29 -63.5 -59t-19.5 -62q0 -27 15.5 -42t42.5 -15q13 0 25.5 3t23.5 6q3 1 5.5 -1.5t4.5 -12.5l1 -5q3 -16 -2 -18z" />
    <glyph glyph-name="tilde" unicode="&#x2dc;" horiz-adv-x="354" 
d="M327 665q-14 -17 -38 -30.5t-50 -13.5q-21 0 -37 6t-30.5 13t-29 13t-31.5 6q-16 0 -28.5 -7t-29.5 -23q-6 -5 -16 8l-8 10q-7 10 -2 16q14 17 38 30.5t50 13.5q21 0 37 -6t30.5 -13t29 -13t31.5 -6q16 0 28.5 7t29.5 23q3 2 6.5 1t9.5 -9l8 -10q7 -10 2 -16z" />
    <glyph glyph-name="hungarumlaut" unicode="&#x2dd;" horiz-adv-x="354" 
d="M146 721q17 0 21 -2.5t0 -7.5l-88 -119q-3 -4 -8 -5t-19 -1h-4q-24 0 -20 7l67 118q3 5 9.5 7.5t26.5 2.5h15zM303 721q17 0 21 -2.5t0 -7.5l-88 -119q-3 -4 -8 -5t-19 -1h-4q-24 0 -20 7l67 118q3 5 9.5 7.5t26.5 2.5h15z" />
    <glyph glyph-name="uni0326" unicode="&#x326;" horiz-adv-x="354" 
d="M125 -265q-7 7 -1 13q17 17 33 41.5t16 45.5q0 13 -5.5 22t-11.5 16.5t-11.5 15.5t-5.5 20q0 17 12 27.5t29 10.5q23 0 36 -16t13 -38q0 -47 -22 -91t-63 -76q-6 -4 -14 4z" />
    <glyph glyph-name="uni2206" unicode="&#x394;" horiz-adv-x="621" 
d="M510 57l-200 597l-200 -597h400zM66 0q-14 0 -19 2.5t-5 8.5v26q0 13 2.5 24t7.5 27l212 619q3 8 9 10.5t29 2.5h16q23 0 29 -2.5t9 -10.5l212 -619q5 -16 7.5 -27t2.5 -24v-26q0 -6 -5 -8.5t-19 -2.5h-488z" />
    <glyph glyph-name="uni2206" unicode="&#x2206;" horiz-adv-x="621" 
d="M510 57l-200 597l-200 -597h400zM66 0q-14 0 -19 2.5t-5 8.5v26q0 13 2.5 24t7.5 27l212 619q3 8 9 10.5t29 2.5h16q23 0 29 -2.5t9 -10.5l212 -619q5 -16 7.5 -27t2.5 -24v-26q0 -6 -5 -8.5t-19 -2.5h-488z" />
    <glyph glyph-name="uni2126" unicode="&#x3a9;" horiz-adv-x="752" 
d="M376 671q-48 0 -88 -18t-69.5 -56t-46 -97t-16.5 -140q0 -123 43.5 -198.5t115.5 -109.5q5 -2 7.5 -6t2.5 -18v-3q0 -25 -8 -25h-251q-8 0 -8 25v3q0 14 1.5 18.5t6.5 4.5h165q-26 18 -52.5 43t-47.5 62.5t-34 89t-13 121.5q0 84 20.5 151t58.5 114t92 72.5t121 25.5
t121 -25.5t92 -72.5t58.5 -114t20.5 -151q0 -70 -13 -121.5t-34 -89t-47.5 -62.5t-52.5 -43h165q5 0 6.5 -4.5t1.5 -18.5v-3q0 -25 -8 -25h-251q-8 0 -8 25v3q0 14 2.5 18t7.5 6q72 34 115.5 109.5t43.5 198.5q0 81 -16.5 140t-46 97t-69.5 56t-88 18z" />
    <glyph glyph-name="uni2126" unicode="&#x2126;" horiz-adv-x="752" 
d="M376 671q-48 0 -88 -18t-69.5 -56t-46 -97t-16.5 -140q0 -123 43.5 -198.5t115.5 -109.5q5 -2 7.5 -6t2.5 -18v-3q0 -25 -8 -25h-251q-8 0 -8 25v3q0 14 1.5 18.5t6.5 4.5h165q-26 18 -52.5 43t-47.5 62.5t-34 89t-13 121.5q0 84 20.5 151t58.5 114t92 72.5t121 25.5
t121 -25.5t92 -72.5t58.5 -114t20.5 -151q0 -70 -13 -121.5t-34 -89t-47.5 -62.5t-52.5 -43h165q5 0 6.5 -4.5t1.5 -18.5v-3q0 -25 -8 -25h-251q-8 0 -8 25v3q0 14 2.5 18t7.5 6q72 34 115.5 109.5t43.5 198.5q0 81 -16.5 140t-46 97t-69.5 56t-88 18z" />
    <glyph glyph-name="pi" unicode="&#x3c0;" horiz-adv-x="648" 
d="M585 528q5 0 6.5 -4.5t1.5 -18.5v-2q0 -25 -8 -25h-117v-316q0 -56 12.5 -86.5t52.5 -30.5q29 0 62 15q5 2 8 0t7 -10l6 -14q7 -15 -1 -20q-17 -11 -40 -18.5t-47 -7.5q-69 0 -97.5 40.5t-28.5 110.5v337h-208v-469q0 -5 -8 -7t-20 -2h-8q-29 0 -29 9v469h-97q-8 0 -8 25
v2q0 14 1.5 18.5t6.5 4.5h553z" />
    <glyph glyph-name="Wgrave" unicode="&#x1e80;" horiz-adv-x="956" 
d="M735 14q-2 -9 -12 -11.5t-33 -2.5h-5q-23 0 -33.5 2.5t-12.5 11.5l-158 577l-158 -577q-2 -9 -12 -11.5t-33 -2.5h-5q-23 0 -32.5 2.5t-12.5 11.5l-198 693q-1 2 -1 4q0 5 4 7q5 2 26 2h11q18 0 25 -2.5t9 -8.5l174 -642l173 643q2 5 7 7.5t22 2.5h8q17 0 22 -2.5t7 -7.5
l175 -644l170 644q2 6 7 8t24 2h7q20 0 25 -3q4 -2 4 -5q0 -2 -1 -3zM450 913q20 0 26.5 -2.5t9.5 -7.5l67 -118q4 -7 -20 -7h-4q-14 0 -19 1t-8 5l-88 119q-4 5 0 7.5t21 2.5h15z" />
    <glyph glyph-name="wgrave" unicode="&#x1e81;" horiz-adv-x="788" 
d="M226 53l120 464q2 7 8.5 9t28.5 2h9q24 0 30 -2t8 -8l132 -465l40 121q18 57 33.5 112.5t28.5 111.5t25 118q2 8 6 10t24 2h5q17 0 23 -2q5 -2 5 -5q0 -1 -1 -2l-35 -149q-17 -66 -34 -124t-36 -112l-41 -113q-5 -11 -12.5 -16t-30.5 -5h-8q-23 0 -31.5 4.5t-10.5 12.5
l-66 235l-28 102l-30 115q-14 -64 -26 -113.5t-27 -104.5l-64 -231q-3 -11 -12 -15.5t-32 -4.5h-8q-21 0 -30 4t-12 13l-151 498q-1 2 -1 4q0 5 5 7t25 2h8q20 0 25.5 -2t7.5 -10zM354 721q20 0 26.5 -2.5t9.5 -7.5l67 -118q4 -7 -20 -7h-4q-14 0 -19 1t-8 5l-88 119
q-4 5 0 7.5t21 2.5h15z" />
    <glyph glyph-name="Wacute" unicode="&#x1e82;" horiz-adv-x="956" 
d="M735 14q-2 -9 -12 -11.5t-33 -2.5h-5q-23 0 -33.5 2.5t-12.5 11.5l-158 577l-158 -577q-2 -9 -12 -11.5t-33 -2.5h-5q-23 0 -32.5 2.5t-12.5 11.5l-198 693q-1 2 -1 4q0 5 4 7q5 2 26 2h11q18 0 25 -2.5t9 -8.5l174 -642l173 643q2 5 7 7.5t22 2.5h8q17 0 22 -2.5t7 -7.5
l175 -644l170 644q2 6 7 8t24 2h7q20 0 25 -3q4 -2 4 -5q0 -2 -1 -3zM529 913q17 0 21 -2.5t0 -7.5l-88 -119q-3 -4 -8 -5t-19 -1h-4q-24 0 -20 7l67 118q3 5 9.5 7.5t26.5 2.5h15z" />
    <glyph glyph-name="wacute" unicode="&#x1e83;" horiz-adv-x="788" 
d="M226 53l120 464q2 7 8.5 9t28.5 2h9q24 0 30 -2t8 -8l132 -465l40 121q18 57 33.5 112.5t28.5 111.5t25 118q2 8 6 10t24 2h5q17 0 23 -2q5 -2 5 -5q0 -1 -1 -2l-35 -149q-17 -66 -34 -124t-36 -112l-41 -113q-5 -11 -12.5 -16t-30.5 -5h-8q-23 0 -31.5 4.5t-10.5 12.5
l-66 235l-28 102l-30 115q-14 -64 -26 -113.5t-27 -104.5l-64 -231q-3 -11 -12 -15.5t-32 -4.5h-8q-21 0 -30 4t-12 13l-151 498q-1 2 -1 4q0 5 5 7t25 2h8q20 0 25.5 -2t7.5 -10zM438 721q17 0 21 -2.5t0 -7.5l-88 -119q-3 -4 -8 -5t-19 -1h-4q-24 0 -20 7l67 118
q3 5 9.5 7.5t26.5 2.5h15z" />
    <glyph glyph-name="Wdieresis" unicode="&#x1e84;" horiz-adv-x="956" 
d="M735 14q-2 -9 -12 -11.5t-33 -2.5h-5q-23 0 -33.5 2.5t-12.5 11.5l-158 577l-158 -577q-2 -9 -12 -11.5t-33 -2.5h-5q-23 0 -32.5 2.5t-12.5 11.5l-198 693q-1 2 -1 4q0 5 4 7q5 2 26 2h11q18 0 25 -2.5t9 -8.5l174 -642l173 643q2 5 7 7.5t22 2.5h8q17 0 22 -2.5t7 -7.5
l175 -644l170 644q2 6 7 8t24 2h7q20 0 25 -3q4 -2 4 -5q0 -2 -1 -3zM333 846q0 20 13.5 34t33.5 14t34 -14t14 -34t-14 -33.5t-34 -13.5t-33.5 13.5t-13.5 33.5zM535 846q0 20 13.5 34t33.5 14t34 -14t14 -34t-14 -33.5t-34 -13.5t-33.5 13.5t-13.5 33.5z" />
    <glyph glyph-name="wdieresis" unicode="&#x1e85;" horiz-adv-x="788" 
d="M226 53l120 464q2 7 8.5 9t28.5 2h9q24 0 30 -2t8 -8l132 -465l40 121q18 57 33.5 112.5t28.5 111.5t25 118q2 8 6 10t24 2h5q17 0 23 -2q5 -2 5 -5q0 -1 -1 -2l-35 -149q-17 -66 -34 -124t-36 -112l-41 -113q-5 -11 -12.5 -16t-30.5 -5h-8q-23 0 -31.5 4.5t-10.5 12.5
l-66 235l-28 102l-30 115q-14 -64 -26 -113.5t-27 -104.5l-64 -231q-3 -11 -12 -15.5t-32 -4.5h-8q-21 0 -30 4t-12 13l-151 498q-1 2 -1 4q0 5 5 7t25 2h8q20 0 25.5 -2t7.5 -10zM240 654q0 20 13.5 34t33.5 14t34 -14t14 -34t-14 -33.5t-34 -13.5t-33.5 13.5t-13.5 33.5z
M442 654q0 20 13.5 34t33.5 14t34 -14t14 -34t-14 -33.5t-34 -13.5t-33.5 13.5t-13.5 33.5z" />
    <glyph glyph-name="Ygrave" unicode="&#x1ef2;" horiz-adv-x="523" 
d="M254 0q-29 0 -29 9v269l-211 430q-1 2 -1 3q0 3 3 5q5 4 27 4h8q21 0 28 -2.5t10 -8.5l177 -369l175 371q3 6 9 7.5t25 1.5h9q17 0 22 -3q3 -2 3 -5q0 -2 -1 -4l-214 -430v-269q0 -9 -32 -9h-8zM233 913q20 0 26.5 -2.5t9.5 -7.5l67 -118q4 -7 -20 -7h-4q-14 0 -19 1
t-8 5l-88 119q-4 5 0 7.5t21 2.5h15z" />
    <glyph glyph-name="ygrave" unicode="&#x1ef3;" horiz-adv-x="509" 
d="M198 264q18 -48 34 -97l37 -110l35 107q15 46 32 93l92 261q2 6 7.5 8t23.5 2h5q15 0 23 -2t6 -8l-192 -539q-21 -56 -42.5 -97t-44.5 -66q-29 -32 -66 -46t-79 -14q-17 0 -38 3t-36 10q-5 2 -5 7t4 17l3 9q5 13 7.5 17.5t7.5 2.5q12 -4 25 -6.5t28 -2.5q31 0 55.5 9.5
t45 30.5t37.5 53.5t33 79.5l-206 530q-2 6 3 9t27 3h8q19 0 26.5 -2t9.5 -8zM232 721q20 0 26.5 -2.5t9.5 -7.5l67 -118q4 -7 -20 -7h-4q-14 0 -19 1t-8 5l-88 119q-4 5 0 7.5t21 2.5h15z" />
    <glyph glyph-name="uni2000" unicode="&#x2000;" horiz-adv-x="516" 
 />
    <glyph glyph-name="uni2001" unicode="&#x2001;" horiz-adv-x="1033" 
 />
    <glyph glyph-name="uni2002" unicode="&#x2002;" horiz-adv-x="516" 
 />
    <glyph glyph-name="uni2003" unicode="&#x2003;" horiz-adv-x="1033" 
 />
    <glyph glyph-name="uni2004" unicode="&#x2004;" horiz-adv-x="344" 
 />
    <glyph glyph-name="uni2005" unicode="&#x2005;" horiz-adv-x="258" 
 />
    <glyph glyph-name="uni2006" unicode="&#x2006;" horiz-adv-x="172" 
 />
    <glyph glyph-name="uni2007" unicode="&#x2007;" horiz-adv-x="172" 
 />
    <glyph glyph-name="uni2008" unicode="&#x2008;" horiz-adv-x="129" 
 />
    <glyph glyph-name="uni2009" unicode="&#x2009;" horiz-adv-x="206" 
 />
    <glyph glyph-name="uni200A" unicode="&#x200a;" horiz-adv-x="57" 
 />
    <glyph glyph-name="uni2010" unicode="&#x2010;" horiz-adv-x="382" 
d="M322 330q5 0 6.5 -4.5t1.5 -18.5v-3q0 -25 -8 -25h-262q-8 0 -8 25v3q0 14 1.5 18.5t6.5 4.5h262z" />
    <glyph glyph-name="uni2011" unicode="&#x2011;" horiz-adv-x="382" 
d="M322 330q5 0 6.5 -4.5t1.5 -18.5v-3q0 -25 -8 -25h-262q-8 0 -8 25v3q0 14 1.5 18.5t6.5 4.5h262z" />
    <glyph glyph-name="figuredash" unicode="&#x2012;" horiz-adv-x="382" 
d="M322 330q5 0 6.5 -4.5t1.5 -18.5v-3q0 -25 -8 -25h-262q-8 0 -8 25v3q0 14 1.5 18.5t6.5 4.5h262z" />
    <glyph glyph-name="endash" unicode="&#x2013;" horiz-adv-x="500" 
d="M448 308q5 0 6.5 -4t1.5 -17v-3q0 -23 -8 -23h-396q-8 0 -8 23v3q0 13 1.5 17t6.5 4h396z" />
    <glyph glyph-name="emdash" unicode="&#x2014;" horiz-adv-x="1000" 
d="M948 308q5 0 6.5 -4t1.5 -17v-3q0 -23 -8 -23h-896q-8 0 -8 23v3q0 13 1.5 17t6.5 4h896z" />
    <glyph glyph-name="quoteleft" unicode="&#x2018;" horiz-adv-x="231" 
d="M179 716q8 -10 2 -16q-11 -11 -22 -24.5t-20 -28.5t-15 -30.5t-6 -28.5q0 -17 7 -28t16 -21t16 -20t7 -26q0 -22 -15.5 -35t-36.5 -13q-29 0 -45.5 20t-16.5 49q0 59 29.5 116t78.5 96q4 3 7.5 2.5t9.5 -7.5z" />
    <glyph glyph-name="quoteright" unicode="&#x2019;" horiz-adv-x="231" 
d="M52 459q-8 10 -2 16q11 11 22 24.5t20 28.5t15 30t6 29q0 17 -7 28t-16 21t-16 20t-7 26q0 22 15.5 35t36.5 13q29 0 45.5 -20t16.5 -49q0 -59 -29.5 -116t-78.5 -96q-4 -3 -7.5 -2.5t-9.5 7.5z" />
    <glyph glyph-name="quotesinglbase" unicode="&#x201a;" horiz-adv-x="231" 
d="M48 -166q-8 10 -2 16q11 11 22 24.5t20 28.5t15 30t6 29q0 17 -7 28t-16 21t-16 20t-7 26q0 22 15.5 35t36.5 13q29 0 45.5 -20t16.5 -49q0 -59 -29.5 -116t-78.5 -96q-4 -3 -7.5 -2.5t-9.5 7.5z" />
    <glyph glyph-name="quotedblleft" unicode="&#x201c;" horiz-adv-x="436" 
d="M384 716q8 -10 2 -16q-11 -11 -22 -24.5t-20 -28.5t-15 -30.5t-6 -28.5q0 -17 7 -28t16 -21t16 -20t7 -26q0 -22 -15.5 -35t-36.5 -13q-29 0 -45.5 20t-16.5 49q0 59 29.5 116t78.5 96q4 3 7.5 2.5t9.5 -7.5zM179 716q8 -10 2 -16q-11 -11 -22 -24.5t-20 -28.5t-15 -30.5
t-6 -28.5q0 -17 7 -28t16 -21t16 -20t7 -26q0 -22 -15.5 -35t-36.5 -13q-29 0 -45.5 20t-16.5 49q0 59 29.5 116t78.5 96q4 3 7.5 2.5t9.5 -7.5z" />
    <glyph glyph-name="quotedblright" unicode="&#x201d;" horiz-adv-x="436" 
d="M52 459q-8 10 -2 16q11 11 22 24.5t20 28.5t15 30t6 29q0 17 -7 28t-16 21t-16 20t-7 26q0 22 15.5 35t36.5 13q29 0 45.5 -20t16.5 -49q0 -59 -29.5 -116t-78.5 -96q-4 -3 -7.5 -2.5t-9.5 7.5zM257 459q-8 10 -2 16q11 11 22 24.5t20 28.5t15 30t6 29q0 17 -7 28t-16 21
t-16 20t-7 26q0 22 15.5 35t36.5 13q29 0 45.5 -20t16.5 -49q0 -59 -29.5 -116t-78.5 -96q-4 -3 -7.5 -2.5t-9.5 7.5z" />
    <glyph glyph-name="quotedblbase" unicode="&#x201e;" horiz-adv-x="436" 
d="M48 -166q-8 10 -2 16q11 11 22 24.5t20 28.5t15 30t6 29q0 17 -7 28t-16 21t-16 20t-7 26q0 22 15.5 35t36.5 13q29 0 45.5 -20t16.5 -49q0 -59 -29.5 -116t-78.5 -96q-4 -3 -7.5 -2.5t-9.5 7.5zM253 -166q-8 10 -2 16q11 11 22 24.5t20 28.5t15 30t6 29q0 17 -7 28
t-16 21t-16 20t-7 26q0 22 15.5 35t36.5 13q29 0 45.5 -20t16.5 -49q0 -59 -29.5 -116t-78.5 -96q-4 -3 -7.5 -2.5t-9.5 7.5z" />
    <glyph glyph-name="dagger" unicode="&#x2020;" horiz-adv-x="473" 
d="M267 -128q0 -5 -6 -7t-23 -2h-2q-30 0 -30 9v540h-174q-8 0 -8 25v3q0 14 1.5 18.5t6.5 4.5h174v248q0 9 30 9h2q17 0 23 -2t6 -7v-248h174q5 0 6.5 -4.5t1.5 -18.5v-3q0 -25 -8 -25h-174v-540z" />
    <glyph glyph-name="daggerdbl" unicode="&#x2021;" horiz-adv-x="473" 
d="M267 143h174q8 0 8 -25v-3q0 -14 -1.5 -18.5t-6.5 -4.5h-174v-220q0 -5 -6 -7t-23 -2h-2q-30 0 -30 9v220h-174q-5 0 -6.5 4.5t-1.5 18.5v3q0 25 8 25h174v297h-174q-8 0 -8 25v3q0 14 1.5 18.5t6.5 4.5h174v220q0 9 30 9h2q17 0 23 -2t6 -7v-220h174q5 0 6.5 -4.5
t1.5 -18.5v-3q0 -25 -8 -25h-174v-297z" />
    <glyph glyph-name="bullet" unicode="&#x2022;" horiz-adv-x="339" 
d="M54 353q0 24 9 45t24.5 37t36.5 25t45 9t45 -9t37 -25t25 -37t9 -45t-9 -45t-25 -36.5t-37 -24.5t-45 -9t-45 9t-36.5 24.5t-24.5 36.5t-9 45z" />
    <glyph glyph-name="ellipsis" unicode="&#x2026;" horiz-adv-x="723" 
d="M120 106q23 0 40 -16.5t17 -41.5q0 -26 -17 -42t-40 -16t-39.5 16t-16.5 42q0 25 16.5 41.5t39.5 16.5zM361 106q23 0 40 -16.5t17 -41.5q0 -26 -17 -42t-40 -16t-39.5 16t-16.5 42q0 25 16.5 41.5t39.5 16.5zM602 106q23 0 40 -16.5t17 -41.5q0 -26 -17 -42t-40 -16
t-39.5 16t-16.5 42q0 25 16.5 41.5t39.5 16.5z" />
    <glyph glyph-name="uni202F" unicode="&#x202f;" horiz-adv-x="206" 
 />
    <glyph glyph-name="perthousand" unicode="&#x2030;" horiz-adv-x="1270" 
d="M214 683q-45 0 -73 -40t-28 -120q0 -73 24 -111.5t72 -38.5t74 41.5t26 119.5q0 73 -24 111t-71 38zM217 730q72 0 114 -47t42 -147q0 -102 -44.5 -156.5t-122.5 -54.5q-72 0 -114 47.5t-42 146.5q0 103 44.5 157t122.5 54zM586 726q3 6 7.5 8.5t21.5 2.5h10
q15 0 19 -2.5t0 -10.5l-345 -731q-3 -6 -8.5 -8.5t-20.5 -2.5h-10q-15 0 -18.5 2.5t0.5 10.5zM677 348q-45 0 -73 -40t-28 -120q0 -73 24 -111.5t72 -38.5t74 41.5t26 119.5q0 73 -24 111t-71 38zM680 395q72 0 114 -47t42 -147q0 -102 -44.5 -156.5t-122.5 -54.5
q-72 0 -114 47.5t-42 146.5q0 103 44.5 157t122.5 54zM1061 348q-45 0 -73 -40t-28 -120q0 -73 24 -111.5t72 -38.5t74 41.5t26 119.5q0 73 -24 111t-71 38zM1064 395q72 0 114 -47t42 -147q0 -102 -44.5 -156.5t-122.5 -54.5q-72 0 -114 47.5t-42 146.5q0 103 44.5 157
t122.5 54z" />
    <glyph glyph-name="guilsinglleft" unicode="&#x2039;" horiz-adv-x="309" 
d="M72 307q0 8 1.5 12t3.5 7l134 194q4 5 8 5t14 -5l7 -4q11 -6 12 -10t-1 -8l-117 -194l117 -193q2 -4 1 -8t-12 -10l-7 -4q-10 -5 -14 -5t-8 5l-134 194q-2 3 -3.5 7t-1.5 12v5z" />
    <glyph glyph-name="guilsinglright" unicode="&#x203a;" horiz-adv-x="309" 
d="M237 302q0 -8 -1.5 -12t-3.5 -7l-134 -194q-4 -5 -8 -5t-14 5l-7 4q-11 6 -12 10t1 8l117 193l-117 194q-2 4 -1 8t12 10l7 4q10 5 14 5t8 -5l134 -194q2 -3 3.5 -7t1.5 -12v-5z" />
    <glyph glyph-name="fraction" unicode="&#x2044;" horiz-adv-x="323" 
d="M307 726q3 6 7.5 8.5t21.5 2.5h6q15 0 19 -2.5t0 -10.5l-345 -731q-3 -6 -8.5 -8.5t-20.5 -2.5h-6q-15 0 -18.5 2.5t0.5 10.5z" />
    <glyph glyph-name="uni205F" unicode="&#x205f;" horiz-adv-x="258" 
 />
    <glyph glyph-name="Euro" unicode="&#x20ac;" 
d="M112 460q22 135 95 202.5t176 67.5q47 0 87.5 -12.5t72.5 -31.5q5 -3 4 -8t-6 -16l-5 -11q-5 -11 -9 -13.5t-9 -0.5q-71 34 -130 34q-89 0 -138.5 -57t-65.5 -154h238q5 0 6.5 -3.5t1.5 -17.5v-3q0 -14 -1.5 -18.5t-6.5 -4.5h-244q-2 -15 -2 -29v-28v-25q0 -12 1 -23h232
q5 0 6.5 -3.5t1.5 -17.5v-3q0 -14 -1.5 -18.5t-6.5 -4.5h-226q16 -98 68 -155t143 -57q32 0 62.5 7.5t62.5 21.5q10 5 18 -15l4 -10q5 -12 5 -17t-6 -8q-35 -17 -73.5 -27.5t-86.5 -10.5q-58 0 -101.5 18.5t-76.5 50.5q-36 35 -59 87t-33 115h-82q-5 0 -6.5 4.5t-1.5 18.5v3
q0 14 1.5 17.5t6.5 3.5h77q-1 12 -1 22v21q0 16 0.5 31.5t1.5 30.5h-65q-5 0 -6.5 4.5t-1.5 18.5v3q0 14 1.5 17.5t6.5 3.5h71z" />
    <glyph glyph-name="afii61289" unicode="&#x2113;" horiz-adv-x="245" 
d="M136 112q0 -33 6.5 -47t29.5 -14q6 0 10.5 0.5t9.5 1.5q4 1 5.5 -2t3.5 -16l1 -7q1 -6 1 -10t-1 -6q-1 -4 -9 -6q-10 -3 -21 -4.5t-20 -1.5q-19 0 -36.5 5.5t-29.5 22.5q-8 13 -11.5 37.5t-3.5 66.5v351v80q0 36 -0.5 68t-1.5 61l-2 59q0 5 6 7t22 2h8q17 0 23 -2t6 -7
q1 -22 2 -55t1.5 -72.5t0.5 -81.5v-82v-348z" />
    <glyph glyph-name="afii61352" unicode="&#x2116;" horiz-adv-x="1077" 
d="M733 455q0 -27 5 -54t18 -48.5t35 -35.5t56 -14q24 0 46.5 9t39 28.5t26.5 50t10 72.5q0 27 -5 54t-18 48.5t-35 35.5t-56 14q-24 0 -46.5 -9t-39 -28.5t-26.5 -50t-10 -72.5zM1031 468q0 -104 -51 -161t-137 -57q-43 0 -75.5 15t-54 42t-32 63.5t-10.5 79.5
q0 104 51 161t137 57q43 0 75.5 -15t54 -42t32 -63.5t10.5 -79.5zM142 625v-616q0 -5 -5.5 -7t-22.5 -2h-7q-17 0 -22 2t-5 7v702q0 5 6 7t23 2h7q25 0 33 -2t12 -8l374 -615v616q0 5 5 7t22 2h7q17 0 22.5 -2t5.5 -7v-702q0 -5 -6 -7t-23 -2h-7q-25 0 -33 2t-12 8z" />
    <glyph glyph-name="trademark" unicode="&#x2122;" horiz-adv-x="891" 
d="M455 730q15 0 20 -1.5t7 -6.5l121 -276l113 276q2 5 7 6.5t20 1.5h15q17 0 21 -2.5t4 -7.5l26 -388q0 -6 -17 -6h-14q-11 0 -14.5 1.5t-3.5 4.5l-22 337l-111 -268q-2 -6 -21 -6h-9q-13 0 -17 1.5t-6 4.5l-115 258l-20 -327q0 -6 -17 -6h-14q-11 0 -14.5 1.5t-3.5 4.5
l28 388q1 5 4.5 7.5t20.5 2.5h12zM341 730q6 0 6 -17v-6q0 -11 -1.5 -14.5t-4.5 -3.5h-127v-357q0 -6 -17 -6h-16q-11 0 -14.5 1.5t-3.5 4.5v357h-127q-3 0 -4.5 3.5t-1.5 14.5v6q0 17 6 17h305z" />
    <glyph glyph-name="estimated" unicode="&#x212e;" horiz-adv-x="922" 
d="M206 352q-5 0 -5 -6v-202q0 -12 9 -24q48 -48 113 -78t140 -30q80 0 148 32.5t116 89.5h60q-57 -66 -141 -105t-184 -39q-85 0 -160 29t-131 79.5t-88.5 117.5t-32.5 144t32.5 144.5t88.5 117.5t131 79t160 29t159.5 -29t130 -79t88 -117.5t32.5 -144.5v-8h-666zM721 580
q0 13 -10 25q-48 48 -112 75.5t-136 27.5q-75 0 -139 -29t-113 -77q-10 -10 -10 -26v-199q0 -6 5 -6h510q5 0 5 6v203z" />
    <glyph glyph-name="partialdiff" unicode="&#x2202;" horiz-adv-x="551" 
d="M117 657q-8 -3 -12 -1.5t-9 12.5l-4 10q-5 12 -5.5 17.5t4.5 8.5q24 12 54 19t67 7q76 0 130.5 -39t89.5 -100.5t52 -138t17 -152.5q0 -71 -13.5 -128t-42 -97.5t-71.5 -62.5t-103 -22q-53 0 -93.5 17.5t-68.5 49t-42.5 73.5t-14.5 92q0 48 13.5 88.5t39.5 70.5t65.5 47
t91.5 17q46 0 88 -15t76 -38q-8 55 -24 106t-41.5 90t-62.5 62.5t-86 23.5q-50 0 -95 -17zM431 336q-33 21 -74.5 37.5t-86.5 16.5q-44 0 -72.5 -15t-45.5 -40t-24 -56t-7 -63q0 -76 38.5 -123t110.5 -47q88 0 124.5 73t36.5 217z" />
    <glyph glyph-name="product" unicode="&#x220f;" horiz-adv-x="698" 
d="M565 663v-821q0 -9 -29 -9h-8q-32 0 -32 9v821h-295v-821q0 -9 -32 -9h-8q-29 0 -29 9v821h-93q-5 0 -7 6t-2 21v4q0 26 9 26h619q9 0 9 -26v-4q0 -15 -2 -21t-7 -6h-93z" />
    <glyph glyph-name="summation" unicode="&#x2211;" horiz-adv-x="567" 
d="M366 281l-312 375q-11 12 -14.5 20t-3.5 19v18q0 5 4.5 6t17.5 1h494q9 0 9 -26v-4q0 -15 -2 -21t-7 -6h-423l290 -345q3 -4 4.5 -8.5t1.5 -15.5v-14q0 -11 -1.5 -16.5t-5.5 -10.5l-294 -363h427q5 0 7 -6t2 -21v-4q0 -26 -9 -26h-498q-13 0 -17.5 1t-4.5 6v18
q0 11 3.5 19t14.5 20z" />
    <glyph glyph-name="minus" unicode="&#x2212;" 
d="M49 341q-8 0 -8 22v3q0 13 1.5 17.5t6.5 4.5h476q5 0 6.5 -4.5t1.5 -17.5v-3q0 -22 -8 -22h-476z" />
    <glyph glyph-name="radical" unicode="&#x221a;" horiz-adv-x="644" 
d="M62 427q-8 0 -8 25v6q0 26 8 26h113q6 0 9.5 -5t8.5 -19l155 -460l256 811q2 5 7 8t25 3h5q20 0 25 -2.5t3 -10.5l-287 -883q-2 -4 -6.5 -5t-21.5 -1h-12q-21 0 -26 1t-7 5l-177 501h-70z" />
    <glyph glyph-name="infinity" unicode="&#x221e;" horiz-adv-x="823" 
d="M379 328q-33 45 -69 76t-84 31q-51 0 -83 -29.5t-32 -75.5t32 -75.5t83 -29.5q48 0 84 29t69 74zM411 293q-41 -60 -84.5 -88.5t-103.5 -28.5q-34 0 -64.5 10.5t-53.5 30t-36.5 48.5t-13.5 65t13.5 65t36.5 48.5t53.5 30t64.5 10.5q60 0 103.5 -28.5t84.5 -88.5
q41 60 84.5 88.5t103.5 28.5q34 0 64.5 -10.5t53.5 -30t36.5 -48.5t13.5 -65t-13.5 -65t-36.5 -48.5t-53.5 -30t-64.5 -10.5q-60 0 -103.5 28.5t-84.5 88.5zM443 332q33 -45 69 -76t84 -31q51 0 83 29.5t32 75.5t-32 75.5t-83 29.5q-48 0 -84 -29t-69 -74z" />
    <glyph glyph-name="integral" unicode="&#x222b;" horiz-adv-x="364" 
d="M185 48q0 64 -12.5 123t-27.5 118t-27.5 119.5t-12.5 126.5q0 95 45 145t128 50q14 0 29.5 -1.5t29.5 -6.5q4 -2 4 -5.5t-3 -16.5l-3 -13q-4 -16 -6.5 -18.5t-7.5 -1.5q-22 5 -39 5q-59 0 -81.5 -35.5t-22.5 -101.5q0 -64 12.5 -123t27.5 -118t27.5 -119.5t12.5 -126.5
q0 -95 -45 -145t-128 -50q-14 0 -29.5 1.5t-29.5 6.5q-4 2 -4 5.5t3 16.5l3 13q4 16 6.5 18.5t7.5 1.5q22 -5 39 -5q59 0 81.5 35.5t22.5 101.5z" />
    <glyph glyph-name="approxequal" unicode="&#x2248;" 
d="M402 447q35 0 55.5 20t32.5 57q2 4 4.5 5t13.5 -2l13 -4q7 -2 9.5 -4t1.5 -7q-12 -57 -48.5 -86t-88.5 -29q-36 0 -63 13.5t-52 30t-50.5 30t-57.5 13.5q-35 0 -55.5 -20t-32.5 -57q-2 -5 -4.5 -5.5t-13.5 2.5l-13 4q-7 2 -9.5 4t-1.5 7q12 57 48.5 86t88.5 29
q36 0 63 -13.5t52 -30t50.5 -30t57.5 -13.5zM402 243q35 0 55.5 20t32.5 57q2 4 4.5 5t13.5 -2l13 -4q7 -2 9.5 -4t1.5 -7q-12 -57 -48.5 -86t-88.5 -29q-36 0 -63 13.5t-52 30t-50.5 30t-57.5 13.5q-35 0 -55.5 -20t-32.5 -57q-2 -5 -4.5 -5.5t-13.5 2.5l-13 4q-7 2 -9.5 4
t-1.5 7q12 57 48.5 86t88.5 29q36 0 63 -13.5t52 -30t50.5 -30t57.5 -13.5z" />
    <glyph glyph-name="notequal" unicode="&#x2260;" 
d="M196 239h-147q-8 0 -8 22v3q0 13 1.5 17.5t6.5 4.5h172l85 156h-257q-8 0 -8 22v3q0 13 1.5 17.5t6.5 4.5h283l51 94q2 4 5.5 5.5t15.5 1.5h9q11 0 14.5 -2t1.5 -5l-51 -94h147q5 0 6.5 -4.5t1.5 -17.5v-3q0 -22 -8 -22h-173l-85 -156h258q5 0 6.5 -4.5t1.5 -17.5v-3
q0 -22 -8 -22h-283l-51 -94q-2 -4 -5 -6t-16 -2h-9q-12 0 -15 2.5t-1 5.5z" />
    <glyph glyph-name="lessequal" unicode="&#x2264;" 
d="M41 448q0 12 2 17t7 8l449 251q6 3 10 0.5t10 -13.5l4 -7q6 -11 7 -15.5t-4 -7.5l-425 -237l425 -237q5 -3 4 -7.5t-7 -15.5l-4 -7q-6 -11 -10 -13.5t-10 0.5l-449 251q-5 3 -7 8t-2 17v8zM49 0q-8 0 -8 22v3q0 13 1.5 17.5t6.5 4.5h476q5 0 6.5 -4.5t1.5 -17.5v-3
q0 -22 -8 -22h-476z" />
    <glyph glyph-name="greaterequal" unicode="&#x2265;" 
d="M533 440q0 -12 -2 -17t-7 -8l-449 -251q-6 -3 -10 -0.5t-10 13.5l-4 7q-6 11 -7 15.5t4 7.5l425 237l-425 237q-5 3 -4 7.5t7 15.5l4 7q6 11 10 13.5t10 -0.5l449 -251q5 -3 7 -8t2 -17v-8zM49 0q-8 0 -8 22v3q0 13 1.5 17.5t6.5 4.5h476q5 0 6.5 -4.5t1.5 -17.5v-3
q0 -22 -8 -22h-476z" />
    <glyph glyph-name="lozenge" unicode="&#x25ca;" horiz-adv-x="545" 
d="M449 365l-177 307l-177 -307l177 -307zM266 -22q-13 0 -17.5 1.5t-6.5 5.5l-200 340q-7 13 -7 33v14q0 20 7 33l200 340q2 4 6.5 5.5t17.5 1.5h12q13 0 17.5 -1.5t6.5 -5.5l200 -340q7 -13 7 -33v-14q0 -20 -7 -33l-200 -340q-2 -4 -6.5 -5.5t-17.5 -1.5h-12z" />
    <glyph glyph-name="uniE000" unicode="&#xe000;" horiz-adv-x="530" 
d="M0 530h530v-530h-530v530z" />
    <glyph glyph-name="grave.cap" horiz-adv-x="354" 
d="M144 913q20 0 26.5 -2.5t9.5 -7.5l67 -118q4 -7 -20 -7h-4q-14 0 -19 1t-8 5l-88 119q-4 5 0 7.5t21 2.5h15z" />
    <glyph glyph-name="acute.cap" horiz-adv-x="354" 
d="M224 913q17 0 21 -2.5t0 -7.5l-88 -119q-3 -4 -8 -5t-19 -1h-4q-24 0 -20 7l67 118q3 5 9.5 7.5t26.5 2.5h15z" />
    <glyph glyph-name="dieresis.cap" horiz-adv-x="354" 
d="M28 846q0 20 13.5 34t33.5 14t34 -14t14 -34t-14 -33.5t-34 -13.5t-33.5 13.5t-13.5 33.5zM230 846q0 20 13.5 34t33.5 14t34 -14t14 -34t-14 -33.5t-34 -13.5t-33.5 13.5t-13.5 33.5z" />
    <glyph glyph-name="circumflex.cap" horiz-adv-x="354" 
d="M190 921q15 0 22 -2.5t12 -7.5l94 -100q5 -5 -4 -16l-5 -6q-10 -11 -16 -6l-116 97l-116 -97q-6 -5 -16 6l-5 6q-9 11 -4 16l94 100q5 5 12 7.5t22 2.5h26z" />
    <glyph glyph-name="tilde.cap" horiz-adv-x="354" 
d="M327 857q-14 -17 -38 -30.5t-50 -13.5q-21 0 -37 6t-30.5 13t-29 13t-31.5 6q-16 0 -28.5 -7t-29.5 -23q-6 -5 -16 8l-8 10q-7 10 -2 16q14 17 38 30.5t50 13.5q21 0 37 -6t30.5 -13t29 -13t31.5 -6q16 0 28.5 7t29.5 23q3 2 6.5 1t9.5 -9l8 -10q7 -10 2 -16z" />
    <glyph glyph-name="macron.cap" horiz-adv-x="354" 
d="M308 874q5 0 6.5 -4.5t1.5 -18.5v-3q0 -25 -8 -25h-262q-8 0 -8 25v3q0 14 1.5 18.5t6.5 4.5h262z" />
    <glyph glyph-name="breve.cap" horiz-adv-x="354" 
d="M177 795q-29 0 -53.5 7.5t-43 22t-29 35t-10.5 46.5q0 3 2.5 4.5t16.5 1.5h12q13 0 15.5 -1.5t3.5 -8.5q4 -32 26 -49t60 -17t60 17t26 49q1 7 3.5 8.5t15.5 1.5h12q14 0 16.5 -1.5t2.5 -4.5q0 -26 -10.5 -46.5t-29 -35t-43.5 -22t-53 -7.5z" />
    <glyph glyph-name="dotaccent.cap" horiz-adv-x="354" 
d="M130 840q0 20 13 33.5t33 13.5t33.5 -13.5t13.5 -33.5t-13.5 -33t-33.5 -13t-33 13t-13 33z" />
    <glyph glyph-name="ring.cap" horiz-adv-x="354" 
d="M83 868q0 19 7.5 35.5t20.5 28.5t30 19t36 7t36 -7t30 -19t20.5 -28.5t7.5 -35.5t-7.5 -35.5t-20.5 -28.5t-30 -19t-36 -7t-36 7t-30 19t-20.5 28.5t-7.5 35.5zM126 868q0 -23 15 -37t36 -14q23 0 36 15t13 36t-13 36t-36 15q-21 0 -36 -14t-15 -37z" />
    <glyph glyph-name="hungarumlaut.cap" horiz-adv-x="354" 
d="M146 913q17 0 21 -2.5t0 -7.5l-88 -119q-3 -4 -8 -5t-19 -1h-4q-24 0 -20 7l67 118q3 5 9.5 7.5t26.5 2.5h15zM303 913q17 0 21 -2.5t0 -7.5l-88 -119q-3 -4 -8 -5t-19 -1h-4q-24 0 -20 7l67 118q3 5 9.5 7.5t26.5 2.5h15z" />
    <glyph glyph-name="caron.cap" horiz-adv-x="354" 
d="M36 898q-3 4 -2.5 6.5t6.5 9.5l5 6q6 7 9 8t7 -2l116 -97l116 97q4 3 7 2t9 -8l5 -6q6 -7 6 -9.5t-2 -6.5l-94 -100q-5 -5 -12 -7.5t-22 -2.5h-26q-15 0 -22 2.5t-12 7.5z" />
    <glyph glyph-name="apple" horiz-adv-x="525" 
d="M467 542v-66h-201v-66h201v-202h-269v66h202v69h-202v199h269zM467 676v-66h-334v-543h74v-67h-141v676h401z" />
    </font>
</defs>
</svg>
